<svg width="319" height="321" viewBox="0 0 319 321" fill="none" xmlns="http://www.w3.org/2000/svg">
<path d="M287.036 255.831H265.906V255.991H287.036V255.831Z" fill="#EBEBEB"/>
<path d="M211.318 257.577H205.774V257.737H211.318V257.577Z" fill="#EBEBEB"/>
<path d="M265.268 249.873H253.024V250.033H265.268V249.873Z" fill="#EBEBEB"/>
<path d="M61.0245 250.951H33.4692V251.112H61.0245V250.951Z" fill="#EBEBEB"/>
<path d="M70.748 250.951H66.7095V251.112H70.748V250.951Z" fill="#EBEBEB"/>
<path d="M143.646 253.661H83.8779V253.821H143.646V253.661Z" fill="#EBEBEB"/>
<path d="M152.099 216.868H28.9013C27.9351 216.868 27.0085 216.481 26.3253 215.794C25.6421 215.106 25.2583 214.174 25.2583 213.202V38.9438C25.2667 37.9771 25.6542 37.0529 26.3365 36.3724C27.0188 35.6918 27.9406 35.31 28.9013 35.3101H152.099C152.577 35.3101 153.051 35.4049 153.493 35.5891C153.935 35.7733 154.337 36.0433 154.675 36.3838C155.013 36.7242 155.282 37.1283 155.465 37.573C155.648 38.0178 155.742 38.4945 155.742 38.9759V213.202C155.742 213.683 155.648 214.16 155.465 214.605C155.282 215.049 155.013 215.454 154.675 215.794C154.337 216.134 153.935 216.404 153.493 216.589C153.051 216.773 152.577 216.868 152.099 216.868V216.868ZM28.9013 35.4385C27.9779 35.4402 27.0929 35.81 26.44 36.467C25.787 37.124 25.4195 38.0146 25.4178 38.9438V213.202C25.4195 214.131 25.787 215.022 26.44 215.679C27.0929 216.336 27.9779 216.705 28.9013 216.707H152.099C153.022 216.705 153.907 216.336 154.56 215.679C155.213 215.022 155.581 214.131 155.583 213.202V38.9438C155.581 38.0146 155.213 37.124 154.56 36.467C153.907 35.81 153.022 35.4402 152.099 35.4385H28.9013Z" fill="#EBEBEB"/>
<path d="M290.099 216.868H166.901C165.935 216.868 165.008 216.481 164.325 215.794C163.642 215.106 163.258 214.174 163.258 213.202V38.9438C163.266 37.9771 163.654 37.0529 164.336 36.3724C165.018 35.6918 165.94 35.31 166.901 35.3101H290.099C291.065 35.3101 291.991 35.6963 292.675 36.3838C293.358 37.0712 293.742 38.0036 293.742 38.9759V213.202C293.742 214.174 293.358 215.106 292.675 215.794C291.991 216.481 291.065 216.868 290.099 216.868V216.868ZM166.901 35.4385C165.977 35.4402 165.092 35.81 164.439 36.467C163.787 37.124 163.419 38.0146 163.417 38.9438V213.202C163.419 214.131 163.787 215.022 164.439 215.679C165.092 216.336 165.977 216.705 166.901 216.707H290.099C291.022 216.705 291.907 216.336 292.56 215.679C293.213 215.022 293.58 214.131 293.582 213.202V38.9438C293.58 38.0146 293.213 37.124 292.56 36.467C291.907 35.81 291.022 35.4402 290.099 35.4385H166.901Z" fill="#EBEBEB"/>
<path d="M319 245.501H0V245.661H319V245.501Z" fill="#EBEBEB"/>
<path d="M76.1327 202.07C75.5968 195.868 69.3061 193.55 61.8479 194.205C54.3896 194.86 48.603 198.243 49.1261 204.445L76.1327 202.07Z" fill="#9DD6FF"/>
<path d="M61.6055 191.374C65.0634 191.066 66.1672 188.125 65.8673 184.646C65.5675 181.166 63.9533 178.463 60.5081 178.765C57.0629 179.067 55.9464 182.013 56.2463 185.493C56.5461 188.973 58.1475 191.676 61.6055 191.374Z" fill="#9DD6FF"/>
<path d="M216.984 69.9781C217.044 70.6664 216.9 71.3572 216.571 71.9633C216.241 72.5694 215.74 73.0634 215.131 73.3828C214.522 73.7023 213.833 73.8328 213.15 73.7578C212.467 73.6829 211.822 73.4059 211.296 72.9619C210.77 72.5178 210.387 71.9267 210.194 71.2634C210.002 70.6 210.01 69.8942 210.216 69.2352C210.423 68.5762 210.819 67.9938 211.355 67.5615C211.891 67.1291 212.542 66.8664 213.226 66.8066C214.142 66.7264 215.052 67.0154 215.757 67.61C216.461 68.2047 216.903 69.0563 216.984 69.9781Z" fill="#E5FCF6"/>
<path d="M236.169 68.2704C236.228 68.9572 236.083 69.6464 235.753 70.2506C235.423 70.8549 234.923 71.3471 234.315 71.6651C233.707 71.983 233.019 72.1124 232.338 72.0369C231.657 71.9615 231.013 71.6845 230.489 71.241C229.964 70.7975 229.582 70.2074 229.391 69.5454C229.199 68.8833 229.207 68.1791 229.414 67.5217C229.62 66.8642 230.016 66.2832 230.55 65.8519C231.085 65.4207 231.735 65.1586 232.417 65.0989C233.332 65.0205 234.241 65.3103 234.944 65.9048C235.647 66.4992 236.088 67.3499 236.169 68.2704V68.2704Z" fill="#E5FCF6"/>
<path d="M255.36 66.5818C255.42 67.2701 255.276 67.961 254.947 68.5671C254.617 69.1731 254.116 69.6671 253.507 69.9866C252.898 70.306 252.209 70.4365 251.526 70.3616C250.843 70.2867 250.198 70.0096 249.672 69.5656C249.146 69.1216 248.763 68.5305 248.57 67.8671C248.378 67.2038 248.386 66.4979 248.592 65.839C248.799 65.18 249.195 64.5975 249.731 64.1652C250.267 63.7329 250.918 63.4702 251.602 63.4104C252.518 63.3302 253.428 63.6192 254.133 64.2138C254.837 64.8084 255.279 65.6601 255.36 66.5818V66.5818Z" fill="#E5FCF6"/>
<path d="M218.694 89.636C218.754 90.3243 218.61 91.0152 218.281 91.6213C217.951 92.2274 217.45 92.7214 216.841 93.0408C216.232 93.3602 215.543 93.4907 214.86 93.4158C214.177 93.3409 213.532 93.0639 213.006 92.6198C212.48 92.1758 212.096 91.5847 211.904 90.9213C211.712 90.258 211.72 89.5521 211.926 88.8932C212.133 88.2342 212.529 87.6517 213.065 87.2194C213.601 86.7871 214.252 86.5244 214.936 86.4645C215.852 86.3844 216.762 86.6734 217.467 87.268C218.171 87.8626 218.612 88.7143 218.694 89.636Z" fill="#E5FCF6"/>
<path d="M237.878 87.9541C237.937 88.641 237.793 89.3301 237.463 89.9344C237.133 90.5386 236.632 91.0308 236.024 91.3488C235.416 91.6668 234.728 91.7962 234.047 91.7207C233.366 91.6452 232.723 91.3682 232.198 90.9247C231.674 90.4812 231.292 89.8911 231.1 89.2291C230.909 88.5671 230.917 87.8628 231.123 87.2054C231.33 86.548 231.725 85.9669 232.26 85.5357C232.794 85.1044 233.444 84.8424 234.127 84.7826C234.58 84.743 235.037 84.7936 235.47 84.9315C235.904 85.0694 236.307 85.292 236.655 85.5865C237.004 85.881 237.291 86.2417 237.501 86.6479C237.711 87.0541 237.839 87.498 237.878 87.9541Z" fill="#E5FCF6"/>
<path d="M257.07 86.2592C257.13 86.9475 256.986 87.6384 256.657 88.2444C256.327 88.8505 255.826 89.3445 255.217 89.6639C254.608 89.9834 253.919 90.1139 253.236 90.039C252.553 89.964 251.908 89.687 251.382 89.243C250.856 88.799 250.472 88.2079 250.28 87.5445C250.088 86.8811 250.096 86.1753 250.302 85.5163C250.509 84.8574 250.905 84.2749 251.441 83.8426C251.977 83.4103 252.628 83.1476 253.312 83.0877C254.228 83.0076 255.138 83.2965 255.843 83.8912C256.547 84.4858 256.988 85.3375 257.07 86.2592V86.2592Z" fill="#E5FCF6"/>
<path d="M220.404 109.32C220.463 110.007 220.318 110.696 219.988 111.3C219.658 111.904 219.158 112.396 218.55 112.714C217.942 113.032 217.254 113.162 216.573 113.086C215.892 113.011 215.248 112.734 214.724 112.29C214.199 111.847 213.817 111.257 213.626 110.595C213.434 109.933 213.442 109.228 213.649 108.571C213.855 107.914 214.251 107.333 214.785 106.901C215.32 106.47 215.969 106.208 216.652 106.148C217.105 106.108 217.562 106.158 217.997 106.295C218.431 106.433 218.834 106.655 219.182 106.95C219.531 107.245 219.818 107.606 220.028 108.012C220.237 108.419 220.365 108.863 220.404 109.32V109.32Z" fill="#E5FCF6"/>
<path d="M239.594 107.625C239.655 108.313 239.511 109.004 239.181 109.61C238.852 110.216 238.351 110.71 237.742 111.03C237.133 111.349 236.443 111.48 235.761 111.405C235.078 111.33 234.433 111.053 233.907 110.609C233.381 110.165 232.997 109.574 232.805 108.91C232.613 108.247 232.621 107.541 232.827 106.882C233.034 106.223 233.43 105.641 233.966 105.208C234.501 104.776 235.153 104.513 235.837 104.453C236.753 104.373 237.663 104.662 238.368 105.257C239.072 105.852 239.513 106.703 239.594 107.625Z" fill="#E5FCF6"/>
<path d="M258.779 105.93C258.84 106.618 258.696 107.309 258.366 107.915C258.036 108.521 257.535 109.015 256.926 109.335C256.317 109.654 255.628 109.785 254.945 109.71C254.263 109.635 253.618 109.358 253.091 108.914C252.565 108.47 252.182 107.879 251.99 107.215C251.798 106.552 251.805 105.846 252.012 105.187C252.218 104.528 252.615 103.946 253.15 103.513C253.686 103.081 254.337 102.818 255.021 102.759C255.937 102.678 256.848 102.967 257.552 103.562C258.257 104.157 258.698 105.008 258.779 105.93V105.93Z" fill="#E5FCF6"/>
<path d="M254.632 107.073L215.216 110.54L250.166 67.8081L214.368 70.9603C214.268 70.97 214.167 70.9595 214.071 70.9293C213.976 70.8992 213.887 70.8501 213.81 70.7849C213.733 70.7197 213.67 70.6397 213.625 70.5497C213.579 70.4596 213.552 70.3613 213.545 70.2606V70.2606C213.527 70.0588 213.59 69.8582 213.719 69.7029C213.848 69.5476 214.033 69.4503 214.234 69.4324L253.656 65.9656L218.7 108.697L254.511 105.545C254.713 105.529 254.913 105.593 255.068 105.724C255.223 105.855 255.321 106.042 255.34 106.245C255.348 106.346 255.336 106.448 255.305 106.544C255.273 106.641 255.223 106.73 255.157 106.807C255.092 106.884 255.011 106.947 254.921 106.993C254.831 107.038 254.733 107.066 254.632 107.073V107.073Z" fill="#003D3F"/>
<path d="M255.238 183.362C255.178 183.175 255.064 183.01 254.911 182.888C254.757 182.766 254.572 182.691 254.377 182.675C252.663 182.595 251.041 181.874 249.828 180.652C248.252 179.054 247.327 176.633 247.174 173.757C247.16 173.498 247.047 173.254 246.86 173.075C246.672 172.896 246.424 172.796 246.166 172.794V172.794C246.027 172.795 245.889 172.824 245.76 172.88C245.632 172.936 245.517 173.017 245.421 173.119C245.325 173.221 245.25 173.342 245.202 173.473C245.153 173.605 245.132 173.745 245.139 173.886C245.318 177.263 246.453 180.152 248.386 182.097C249.9 183.623 251.909 184.55 254.045 184.71H254.192C254.36 184.723 254.528 184.694 254.682 184.625C254.836 184.557 254.971 184.451 255.074 184.318C255.178 184.184 255.247 184.027 255.276 183.86C255.304 183.694 255.292 183.522 255.238 183.362V183.362Z" fill="#9DD6FF"/>
<path d="M253.197 195.682C244.743 194.937 238.644 189.14 236.717 180.088C236.687 179.952 236.684 179.811 236.708 179.674C236.733 179.537 236.785 179.406 236.862 179.29C236.938 179.173 237.037 179.074 237.152 178.997C237.268 178.92 237.398 178.867 237.534 178.842V178.842C237.792 178.796 238.058 178.851 238.277 178.997C238.495 179.143 238.65 179.368 238.708 179.625C240.437 187.759 245.86 192.972 253.382 193.634C261.625 194.359 270.474 188.902 272.063 175.151C272.09 174.882 272.221 174.636 272.428 174.464C272.634 174.292 272.899 174.209 273.166 174.232V174.232C273.301 174.244 273.433 174.282 273.553 174.345C273.673 174.409 273.78 174.495 273.866 174.601C273.952 174.706 274.017 174.828 274.055 174.959C274.094 175.089 274.106 175.227 274.091 175.362C272.567 188.331 264.094 196.638 253.197 195.682Z" fill="#9DD6FF"/>
<path d="M237.247 171.067C237.112 171.056 236.98 171.018 236.86 170.955C236.74 170.891 236.633 170.804 236.547 170.699C236.461 170.594 236.396 170.472 236.358 170.341C236.319 170.21 236.307 170.073 236.322 169.937C237.84 156.969 246.313 148.655 257.203 149.618C266.773 150.459 273.185 157.65 274.187 168.48C274.197 168.616 274.181 168.753 274.138 168.882C274.095 169.012 274.028 169.131 273.938 169.234C273.849 169.337 273.741 169.421 273.619 169.481C273.498 169.541 273.365 169.576 273.23 169.584V169.584C272.964 169.597 272.703 169.505 272.503 169.327C272.303 169.15 272.179 168.902 272.158 168.634C271.233 158.876 265.51 152.411 257.031 151.666C248.82 150.941 239.933 156.391 238.35 170.13C238.339 170.264 238.302 170.395 238.24 170.515C238.179 170.635 238.094 170.742 237.992 170.829C237.889 170.916 237.771 170.982 237.643 171.023C237.515 171.064 237.38 171.079 237.247 171.067Z" fill="#9DD6FF"/>
<path d="M253.611 190.18C252.096 190.057 250.61 189.684 249.215 189.076C249.085 189.018 248.968 188.934 248.872 188.829C248.776 188.724 248.703 188.6 248.656 188.465C248.61 188.33 248.592 188.186 248.604 188.044C248.616 187.902 248.657 187.763 248.724 187.637V187.637C248.844 187.417 249.04 187.249 249.276 187.166C249.512 187.083 249.77 187.091 250 187.188C251.33 187.763 252.752 188.093 254.198 188.164C260.444 188.523 267.041 184.068 267.692 173.308C268.087 166.676 265.829 161.322 261.618 158.76C261.4 158.628 261.239 158.418 261.167 158.172C261.095 157.926 261.117 157.662 261.229 157.431V157.431C261.292 157.304 261.381 157.191 261.49 157.1C261.598 157.008 261.724 156.94 261.86 156.9C261.996 156.86 262.139 156.848 262.279 156.865C262.42 156.883 262.555 156.929 262.677 157.001C267.558 159.967 270.174 165.989 269.727 173.43C269.089 183.805 262.671 190.713 254.077 190.218L253.611 190.18Z" fill="#9DD6FF"/>
<path d="M244.526 183.779C244.409 183.859 244.276 183.914 244.137 183.94C243.997 183.966 243.854 183.963 243.716 183.931C243.577 183.899 243.447 183.839 243.333 183.754C243.219 183.67 243.123 183.562 243.052 183.439C241.161 179.901 240.33 175.886 240.66 171.883C241.26 161.951 247.174 155.191 255.206 155.075C255.348 155.072 255.488 155.099 255.619 155.153C255.75 155.208 255.868 155.288 255.966 155.391C256.065 155.493 256.141 155.615 256.19 155.749C256.239 155.882 256.261 156.024 256.253 156.167V156.167C256.237 156.423 256.126 156.665 255.941 156.843C255.757 157.021 255.513 157.124 255.257 157.13C249.298 157.245 243.314 161.778 242.701 172.005C242.392 175.619 243.132 179.245 244.832 182.444C244.96 182.666 245 182.928 244.943 183.178C244.886 183.429 244.737 183.648 244.526 183.792V183.779Z" fill="#9DD6FF"/>
<path d="M258.473 182.97C258.376 182.742 258.365 182.486 258.441 182.25C258.518 182.014 258.676 181.813 258.888 181.686C261.574 180.062 263.22 176.653 263.245 172.538C263.245 169.244 262.32 166.458 260.572 164.692C259.893 164.015 259.084 163.485 258.194 163.134C257.305 162.783 256.353 162.619 255.398 162.651C252.253 162.651 249.701 164.391 248.291 167.446C248.182 167.679 247.99 167.861 247.754 167.958C247.517 168.054 247.253 168.057 247.015 167.966V167.966C246.882 167.917 246.76 167.84 246.658 167.741C246.556 167.642 246.475 167.522 246.421 167.39C246.367 167.258 246.341 167.116 246.345 166.973C246.348 166.83 246.38 166.69 246.44 166.56C248.189 162.818 251.461 160.603 255.372 160.596C256.598 160.565 257.816 160.782 258.956 161.237C260.095 161.692 261.131 162.373 262.001 163.241C264.139 165.398 265.3 168.705 265.274 172.557C265.236 177.404 263.207 181.474 259.902 183.471C259.777 183.54 259.639 183.581 259.497 183.593C259.355 183.605 259.212 183.586 259.077 183.539C258.943 183.492 258.819 183.417 258.715 183.319C258.611 183.221 258.529 183.102 258.473 182.97V182.97Z" fill="#9DD6FF"/>
<path d="M251.123 175.388C250.987 175.444 250.84 175.47 250.693 175.463C250.546 175.457 250.402 175.418 250.272 175.35C250.141 175.283 250.026 175.187 249.935 175.071C249.844 174.954 249.779 174.82 249.745 174.675C249.675 174.399 249.624 174.111 249.579 173.815C248.999 169.963 251.053 166.631 254.352 166.034C255.12 165.866 255.916 165.881 256.677 166.079C257.438 166.276 258.143 166.65 258.735 167.171C258.846 167.27 258.933 167.393 258.99 167.531C259.047 167.669 259.073 167.818 259.065 167.967C259.057 168.117 259.016 168.262 258.944 168.393C258.873 168.524 258.773 168.637 258.652 168.724L258.588 168.769C258.397 168.903 258.165 168.966 257.933 168.949C257.701 168.931 257.481 168.834 257.312 168.673C256.954 168.369 256.531 168.153 256.076 168.041C255.621 167.93 255.146 167.926 254.69 168.031C252.176 168.487 251.219 171.119 251.576 173.481C251.615 173.712 251.653 173.937 251.71 174.123C251.772 174.365 251.744 174.621 251.633 174.844C251.522 175.067 251.334 175.242 251.104 175.337L251.123 175.388Z" fill="#9DD6FF"/>
<path d="M254.498 179.343C254.337 179.327 254.183 179.27 254.05 179.178C253.917 179.085 253.81 178.96 253.738 178.814C253.667 178.668 253.633 178.506 253.641 178.344C253.649 178.181 253.698 178.024 253.784 177.885L253.873 177.744C253.964 177.597 254.094 177.478 254.248 177.4C254.403 177.322 254.575 177.288 254.747 177.301C255.067 177.32 255.388 177.3 255.704 177.243C257.899 176.845 258.894 174.791 258.894 172.698C258.888 172.447 258.972 172.202 259.132 172.008C259.291 171.814 259.515 171.685 259.762 171.645V171.645C259.903 171.623 260.048 171.632 260.186 171.67C260.324 171.708 260.453 171.775 260.563 171.867C260.674 171.958 260.764 172.072 260.829 172.201C260.893 172.33 260.929 172.471 260.936 172.615C260.993 175.966 259.022 178.733 256.068 179.266C255.55 179.362 255.022 179.388 254.498 179.343V179.343Z" fill="#9DD6FF"/>
<path d="M254.951 175.549C254.436 175.505 253.947 175.3 253.553 174.963C253.16 174.625 252.881 174.172 252.756 173.668C252.72 173.525 252.719 173.376 252.751 173.233C252.784 173.089 252.85 172.956 252.945 172.844C253.039 172.731 253.158 172.643 253.293 172.587C253.428 172.53 253.574 172.507 253.72 172.518H253.956C254.134 172.537 254.304 172.608 254.443 172.722C254.582 172.836 254.686 172.988 254.74 173.16C254.763 173.25 254.812 173.33 254.882 173.39C254.952 173.45 255.038 173.486 255.13 173.494C255.621 173.539 255.704 172.852 255.717 172.685C255.746 172.435 255.699 172.182 255.583 171.96C255.407 171.746 255.316 171.473 255.327 171.196V171.196C255.344 170.992 255.42 170.797 255.547 170.637C255.673 170.477 255.845 170.359 256.039 170.298C256.233 170.236 256.441 170.234 256.636 170.293C256.83 170.351 257.004 170.466 257.133 170.624C257.631 171.257 257.86 172.063 257.771 172.865C257.605 174.553 256.425 175.677 254.951 175.549Z" fill="#9DD6FF"/>
<path d="M235.76 152.571C235.627 152.56 235.497 152.522 235.378 152.46C235.259 152.398 235.154 152.313 235.068 152.21C234.982 152.107 234.917 151.987 234.877 151.859C234.837 151.73 234.823 151.595 234.835 151.461L235.607 142.556L244.456 143.339C244.589 143.351 244.719 143.388 244.838 143.45C244.957 143.513 245.062 143.598 245.148 143.701C245.234 143.804 245.299 143.923 245.339 144.052C245.379 144.181 245.393 144.316 245.381 144.45V144.45C245.37 144.585 245.332 144.715 245.271 144.835C245.209 144.955 245.125 145.062 245.022 145.149C244.92 145.236 244.801 145.302 244.673 145.343C244.545 145.384 244.411 145.399 244.277 145.387L237.463 144.784L236.87 151.64C236.858 151.775 236.82 151.906 236.757 152.025C236.695 152.145 236.61 152.251 236.507 152.338C236.404 152.424 236.285 152.489 236.157 152.529C236.028 152.569 235.894 152.584 235.76 152.571V152.571Z" fill="#003D3F"/>
<path d="M277.824 156.276C277.69 156.264 277.56 156.227 277.441 156.165C277.323 156.103 277.217 156.017 277.131 155.914C277.045 155.811 276.98 155.692 276.94 155.563C276.9 155.434 276.886 155.299 276.898 155.165L277.492 148.309L270.678 147.711C270.544 147.699 270.414 147.661 270.295 147.598C270.176 147.535 270.071 147.45 269.985 147.346C269.899 147.242 269.834 147.122 269.795 146.993C269.755 146.864 269.741 146.729 269.753 146.594V146.594C269.764 146.46 269.802 146.329 269.863 146.21C269.925 146.09 270.009 145.984 270.112 145.898C270.215 145.811 270.333 145.746 270.461 145.706C270.589 145.665 270.723 145.651 270.857 145.663L279.706 146.44L278.934 155.364C278.905 155.632 278.772 155.878 278.564 156.049C278.357 156.219 278.09 156.301 277.824 156.276Z" fill="#003D3F"/>
<path d="M274.691 204.156L265.842 203.379C265.708 203.367 265.578 203.329 265.459 203.266C265.341 203.203 265.235 203.118 265.149 203.014C265.063 202.91 264.999 202.79 264.959 202.661C264.919 202.532 264.905 202.397 264.917 202.262V202.262C264.928 202.128 264.966 201.997 265.027 201.878C265.089 201.758 265.174 201.652 265.276 201.565C265.379 201.479 265.497 201.414 265.625 201.373C265.753 201.333 265.887 201.319 266.021 201.331L272.834 201.928L273.428 195.078C273.439 194.943 273.477 194.812 273.539 194.691C273.601 194.571 273.686 194.464 273.789 194.377C273.892 194.29 274.011 194.224 274.14 194.184C274.269 194.143 274.404 194.129 274.538 194.141C274.671 194.152 274.801 194.19 274.92 194.252C275.039 194.314 275.144 194.399 275.23 194.502C275.316 194.606 275.381 194.725 275.421 194.854C275.461 194.982 275.475 195.117 275.463 195.252L274.691 204.156Z" fill="#003D3F"/>
<path d="M239.441 201.036L230.592 200.253L231.364 191.355C231.39 191.083 231.521 190.833 231.729 190.657C231.936 190.482 232.204 190.396 232.474 190.417V190.417C232.608 190.429 232.738 190.468 232.857 190.531C232.976 190.593 233.081 190.679 233.167 190.783C233.253 190.887 233.318 191.006 233.358 191.135C233.398 191.264 233.412 191.4 233.399 191.534L232.806 198.378L239.614 198.982C239.747 198.993 239.877 199.031 239.997 199.093C240.116 199.155 240.222 199.24 240.308 199.343C240.395 199.446 240.46 199.565 240.501 199.694C240.541 199.822 240.556 199.958 240.545 200.092C240.522 200.364 240.393 200.616 240.187 200.793C239.98 200.97 239.712 201.057 239.441 201.036V201.036Z" fill="#003D3F"/>
<path d="M47.6777 181.769C47.5115 181.782 47.347 181.729 47.2194 181.621C47.0918 181.513 47.0113 181.359 46.9951 181.192L46.5229 175.722L51.9587 175.24C52.125 175.228 52.2895 175.281 52.4171 175.389C52.5447 175.497 52.6252 175.651 52.6414 175.818V175.818C52.6521 175.984 52.5982 176.148 52.4911 176.275C52.3839 176.402 52.2319 176.482 52.0672 176.499L47.8819 176.871L48.2456 181.083C48.2581 181.249 48.2059 181.413 48.0999 181.542C47.9939 181.67 47.8425 181.752 47.6777 181.769V181.769Z" fill="#003D3F"/>
<path d="M73.5421 179.49C73.3768 179.503 73.2132 179.45 73.0857 179.344C72.9583 179.237 72.8772 179.085 72.8594 178.919L72.4957 174.701L68.3041 175.073C68.1378 175.086 67.9733 175.033 67.8457 174.925C67.7181 174.817 67.6376 174.663 67.6214 174.496V174.496C67.609 174.328 67.6621 174.163 67.7694 174.034C67.8767 173.906 68.0297 173.825 68.1956 173.809L73.6314 173.334L74.1099 178.803C74.1224 178.97 74.0702 179.134 73.9642 179.263C73.8582 179.391 73.7068 179.473 73.5421 179.49V179.49Z" fill="#003D3F"/>
<path d="M76.2218 203.058L70.7797 203.54C70.6134 203.552 70.4489 203.499 70.3213 203.391C70.1937 203.283 70.1132 203.129 70.097 202.962V202.962C70.0845 202.795 70.1376 202.629 70.245 202.501C70.3523 202.372 70.5053 202.291 70.6712 202.275L74.8565 201.909L74.4928 197.698C74.4803 197.531 74.5325 197.367 74.6385 197.238C74.7445 197.11 74.8959 197.029 75.0606 197.011V197.011C75.2259 196.998 75.3895 197.051 75.517 197.157C75.6444 197.264 75.7255 197.416 75.7433 197.582L76.2218 203.058Z" fill="#003D3F"/>
<path d="M54.5425 204.965L49.1258 205.44L48.6473 199.964C48.6366 199.798 48.6905 199.634 48.7977 199.507C48.9048 199.38 49.0568 199.3 49.2215 199.283C49.3857 199.272 49.5478 199.326 49.6738 199.432C49.7998 199.539 49.8801 199.69 49.8978 199.855L50.2679 204.073L54.4531 203.7C54.6194 203.688 54.7839 203.741 54.9115 203.849C55.0391 203.957 55.1196 204.111 55.1358 204.278V204.278C55.1419 204.362 55.1313 204.447 55.1048 204.527C55.0782 204.608 55.0361 204.682 54.981 204.746C54.9259 204.809 54.8587 204.862 54.7835 204.899C54.7082 204.937 54.6263 204.959 54.5425 204.965V204.965Z" fill="#003D3F"/>
<path d="M73.1019 90.5221L52.3159 92.3197L51.8884 87.4212C51.8572 85.0834 52.7056 82.8201 54.2634 81.0854C55.8212 79.3507 57.9733 78.2729 60.2878 78.0682C62.6024 77.8635 64.9083 78.547 66.743 79.9816C68.5776 81.4163 69.8054 83.4959 70.1799 85.8034L70.4223 88.6539L73.4273 88.3906L73.1785 85.5402C73.0386 83.9324 72.5853 82.3681 71.8446 80.9366C71.1039 79.5051 70.0903 78.2344 68.8616 77.1971C67.6328 76.1598 66.2131 75.3762 64.6835 74.891C63.1538 74.4058 61.5441 74.2286 59.9464 74.3694C56.7196 74.6537 53.7372 76.2163 51.6553 78.7134C50.6245 79.9498 49.8457 81.3784 49.3636 82.9177C48.8814 84.4569 48.7052 86.0767 48.8452 87.6844L49.2726 92.615C48.089 92.8481 47.0329 93.5134 46.3074 94.4829C45.5819 95.4523 45.2382 96.6575 45.3425 97.8666L46.8291 114.969C46.8821 115.615 47.0613 116.244 47.3565 116.819C47.6516 117.395 48.0568 117.906 48.5488 118.324C49.0409 118.741 49.6101 119.057 50.2237 119.252C50.8373 119.448 51.4833 119.52 52.1245 119.463L75.4306 117.415C76.0721 117.362 76.6968 117.182 77.2688 116.885C77.8408 116.588 78.3489 116.18 78.7639 115.685C79.1789 115.19 79.4926 114.617 79.687 114C79.8813 113.382 79.9526 112.732 79.8966 112.087L78.4101 94.984C78.3532 94.3401 78.1706 93.7139 77.873 93.141C77.5753 92.5682 77.1683 92.06 76.6753 91.6456C76.1823 91.2312 75.6129 90.9187 74.9998 90.7259C74.3866 90.5331 73.7417 90.4638 73.1019 90.5221V90.5221ZM64.2592 103.702L64.7696 109.589C64.804 109.826 64.7899 110.068 64.7283 110.299C64.6666 110.53 64.5587 110.747 64.4111 110.934C64.2635 111.122 64.0794 111.278 63.8699 111.392C63.6605 111.505 63.4302 111.575 63.1932 111.596C62.9562 111.617 62.7174 111.589 62.4914 111.514C62.2655 111.439 62.0572 111.318 61.8792 111.159C61.7013 111 61.5575 110.806 61.4566 110.589C61.3557 110.372 61.2999 110.137 61.2925 109.898L60.7821 104.004C60.2558 103.679 59.8449 103.195 59.6079 102.621C59.3708 102.047 59.3198 101.412 59.462 100.808C59.6042 100.203 59.9325 99.6584 60.4 99.2523C60.8675 98.8461 61.4504 98.5987 62.0658 98.5453C62.6812 98.4919 63.2976 98.6352 63.8273 98.9548C64.357 99.2745 64.773 99.7541 65.016 100.326C65.2591 100.897 65.3167 101.531 65.1809 102.137C65.045 102.744 64.7225 103.291 64.2592 103.702V103.702Z" fill="#003D3F"/>
<path d="M108.741 100.402L106.642 96.942C105.584 97.0936 104.51 97.0936 103.452 96.942L101.346 100.39L100.944 100.28C99.5799 99.9187 98.2707 99.3723 97.0525 98.6561L96.6952 98.4507L97.582 94.7014C97.5992 94.6287 97.6306 94.5601 97.6743 94.4997C97.718 94.4392 97.7732 94.3881 97.8367 94.3493C97.9002 94.3105 97.9708 94.2847 98.0442 94.2736C98.1177 94.2624 98.1926 94.266 98.2647 94.2841C98.4093 94.3192 98.5342 94.4105 98.6119 94.5381C98.6897 94.6657 98.7139 94.8191 98.6794 94.9646L97.9776 97.8858C98.8842 98.3828 99.84 98.783 100.829 99.0799L102.884 95.703L103.26 95.7671C104.452 95.9598 105.667 95.9598 106.859 95.7671L107.229 95.703L109.283 99.0799C110.273 98.7853 111.229 98.385 112.135 97.8858L111.222 94.0338L111.529 93.809C112.36 93.2059 113.105 92.4909 113.743 91.684C113.831 91.5678 113.961 91.4908 114.105 91.4692C114.249 91.4476 114.396 91.4832 114.515 91.5685C114.577 91.6118 114.629 91.6674 114.669 91.7319C114.709 91.7963 114.736 91.8683 114.747 91.9434C114.758 92.0186 114.754 92.0952 114.735 92.1687C114.716 92.2423 114.682 92.3111 114.636 92.371C114.009 93.1677 113.287 93.8835 112.486 94.5024L113.424 98.4379L113.06 98.6433C111.843 99.3583 110.536 99.9047 109.174 100.268L108.741 100.402ZM95.8403 92.8653C95.668 92.6663 95.4958 92.4544 95.3299 92.2233L91.4189 93.167L91.2084 92.8075C90.502 91.579 89.9593 90.2623 89.5943 88.8913L89.4922 88.4869L92.9182 86.3683C92.7676 85.3036 92.7676 84.2229 92.9182 83.1583L89.4922 81.0461L89.5943 80.6352C89.9593 79.2663 90.502 77.9517 91.2084 76.7254L91.4189 76.3595L95.3299 77.3032C95.9829 76.4434 96.7467 75.6748 97.6012 75.0177L96.893 72.0388C96.8584 71.8933 96.8827 71.7398 96.9604 71.6122C97.0382 71.4847 97.1631 71.3933 97.3077 71.3583V71.3583C97.3789 71.3412 97.4528 71.3384 97.5251 71.3501C97.5974 71.3618 97.6667 71.3878 97.729 71.4266C97.7912 71.4654 97.8453 71.5162 97.8879 71.5761C97.9306 71.636 97.9611 71.7038 97.9776 71.7756L98.8644 75.4864L98.5582 75.7046C97.5752 76.4163 96.7134 77.2836 96.0062 78.2726L95.7829 78.5808L91.9549 77.6627C91.4587 78.574 91.0609 79.5361 90.7682 80.5325L94.1177 82.5997L94.0603 82.9721C93.8472 84.1695 93.8472 85.3955 94.0603 86.593L94.1177 86.9717L90.7682 89.039C91.0621 90.033 91.4598 90.9928 91.9549 91.9023L95.7829 90.9843L96.0062 91.2924C96.2045 91.5835 96.4174 91.8642 96.6442 92.1334C96.7425 92.2373 96.7973 92.3752 96.7973 92.5186C96.7973 92.662 96.7425 92.8 96.6442 92.9038V92.9038C96.5898 92.9562 96.5254 92.9969 96.4549 93.0234C96.3843 93.05 96.3092 93.0618 96.234 93.0582C96.1588 93.0546 96.0851 93.0356 96.0174 93.0025C95.9498 92.9693 95.8895 92.9226 95.8403 92.8653V92.8653ZM118.642 93.1799L117.201 92.8332C117.056 92.7982 116.931 92.7069 116.853 92.5793C116.776 92.4517 116.751 92.2983 116.786 92.1527V92.1527C116.821 92.0072 116.911 91.8815 117.038 91.8033C117.165 91.725 117.317 91.7006 117.462 91.7354L118.1 91.883C118.593 90.9733 118.989 90.0135 119.28 89.0197L115.931 86.9525L115.995 86.5737C116.208 85.3763 116.208 84.1503 115.995 82.9528L115.931 82.5805L119.28 80.5132C118.99 79.517 118.594 78.5549 118.1 77.6435L114.272 78.5615L114.055 78.2534C113.346 77.2658 112.485 76.3988 111.503 75.6854L111.197 75.4671L112.109 71.6151C111.204 71.1179 110.247 70.7197 109.257 70.4274L107.184 73.83L106.814 73.7658C105.622 73.5732 104.407 73.5732 103.216 73.7658L102.839 73.83L100.804 70.4402L100.421 70.5558C100.285 70.601 100.136 70.5907 100.008 70.5271C99.8788 70.4635 99.7799 70.3517 99.7321 70.2155V70.2155C99.7057 70.1452 99.6936 70.0703 99.6964 69.9952C99.6992 69.9201 99.7168 69.8463 99.7483 69.7781C99.7798 69.71 99.8245 69.6488 99.8798 69.5982C99.9351 69.5477 99.9998 69.5087 100.07 69.4837C100.351 69.3938 100.638 69.3103 100.919 69.2333L101.321 69.1241L103.426 72.5781C104.484 72.4199 105.559 72.4199 106.616 72.5781L108.715 69.1241L109.123 69.2333C110.484 69.599 111.791 70.1452 113.009 70.8575L113.373 71.0694L112.435 75.0049C113.29 75.6605 114.054 76.4293 114.706 77.2904L118.617 76.3466L118.827 76.7126C119.536 77.9375 120.079 79.2525 120.442 80.6224L120.55 81.0332L117.118 83.1454C117.277 84.2094 117.277 85.2914 117.118 86.3554L120.55 88.474L120.442 88.8785C120.079 90.2504 119.536 91.5675 118.827 92.7947L118.642 93.1799ZM104.874 90.2652C103.484 90.2098 102.166 89.6292 101.182 88.6393C100.198 87.6493 99.6213 86.3227 99.5662 84.9238C99.5282 83.5478 100.004 82.2075 100.899 81.1666C101.794 80.1257 103.044 79.4597 104.402 79.2998C104.482 79.2899 104.563 79.297 104.64 79.3208C104.716 79.3446 104.787 79.3845 104.848 79.4379C104.908 79.4913 104.956 79.557 104.989 79.6305C105.023 79.7041 105.04 79.784 105.04 79.8648V79.8648C105.04 80.0014 104.989 80.1329 104.899 80.2347C104.808 80.3364 104.684 80.4012 104.549 80.4169C103.604 80.5254 102.72 80.9432 102.033 81.6062C101.347 82.2691 100.895 83.1406 100.748 84.0866C100.602 85.0327 100.768 86.0011 101.221 86.843C101.674 87.685 102.389 88.3539 103.257 88.7471C104.125 89.1404 105.097 89.2361 106.023 89.0196C106.95 88.8032 107.781 88.2865 108.388 87.549C108.995 86.8114 109.344 85.8938 109.383 84.9371C109.421 83.9803 109.146 83.0374 108.6 82.253C108.522 82.1419 108.487 82.0051 108.504 81.8696C108.52 81.7341 108.586 81.6098 108.69 81.5212C108.749 81.468 108.819 81.4281 108.895 81.4042C108.971 81.3804 109.051 81.373 109.131 81.3828C109.21 81.3925 109.286 81.419 109.354 81.4606C109.422 81.5021 109.48 81.5578 109.525 81.6239C110.106 82.4594 110.444 83.4408 110.502 84.4585C110.559 85.4763 110.335 86.4901 109.853 87.3867C109.371 88.2833 108.651 89.0274 107.773 89.5358C106.895 90.0441 105.893 90.2967 104.881 90.2652H104.874Z" fill="#003D3F"/>
<path d="M69.1016 147.397L67.7427 145.169C67.0553 145.272 66.3566 145.272 65.6692 145.169L64.3102 147.397L64.0487 147.326C63.1679 147.092 62.3224 146.74 61.5349 146.28L61.3053 146.145L61.8795 143.718C61.9022 143.625 61.9604 143.544 62.0415 143.494C62.1227 143.444 62.2203 143.427 62.3133 143.449C62.3598 143.46 62.4037 143.48 62.4424 143.509C62.4811 143.537 62.5138 143.573 62.5387 143.614C62.5636 143.655 62.5802 143.701 62.5875 143.748C62.5948 143.796 62.5927 143.845 62.5813 143.891L62.1347 145.779C62.72 146.102 63.3382 146.36 63.9785 146.549L65.3055 144.373L65.5416 144.412C66.3126 144.54 67.0993 144.54 67.8703 144.412L68.1063 144.373L69.4398 146.549C70.0766 146.356 70.6923 146.098 71.2772 145.779L70.6902 143.301L70.888 143.153C71.4244 142.765 71.9053 142.305 72.3171 141.786C72.3732 141.709 72.457 141.658 72.5502 141.644C72.6434 141.63 72.7385 141.653 72.8148 141.709V141.709C72.8539 141.737 72.8872 141.772 72.9126 141.813C72.938 141.855 72.9551 141.9 72.9628 141.948C72.9705 141.996 72.9687 142.045 72.9575 142.092C72.9464 142.139 72.926 142.183 72.8977 142.222C72.4913 142.737 72.0242 143.201 71.5069 143.603L72.1449 146.171L71.9088 146.305C71.1219 146.767 70.2762 147.119 69.3951 147.352L69.1016 147.397ZM60.7693 142.524L60.4376 142.12L57.8856 142.723L57.7516 142.492C57.3021 141.696 56.9609 140.843 56.7372 139.956L56.667 139.693L58.8809 138.325C58.7787 137.634 58.7787 136.931 58.8809 136.239L56.667 134.871L56.7372 134.608C56.9684 133.722 57.3183 132.871 57.7771 132.079L57.9111 131.841L60.4631 132.483C60.8735 131.921 61.3513 131.412 61.8858 130.968L61.4329 129.042C61.4215 128.996 61.4195 128.947 61.4268 128.9C61.4342 128.853 61.4509 128.808 61.4758 128.767C61.5008 128.727 61.5335 128.691 61.5721 128.664C61.6108 128.636 61.6545 128.616 61.7008 128.605V128.605C61.7938 128.584 61.8914 128.601 61.9726 128.651C62.0537 128.701 62.1119 128.782 62.1347 128.875L62.7089 131.27L62.5047 131.417C61.8724 131.874 61.3186 132.431 60.865 133.067L60.7183 133.266L58.2556 132.676C57.9388 133.264 57.6823 133.884 57.49 134.525L59.6528 135.86L59.6146 136.104C59.5488 136.49 59.5146 136.881 59.5125 137.272C59.5146 137.666 59.5487 138.059 59.6146 138.447L59.6528 138.685L57.49 140.02C57.6811 140.664 57.9376 141.285 58.2556 141.876L60.7183 141.279L60.865 141.478C60.9968 141.668 61.1396 141.85 61.2925 142.023C61.3553 142.09 61.3903 142.178 61.3903 142.27C61.3903 142.362 61.3553 142.451 61.2925 142.518C61.2595 142.554 61.2194 142.584 61.1746 142.604C61.1298 142.624 61.0814 142.635 61.0323 142.635C60.9832 142.636 60.9345 142.626 60.8893 142.607C60.844 142.588 60.8032 142.56 60.7693 142.524V142.524ZM75.5008 142.723L74.5693 142.505C74.5227 142.493 74.4789 142.473 74.4402 142.445C74.4015 142.416 74.3688 142.38 74.3439 142.339C74.319 142.298 74.3024 142.252 74.2951 142.205C74.2878 142.157 74.2899 142.109 74.3013 142.062V142.062C74.3118 142.015 74.3314 141.971 74.359 141.932C74.3866 141.893 74.4216 141.86 74.462 141.835C74.5024 141.81 74.5474 141.794 74.5943 141.786C74.6412 141.779 74.6891 141.781 74.7352 141.792L75.1371 141.888C75.4577 141.299 75.7144 140.677 75.9027 140.033L73.7399 138.698L73.7782 138.46C73.844 138.072 73.8781 137.679 73.8802 137.285C73.8781 136.894 73.8439 136.503 73.7782 136.117L73.7399 135.873L75.9027 134.538C75.7132 133.896 75.4566 133.276 75.1371 132.689L72.6744 133.279L72.5277 133.08C72.0741 132.444 71.5203 131.887 70.888 131.43L70.6902 131.283L71.2772 128.804C70.6935 128.483 70.0776 128.225 69.4398 128.034L68.1063 130.21L67.8703 130.172C67.0993 130.044 66.3126 130.044 65.5416 130.172L65.3055 130.21L63.9785 128.034L63.7297 128.111C63.6408 128.14 63.5443 128.132 63.4609 128.09C63.3774 128.048 63.3136 127.975 63.2831 127.886C63.2659 127.841 63.2579 127.793 63.2595 127.745C63.2612 127.697 63.2725 127.65 63.2927 127.606C63.313 127.562 63.3418 127.523 63.3774 127.491C63.413 127.458 63.4547 127.434 63.5 127.418L64.0487 127.251L64.3102 127.187L65.6692 129.414C66.3566 129.312 67.0553 129.312 67.7427 129.414L69.1016 127.187L69.3632 127.251C70.2436 127.489 71.0889 127.843 71.8769 128.304L72.113 128.439L71.475 131.007C72.0243 131.434 72.5174 131.93 72.9424 132.483L75.4944 131.841L75.6284 132.079C76.0872 132.871 76.437 133.722 76.6683 134.608L76.7385 134.871L74.5246 136.239C74.6267 136.931 74.6267 137.634 74.5246 138.325L76.7385 139.693L76.6683 139.956C76.4359 140.842 76.0862 141.693 75.6284 142.486L75.5008 142.723ZM66.607 140.842C65.7401 140.782 64.9255 140.403 64.3187 139.777C63.712 139.151 63.3556 138.322 63.3177 137.449C63.2798 136.575 63.5631 135.718 64.1134 135.041C64.6636 134.365 65.4423 133.916 66.3008 133.78C66.352 133.775 66.4037 133.78 66.4527 133.796C66.5016 133.812 66.5468 133.838 66.5852 133.872C66.6236 133.907 66.6545 133.949 66.6758 133.996C66.6972 134.043 66.7085 134.094 66.7091 134.146C66.7096 134.235 66.6773 134.321 66.6183 134.387C66.5594 134.454 66.4781 134.496 66.3901 134.505C65.852 134.567 65.3431 134.785 64.925 135.131C64.5068 135.477 64.1971 135.938 64.0333 136.458C63.8695 136.977 63.8586 137.533 64.0019 138.059C64.1451 138.585 64.4364 139.057 64.8407 139.42C65.2449 139.783 65.7448 140.02 66.2801 140.104C66.8154 140.187 67.3632 140.113 67.8574 139.89C68.3517 139.667 68.7713 139.305 69.0656 138.847C69.36 138.389 69.5165 137.856 69.5163 137.311C69.5175 136.731 69.3391 136.166 69.0059 135.693C68.9572 135.62 68.9362 135.532 68.9467 135.445C68.9573 135.358 68.9987 135.277 69.0633 135.218V135.218C69.1018 135.183 69.1471 135.157 69.1963 135.141C69.2456 135.126 69.2976 135.121 69.3489 135.127C69.4002 135.133 69.4497 135.15 69.4939 135.177C69.5382 135.203 69.5763 135.239 69.6056 135.282C69.9788 135.822 70.1957 136.456 70.2324 137.113C70.269 137.77 70.1239 138.424 69.8131 139.003C69.5024 139.582 69.0382 140.062 68.4722 140.392C67.9062 140.721 67.2606 140.886 66.607 140.868V140.842Z" fill="#003D3F"/>
<path d="M159.5 274.14C227.819 274.14 283.202 270.887 283.202 266.873C283.202 262.859 227.819 259.605 159.5 259.605C91.1815 259.605 35.7983 262.859 35.7983 266.873C35.7983 270.887 91.1815 274.14 159.5 274.14Z" fill="#F5F5F5"/>
<path d="M231.881 93.6229H211.108L196.434 262.629H217.207C220.122 262.573 222.917 261.445 225.063 259.458C227.209 257.471 228.558 254.763 228.857 251.844L241.674 104.402C241.823 103.028 241.679 101.638 241.253 100.325C240.826 99.0114 240.126 97.8045 239.199 96.7846C238.273 95.7647 237.141 94.9552 235.879 94.41C234.617 93.8648 233.254 93.5965 231.881 93.6229V93.6229Z" fill="#00D9DE"/>
<path d="M227.645 93.6228H157.337C154.421 93.6778 151.626 94.8043 149.479 96.7899C147.332 98.7756 145.981 101.483 145.681 104.402L132.863 251.844C132.716 253.216 132.86 254.605 133.286 255.918C133.713 257.23 134.411 258.436 135.336 259.456C136.261 260.476 137.391 261.286 138.651 261.834C139.911 262.381 141.272 262.652 142.644 262.629H212.945C215.857 262.567 218.646 261.436 220.787 259.45C222.929 257.464 224.276 254.759 224.576 251.844L237.393 104.402C237.542 103.032 237.399 101.646 236.975 100.336C236.551 99.0255 235.855 97.8208 234.933 96.8017C234.011 95.7825 232.885 94.972 231.628 94.424C230.372 93.876 229.014 93.6029 227.645 93.6228V93.6228Z" fill="#00D9DE"/>
<path opacity="0.3" d="M227.645 93.6228H157.337C154.421 93.6778 151.626 94.8043 149.479 96.7899C147.332 98.7756 145.981 101.483 145.681 104.402L132.863 251.844C132.716 253.216 132.86 254.605 133.286 255.918C133.713 257.23 134.411 258.436 135.336 259.456C136.261 260.476 137.391 261.286 138.651 261.834C139.911 262.381 141.272 262.652 142.644 262.629H212.945C215.857 262.567 218.646 261.436 220.787 259.45C222.929 257.464 224.276 254.759 224.576 251.844L237.393 104.402C237.542 103.032 237.399 101.646 236.975 100.336C236.551 99.0255 235.855 97.8208 234.933 96.8017C234.011 95.7825 232.885 94.972 231.628 94.424C230.372 93.876 229.014 93.6029 227.645 93.6228V93.6228Z" fill="white"/>
<path opacity="0.4" d="M227.345 97.0769H208.804C208.252 97.0814 207.713 97.2527 207.258 97.5686C206.803 97.8845 206.453 98.3304 206.252 98.8488V98.8488C205.521 100.753 204.243 102.395 202.58 103.564C200.918 104.734 198.947 105.379 196.918 105.416H185.983C184.073 105.455 182.209 104.822 180.713 103.627C179.216 102.432 178.181 100.749 177.785 98.868V98.868C177.679 98.3592 177.4 97.9035 176.996 97.5799C176.592 97.2563 176.087 97.0852 175.571 97.0961H157.037C155.055 97.1314 153.155 97.8963 151.696 99.2462C150.237 100.596 149.32 102.437 149.119 104.421L136.296 251.863C136.193 252.797 136.289 253.741 136.578 254.635C136.867 255.528 137.342 256.349 137.971 257.042C138.6 257.736 139.369 258.287 140.227 258.658C141.084 259.029 142.01 259.212 142.944 259.195H213.251C215.234 259.158 217.134 258.392 218.593 257.041C220.051 255.69 220.968 253.848 221.169 251.863L233.986 104.421C234.091 103.487 233.996 102.542 233.708 101.647C233.421 100.753 232.947 99.931 232.318 99.2358C231.689 98.5407 230.921 97.9885 230.063 97.6162C229.205 97.2439 228.279 97.06 227.345 97.0769V97.0769Z" fill="white"/>
<path d="M209.825 177.192H160.623C160.284 177.198 159.949 177.131 159.638 176.996C159.328 176.861 159.049 176.662 158.821 176.41C158.593 176.159 158.421 175.862 158.316 175.538C158.21 175.215 158.175 174.872 158.211 174.534L158.46 171.696C158.533 170.977 158.865 170.309 159.394 169.82C159.923 169.33 160.612 169.052 161.331 169.039H210.54C210.878 169.033 211.213 169.1 211.524 169.235C211.835 169.369 212.113 169.569 212.341 169.82C212.569 170.072 212.741 170.369 212.847 170.692C212.952 171.016 212.988 171.358 212.951 171.696L212.709 174.534C212.634 175.255 212.299 175.924 211.768 176.414C211.237 176.903 210.546 177.18 209.825 177.192Z" fill="white"/>
<path d="M208.766 189.39H159.557C159.219 189.396 158.884 189.329 158.574 189.194C158.264 189.059 157.985 188.86 157.758 188.608C157.53 188.357 157.359 188.059 157.254 187.736C157.15 187.412 157.115 187.07 157.152 186.732L157.395 183.895C157.469 183.176 157.802 182.509 158.331 182.019C158.859 181.53 159.547 181.252 160.266 181.237H209.475C209.813 181.231 210.148 181.298 210.459 181.433C210.769 181.567 211.048 181.767 211.276 182.018C211.504 182.27 211.676 182.567 211.781 182.89C211.887 183.214 211.922 183.556 211.886 183.895L211.637 186.732C211.563 187.451 211.23 188.118 210.701 188.607C210.173 189.097 209.485 189.375 208.766 189.39Z" fill="white"/>
<path opacity="0.1" d="M194.877 99.8375C194.796 100.636 194.426 101.378 193.838 101.921C193.25 102.464 192.485 102.771 191.687 102.784C191.312 102.791 190.94 102.717 190.595 102.568C190.251 102.419 189.942 102.198 189.689 101.919C189.436 101.64 189.245 101.31 189.128 100.951C189.012 100.592 188.973 100.213 189.014 99.8375C189.095 99.0385 189.464 98.2973 190.052 97.7542C190.64 97.211 191.406 96.9038 192.204 96.8907C192.579 96.8839 192.951 96.9576 193.296 97.1068C193.64 97.256 193.949 97.4774 194.202 97.7562C194.455 98.035 194.646 98.3648 194.762 98.7237C194.879 99.0825 194.918 99.4622 194.877 99.8375V99.8375Z" fill="black"/>
<path opacity="0.1" d="M193.55 99.8374C193.505 100.274 193.303 100.678 192.982 100.975C192.661 101.272 192.244 101.44 191.808 101.449C191.603 101.453 191.399 101.413 191.211 101.331C191.022 101.25 190.853 101.129 190.715 100.976C190.577 100.824 190.472 100.643 190.409 100.447C190.346 100.25 190.325 100.043 190.347 99.8374C190.391 99.4007 190.592 98.9954 190.914 98.6984C191.235 98.4013 191.653 98.2332 192.089 98.226C192.294 98.223 192.497 98.2638 192.685 98.3457C192.873 98.4276 193.042 98.5486 193.18 98.7009C193.318 98.8532 193.422 99.0333 193.486 99.2292C193.55 99.4251 193.572 99.6324 193.55 99.8374Z" fill="black"/>
<g opacity="0.8">
<path d="M218.687 104.755C218.577 104.757 218.468 104.735 218.367 104.691C218.266 104.647 218.175 104.581 218.101 104.499C218.027 104.418 217.971 104.321 217.937 104.215C217.902 104.11 217.891 103.999 217.902 103.888L218.043 102.309C218.066 102.076 218.174 101.859 218.346 101.701C218.517 101.542 218.741 101.452 218.974 101.449C219.084 101.447 219.192 101.469 219.293 101.513C219.393 101.557 219.484 101.621 219.558 101.702C219.632 101.784 219.688 101.88 219.723 101.984C219.757 102.089 219.77 102.199 219.759 102.309L219.619 103.888C219.595 104.122 219.488 104.34 219.316 104.499C219.144 104.659 218.921 104.75 218.687 104.755Z" fill="white"/>
<path d="M225.552 104.755C225.442 104.757 225.333 104.735 225.232 104.691C225.13 104.647 225.04 104.581 224.966 104.499C224.892 104.418 224.835 104.321 224.801 104.215C224.767 104.11 224.755 103.999 224.767 103.888L225.093 100.184C225.116 99.9507 225.224 99.7341 225.396 99.5755C225.567 99.4169 225.791 99.3273 226.024 99.3238C226.134 99.3224 226.242 99.3442 226.343 99.3879C226.443 99.4316 226.534 99.4961 226.608 99.5773C226.682 99.6585 226.738 99.7545 226.773 99.8591C226.807 99.9636 226.82 100.074 226.809 100.184L226.483 103.888C226.46 104.122 226.352 104.34 226.181 104.499C226.009 104.659 225.786 104.75 225.552 104.755Z" fill="white"/>
<path d="M222.12 104.755C222.01 104.757 221.9 104.735 221.799 104.691C221.698 104.647 221.608 104.581 221.534 104.499C221.459 104.418 221.403 104.321 221.369 104.215C221.335 104.11 221.323 103.999 221.335 103.888L221.565 101.25C221.588 101.015 221.697 100.797 221.87 100.637C222.043 100.477 222.268 100.387 222.503 100.383V100.383C222.612 100.381 222.721 100.403 222.822 100.448C222.923 100.492 223.013 100.557 223.087 100.639C223.161 100.721 223.216 100.818 223.249 100.923C223.283 101.029 223.294 101.14 223.281 101.25L223.051 103.888C223.028 104.122 222.92 104.34 222.749 104.499C222.577 104.659 222.353 104.75 222.12 104.755V104.755Z" fill="white"/>
</g>
<g opacity="0.8">
<path d="M159.908 104.755H155.595C155.533 104.756 155.471 104.744 155.414 104.72C155.357 104.695 155.306 104.658 155.264 104.612C155.223 104.566 155.191 104.511 155.172 104.452C155.154 104.392 155.148 104.329 155.155 104.267L155.353 101.937C155.367 101.804 155.428 101.682 155.526 101.592C155.623 101.502 155.75 101.451 155.882 101.449H160.195C160.257 101.447 160.319 101.46 160.376 101.484C160.433 101.509 160.484 101.546 160.526 101.592C160.567 101.638 160.599 101.693 160.618 101.752C160.637 101.812 160.643 101.875 160.635 101.937L160.431 104.267C160.42 104.4 160.36 104.523 160.263 104.613C160.167 104.703 160.04 104.754 159.908 104.755V104.755Z" fill="white"/>
<path d="M161.905 104.12C161.843 104.121 161.781 104.109 161.723 104.084C161.666 104.059 161.615 104.023 161.572 103.977C161.53 103.931 161.498 103.876 161.479 103.817C161.459 103.757 161.452 103.694 161.458 103.632L161.554 102.566C161.567 102.433 161.628 102.31 161.726 102.22C161.823 102.129 161.951 102.079 162.084 102.078V102.078C162.146 102.077 162.207 102.089 162.264 102.113C162.321 102.138 162.372 102.175 162.414 102.221C162.456 102.267 162.487 102.322 162.506 102.381C162.525 102.441 162.531 102.504 162.524 102.566L162.434 103.632C162.42 103.764 162.359 103.887 162.261 103.976C162.164 104.066 162.037 104.117 161.905 104.12V104.12Z" fill="white"/>
</g>
<path d="M201.718 158.529C210.303 150.259 211.159 137.139 203.63 129.225C196.101 121.311 183.038 121.599 174.452 129.869C165.867 138.139 165.011 151.26 172.54 159.174C180.069 167.088 193.132 166.8 201.718 158.529Z" fill="white"/>
<path d="M188.159 143.41C182.749 143.41 178.174 145.484 177.785 149.984L177.351 154.985H196.957L197.391 149.984C197.78 145.484 193.575 143.41 188.159 143.41Z" fill="#00D9DE"/>
<path d="M188.337 141.349C190.851 141.349 192.012 139.301 192.229 136.772C192.446 134.242 191.649 132.194 189.135 132.194C186.621 132.194 185.466 134.249 185.243 136.772C185.02 139.295 185.824 141.349 188.337 141.349Z" fill="#00D9DE"/>
<path d="M207.579 172.942C206.246 172.942 205.117 173.456 205.027 174.566L204.919 175.805H209.761L209.87 174.566C209.959 173.456 208.919 172.942 207.579 172.942Z" fill="#00D9DE"/>
<path d="M207.624 172.435C208.262 172.435 208.53 171.928 208.587 171.305C208.645 170.682 208.441 170.175 207.822 170.175C207.203 170.175 206.916 170.682 206.858 171.305C206.801 171.928 207.005 172.435 207.624 172.435Z" fill="#00D9DE"/>
<path d="M192.676 201.588H173.536C173.017 201.597 172.502 201.496 172.025 201.289C171.548 201.083 171.121 200.776 170.77 200.391C170.42 200.005 170.156 199.549 169.995 199.052C169.834 198.556 169.779 198.031 169.835 197.511C169.949 196.407 170.46 195.383 171.272 194.632C172.084 193.881 173.141 193.455 174.244 193.435H193.384C193.903 193.426 194.417 193.529 194.894 193.735C195.37 193.942 195.797 194.248 196.147 194.634C196.497 195.019 196.761 195.475 196.923 195.971C197.085 196.467 197.14 196.992 197.084 197.511V197.511C196.972 198.616 196.462 199.641 195.649 200.392C194.837 201.143 193.779 201.569 192.676 201.588V201.588Z" fill="#00D9DE"/>
<path d="M190.36 247.054H169.874C169.324 247.069 168.778 246.965 168.272 246.749C167.766 246.532 167.312 246.208 166.942 245.8C166.571 245.391 166.292 244.907 166.125 244.38C165.957 243.853 165.904 243.296 165.969 242.747L167.277 227.711C167.394 226.545 167.932 225.462 168.789 224.668C169.646 223.874 170.763 223.424 171.928 223.403H192.42C192.969 223.394 193.512 223.501 194.016 223.72C194.519 223.938 194.971 224.262 195.34 224.669C195.709 225.077 195.988 225.559 196.158 226.083C196.328 226.608 196.385 227.163 196.325 227.711L195.017 242.747C194.897 243.913 194.358 244.995 193.5 245.789C192.642 246.582 191.525 247.032 190.36 247.054Z" fill="#00D9DE"/>
<g opacity="0.6">
<path d="M184.044 231.505C184.077 231.177 184.041 230.846 183.938 230.533C183.834 230.219 183.666 229.932 183.444 229.689C183.222 229.447 182.952 229.254 182.65 229.124C182.349 228.995 182.024 228.931 181.696 228.937C180.998 228.947 180.328 229.214 179.812 229.687C179.296 230.16 178.97 230.807 178.895 231.505C178.854 231.896 178.912 232.29 179.062 232.653C179.213 233.015 179.452 233.334 179.756 233.579L179.31 238.76C179.288 238.956 179.308 239.155 179.369 239.343C179.429 239.53 179.529 239.703 179.661 239.849C179.794 239.995 179.955 240.111 180.136 240.188C180.316 240.266 180.511 240.305 180.707 240.301C181.123 240.292 181.521 240.13 181.826 239.846C182.132 239.563 182.324 239.176 182.366 238.76L182.819 233.579C183.16 233.344 183.447 233.036 183.659 232.678C183.87 232.32 184.002 231.92 184.044 231.505V231.505Z" fill="white"/>
</g>
<path d="M192.599 226.536H189.958L190.596 219.095C190.707 218.063 190.599 217.018 190.279 216.031C189.958 215.043 189.433 214.136 188.737 213.368C188.041 212.601 187.191 211.991 186.244 211.579C185.296 211.168 184.272 210.964 183.24 210.981C181.046 211.024 178.944 211.873 177.329 213.367C175.715 214.862 174.699 216.899 174.474 219.095L173.836 226.536H171.194L171.832 219.095C172.13 216.181 173.477 213.477 175.619 211.493C177.762 209.51 180.552 208.384 183.463 208.329C184.833 208.306 186.192 208.576 187.451 209.121C188.709 209.667 189.838 210.476 190.761 211.494C191.685 212.512 192.383 213.717 192.809 215.027C193.235 216.338 193.379 217.725 193.231 219.095L192.599 226.536Z" fill="#00D9DE"/>
<path d="M207.905 184.337L207.988 183.612C208.005 183.444 207.986 183.274 207.934 183.114C207.881 182.953 207.795 182.806 207.682 182.681C207.569 182.556 207.431 182.456 207.277 182.389C207.123 182.322 206.956 182.288 206.788 182.289C206.431 182.297 206.088 182.435 205.825 182.679C205.562 182.922 205.396 183.254 205.359 183.612L205.295 184.325C205.152 184.329 205.016 184.385 204.911 184.483C204.807 184.581 204.742 184.714 204.728 184.858L204.562 186.784C204.553 186.851 204.56 186.919 204.58 186.984C204.601 187.048 204.635 187.108 204.68 187.158C204.726 187.208 204.781 187.247 204.844 187.274C204.906 187.3 204.973 187.312 205.04 187.31H207.669C207.811 187.308 207.948 187.253 208.052 187.155C208.157 187.058 208.223 186.926 208.237 186.784L208.402 184.858C208.408 184.789 208.399 184.721 208.376 184.657C208.353 184.592 208.317 184.534 208.27 184.485C208.223 184.435 208.166 184.397 208.103 184.371C208.04 184.346 207.973 184.335 207.905 184.337V184.337ZM206.712 182.63C206.838 182.628 206.964 182.654 207.08 182.704C207.196 182.755 207.3 182.83 207.386 182.923C207.471 183.017 207.536 183.128 207.576 183.249C207.616 183.37 207.63 183.498 207.618 183.625L207.554 184.337H205.576L205.64 183.625C205.668 183.356 205.792 183.107 205.989 182.924C206.187 182.741 206.443 182.636 206.712 182.63V182.63Z" fill="#00D9DE"/>
<path d="M168.336 185.101L167.418 184.909C167.392 184.904 167.368 184.893 167.347 184.877C167.326 184.861 167.31 184.84 167.298 184.817C167.286 184.793 167.28 184.767 167.28 184.741C167.279 184.715 167.285 184.689 167.296 184.665L167.679 183.753C167.695 183.714 167.697 183.67 167.683 183.63C167.67 183.589 167.643 183.555 167.607 183.533C167.571 183.51 167.529 183.501 167.487 183.508C167.445 183.514 167.407 183.535 167.379 183.567L166.684 184.286C166.667 184.307 166.646 184.325 166.621 184.337C166.597 184.349 166.57 184.355 166.543 184.355C166.516 184.355 166.49 184.349 166.465 184.337C166.441 184.325 166.42 184.307 166.403 184.286L165.835 183.567C165.714 183.413 165.452 183.567 165.497 183.753L165.72 184.665C165.727 184.692 165.728 184.719 165.723 184.746C165.719 184.773 165.709 184.799 165.694 184.822C165.679 184.845 165.659 184.864 165.636 184.879C165.613 184.894 165.588 184.904 165.561 184.909L164.61 185.101C164.406 185.14 164.381 185.429 164.578 185.467L165.497 185.66C165.523 185.665 165.547 185.676 165.568 185.692C165.588 185.708 165.605 185.729 165.616 185.753C165.627 185.776 165.633 185.802 165.632 185.829C165.631 185.855 165.624 185.881 165.612 185.904L165.242 186.822C165.226 186.861 165.224 186.905 165.238 186.946C165.251 186.986 165.278 187.02 165.314 187.043C165.35 187.065 165.392 187.074 165.434 187.068C165.476 187.061 165.514 187.04 165.542 187.008L166.237 186.289C166.255 186.27 166.277 186.254 166.301 186.244C166.325 186.233 166.351 186.228 166.378 186.228C166.404 186.228 166.43 186.233 166.454 186.244C166.478 186.254 166.5 186.27 166.518 186.289L167.086 187.008C167.207 187.162 167.469 187.008 167.418 186.822L167.194 185.91C167.185 185.856 167.197 185.8 167.228 185.754C167.259 185.709 167.306 185.677 167.36 185.666L168.311 185.474C168.508 185.429 168.534 185.14 168.336 185.101Z" fill="#263238"/>
<path d="M174.371 185.101L173.453 184.909C173.427 184.904 173.403 184.893 173.382 184.877C173.362 184.861 173.345 184.84 173.333 184.817C173.321 184.793 173.315 184.767 173.315 184.741C173.315 184.715 173.32 184.689 173.331 184.665L173.714 183.753C173.73 183.714 173.732 183.67 173.719 183.63C173.705 183.589 173.679 183.555 173.643 183.533C173.607 183.51 173.564 183.501 173.522 183.508C173.48 183.514 173.442 183.535 173.414 183.567L172.719 184.286C172.702 184.307 172.681 184.325 172.657 184.337C172.632 184.349 172.606 184.355 172.579 184.355C172.552 184.355 172.525 184.349 172.501 184.337C172.476 184.325 172.455 184.307 172.438 184.286L171.87 183.567C171.749 183.413 171.488 183.567 171.539 183.753L171.762 184.665C171.767 184.692 171.768 184.72 171.762 184.747C171.757 184.774 171.746 184.8 171.73 184.822C171.715 184.845 171.695 184.864 171.672 184.879C171.649 184.894 171.623 184.904 171.596 184.909L170.645 185.101C170.441 185.14 170.416 185.429 170.614 185.467L171.532 185.66C171.558 185.665 171.582 185.676 171.603 185.692C171.623 185.708 171.64 185.729 171.652 185.752C171.664 185.776 171.67 185.802 171.67 185.828C171.67 185.854 171.665 185.88 171.654 185.904L171.271 186.816C171.255 186.855 171.253 186.899 171.266 186.939C171.279 186.98 171.306 187.014 171.342 187.036C171.378 187.059 171.421 187.067 171.463 187.061C171.505 187.055 171.543 187.034 171.571 187.002L172.266 186.283C172.284 186.263 172.306 186.248 172.33 186.237C172.354 186.227 172.38 186.221 172.406 186.221C172.433 186.221 172.459 186.227 172.483 186.237C172.507 186.248 172.529 186.263 172.547 186.283L173.115 187.002C173.236 187.156 173.497 187.002 173.453 186.816L173.229 185.904C173.224 185.877 173.223 185.85 173.228 185.823C173.233 185.797 173.244 185.771 173.259 185.748C173.273 185.726 173.293 185.706 173.315 185.691C173.337 185.676 173.362 185.665 173.389 185.66L174.34 185.467C174.544 185.429 174.569 185.14 174.371 185.101Z" fill="#263238"/>
<path d="M180.407 185.101L179.495 184.909C179.468 184.905 179.443 184.894 179.422 184.879C179.401 184.863 179.383 184.842 179.371 184.818C179.359 184.795 179.353 184.768 179.354 184.741C179.354 184.715 179.361 184.688 179.373 184.665L179.756 183.753C179.781 183.712 179.788 183.663 179.777 183.617C179.765 183.571 179.736 183.531 179.696 183.506C179.655 183.481 179.606 183.474 179.56 183.485C179.514 183.497 179.475 183.526 179.45 183.567L178.761 184.286C178.744 184.308 178.722 184.325 178.697 184.337C178.672 184.349 178.645 184.355 178.617 184.355C178.59 184.355 178.563 184.349 178.538 184.337C178.513 184.325 178.491 184.308 178.474 184.286L177.906 183.567C177.785 183.413 177.523 183.567 177.574 183.753L177.798 184.665C177.803 184.691 177.803 184.719 177.798 184.746C177.793 184.772 177.783 184.798 177.768 184.82C177.754 184.843 177.734 184.863 177.712 184.878C177.69 184.893 177.665 184.903 177.638 184.909L176.687 185.101C176.483 185.14 176.458 185.429 176.656 185.467L177.568 185.66C177.593 185.665 177.618 185.676 177.638 185.692C177.659 185.708 177.676 185.729 177.687 185.752C177.699 185.776 177.705 185.802 177.706 185.828C177.706 185.854 177.7 185.88 177.689 185.904L177.306 186.816C177.282 186.856 177.274 186.905 177.286 186.952C177.297 186.998 177.326 187.038 177.367 187.063C177.408 187.087 177.456 187.095 177.502 187.083C177.548 187.072 177.588 187.043 177.613 187.002L178.302 186.283C178.32 186.263 178.341 186.248 178.365 186.237C178.39 186.227 178.416 186.221 178.442 186.221C178.468 186.221 178.494 186.227 178.519 186.237C178.543 186.248 178.564 186.263 178.582 186.283L179.157 187.002C179.278 187.156 179.539 187.002 179.488 186.816L179.265 185.904C179.255 185.85 179.267 185.795 179.296 185.75C179.326 185.704 179.372 185.672 179.424 185.66L180.375 185.467C180.554 185.429 180.605 185.14 180.407 185.101Z" fill="#263238"/>
<path d="M186.449 185.101L185.53 184.909C185.505 184.904 185.48 184.893 185.46 184.877C185.439 184.861 185.422 184.84 185.411 184.817C185.399 184.793 185.393 184.767 185.392 184.741C185.392 184.715 185.398 184.689 185.409 184.665L185.792 183.753C185.808 183.714 185.809 183.67 185.796 183.63C185.783 183.589 185.756 183.555 185.72 183.533C185.684 183.51 185.641 183.501 185.6 183.508C185.558 183.514 185.52 183.535 185.492 183.567L184.796 184.286C184.78 184.307 184.758 184.325 184.734 184.337C184.71 184.349 184.683 184.355 184.656 184.355C184.629 184.355 184.602 184.349 184.578 184.337C184.554 184.325 184.532 184.307 184.516 184.286L183.948 183.567C183.827 183.413 183.565 183.567 183.61 183.753L183.833 184.665C183.84 184.692 183.841 184.719 183.836 184.746C183.831 184.773 183.821 184.799 183.806 184.822C183.791 184.845 183.772 184.864 183.749 184.879C183.726 184.894 183.7 184.904 183.674 184.909L182.723 185.101C182.519 185.14 182.493 185.429 182.723 185.467L183.642 185.66C183.667 185.665 183.692 185.676 183.712 185.692C183.733 185.708 183.75 185.729 183.761 185.753C183.772 185.776 183.777 185.802 183.777 185.829C183.776 185.855 183.769 185.881 183.756 185.904L183.38 186.816C183.364 186.855 183.363 186.899 183.376 186.939C183.389 186.98 183.416 187.014 183.452 187.036C183.488 187.059 183.53 187.067 183.572 187.061C183.614 187.055 183.652 187.034 183.68 187.002L184.375 186.283C184.393 186.263 184.415 186.248 184.439 186.237C184.463 186.227 184.489 186.221 184.516 186.221C184.542 186.221 184.568 186.227 184.592 186.237C184.616 186.248 184.638 186.263 184.656 186.283L185.224 187.002C185.345 187.156 185.607 187.002 185.556 186.816L185.332 185.904C185.323 185.85 185.335 185.794 185.366 185.748C185.397 185.702 185.444 185.671 185.498 185.66L186.449 185.467C186.621 185.429 186.647 185.14 186.449 185.101Z" fill="#263238"/>
<path d="M192.484 185.101L191.565 184.909C191.54 184.904 191.516 184.893 191.495 184.877C191.474 184.861 191.458 184.84 191.446 184.817C191.434 184.793 191.428 184.767 191.428 184.741C191.427 184.715 191.433 184.689 191.444 184.665L191.827 183.753C191.843 183.714 191.845 183.67 191.831 183.63C191.818 183.589 191.791 183.555 191.755 183.533C191.719 183.51 191.677 183.501 191.635 183.508C191.593 183.514 191.555 183.535 191.527 183.567L190.832 184.286C190.815 184.307 190.794 184.325 190.769 184.337C190.745 184.349 190.718 184.355 190.691 184.355C190.664 184.355 190.638 184.349 190.613 184.337C190.589 184.325 190.568 184.307 190.551 184.286L189.983 183.567C189.862 183.413 189.6 183.567 189.651 183.753L189.875 184.665C189.88 184.692 189.88 184.72 189.875 184.747C189.87 184.774 189.859 184.8 189.843 184.822C189.828 184.845 189.808 184.864 189.785 184.879C189.762 184.894 189.736 184.904 189.709 184.909L188.758 185.101C188.554 185.14 188.529 185.429 188.726 185.467L189.645 185.66C189.671 185.665 189.695 185.676 189.715 185.692C189.736 185.708 189.753 185.729 189.765 185.752C189.776 185.776 189.783 185.802 189.783 185.828C189.783 185.854 189.777 185.88 189.766 185.904L189.384 186.816C189.368 186.855 189.366 186.899 189.379 186.939C189.392 186.98 189.419 187.014 189.455 187.036C189.491 187.059 189.534 187.067 189.576 187.061C189.617 187.055 189.656 187.034 189.683 187.002L190.379 186.283C190.397 186.263 190.418 186.248 190.443 186.237C190.467 186.227 190.493 186.221 190.519 186.221C190.545 186.221 190.572 186.227 190.596 186.237C190.62 186.248 190.642 186.263 190.66 186.283L191.227 187.002C191.349 187.156 191.61 187.002 191.565 186.816L191.342 185.904C191.337 185.877 191.336 185.85 191.341 185.823C191.346 185.797 191.357 185.771 191.371 185.748C191.386 185.726 191.405 185.706 191.428 185.691C191.45 185.676 191.475 185.665 191.502 185.66L192.452 185.467C192.676 185.429 192.676 185.14 192.484 185.101Z" fill="#263238"/>
<path d="M198.52 185.101L197.601 184.909C197.575 184.904 197.551 184.893 197.53 184.877C197.51 184.861 197.493 184.84 197.482 184.816C197.471 184.792 197.465 184.766 197.466 184.74C197.467 184.714 197.474 184.688 197.486 184.665L197.869 183.753C197.881 183.733 197.889 183.711 197.893 183.687C197.896 183.664 197.895 183.64 197.89 183.617C197.884 183.594 197.874 183.572 197.86 183.553C197.846 183.534 197.829 183.518 197.808 183.506C197.788 183.494 197.766 183.486 197.743 183.482C197.72 183.479 197.696 183.48 197.673 183.485C197.65 183.491 197.629 183.501 197.61 183.515C197.591 183.529 197.575 183.547 197.563 183.567L196.874 184.286C196.856 184.308 196.835 184.325 196.81 184.337C196.785 184.349 196.758 184.355 196.73 184.355C196.703 184.355 196.676 184.349 196.651 184.337C196.626 184.325 196.604 184.308 196.587 184.286L196.019 183.567C195.898 183.413 195.636 183.567 195.687 183.753L195.91 184.665C195.916 184.691 195.916 184.719 195.911 184.746C195.906 184.772 195.896 184.798 195.881 184.82C195.866 184.843 195.847 184.862 195.825 184.878C195.802 184.893 195.777 184.903 195.751 184.909L194.8 185.101C194.596 185.14 194.571 185.429 194.768 185.467L195.681 185.66C195.706 185.665 195.73 185.676 195.751 185.692C195.772 185.708 195.789 185.729 195.8 185.752C195.812 185.776 195.818 185.802 195.818 185.828C195.819 185.854 195.813 185.88 195.802 185.904L195.419 186.816C195.395 186.856 195.387 186.905 195.399 186.952C195.41 186.998 195.439 187.038 195.48 187.063C195.52 187.087 195.569 187.095 195.615 187.083C195.661 187.072 195.701 187.043 195.725 187.002L196.414 186.283C196.432 186.263 196.454 186.248 196.478 186.237C196.502 186.226 196.528 186.221 196.555 186.221C196.581 186.221 196.607 186.226 196.631 186.237C196.655 186.248 196.677 186.263 196.695 186.283L197.263 187.002C197.293 187.035 197.333 187.058 197.377 187.066C197.421 187.073 197.466 187.066 197.506 187.044C197.545 187.022 197.576 186.988 197.593 186.947C197.61 186.905 197.613 186.859 197.601 186.816L197.378 185.904C197.368 185.85 197.379 185.795 197.409 185.75C197.439 185.704 197.485 185.672 197.537 185.66L198.488 185.467C198.692 185.429 198.718 185.14 198.52 185.101Z" fill="#263238"/>
<path d="M183.967 171.806H172.636C172.289 171.812 171.955 171.946 171.699 172.182C171.443 172.419 171.281 172.741 171.245 173.09C171.227 173.253 171.244 173.419 171.295 173.576C171.345 173.733 171.429 173.877 171.539 173.998C171.65 174.12 171.785 174.216 171.936 174.281C172.087 174.346 172.249 174.377 172.413 174.374H183.744C184.092 174.368 184.425 174.234 184.681 173.997C184.938 173.761 185.099 173.438 185.135 173.09C185.152 172.926 185.134 172.761 185.083 172.604C185.032 172.448 184.949 172.304 184.838 172.183C184.728 172.062 184.593 171.965 184.443 171.9C184.293 171.835 184.131 171.803 183.967 171.806Z" fill="#263238"/>
<path d="M195.477 171.806H188.899C188.552 171.812 188.219 171.946 187.964 172.183C187.709 172.419 187.549 172.742 187.514 173.09C187.496 173.253 187.513 173.418 187.563 173.575C187.614 173.731 187.696 173.874 187.806 173.996C187.916 174.118 188.051 174.214 188.201 174.279C188.35 174.344 188.512 174.376 188.676 174.374H195.228C195.575 174.367 195.908 174.233 196.163 173.997C196.418 173.76 196.578 173.437 196.612 173.09C196.63 172.929 196.614 172.765 196.565 172.611C196.517 172.456 196.436 172.314 196.329 172.193C196.222 172.072 196.091 171.975 195.944 171.908C195.797 171.841 195.638 171.806 195.477 171.806V171.806Z" fill="#263238"/>
<path d="M204.16 230.003C200.155 231.538 196.54 233.95 193.576 237.065C191.776 235.659 189.63 234.771 187.368 234.497L187.068 234.452L186.94 235.967L187.106 236.031C189.587 236.951 191.686 238.689 193.059 240.962L193.276 241.321L193.512 240.936C196.154 236.692 199.883 233.241 204.307 230.947L204.454 230.87L204.536 229.868L204.16 230.003Z" fill="#263238"/>
<path opacity="0.2" d="M147.148 103.6C146.335 105.028 145.835 106.615 145.681 108.254L136.181 217.535H165.58L171.488 194.751L169.542 171.96L175.45 149.175L173.536 126.391L179.444 103.6H147.148Z" fill="black"/>
<path d="M170.952 119.971L176.86 97.1796H102.514L96.6124 119.971L98.552 142.755L92.6505 165.54L94.59 188.331L88.6885 211.115H163.028L168.936 188.331L166.99 165.54L172.898 142.755L170.952 119.971Z" fill="#00D9DE"/>
<path opacity="0.7" d="M170.952 119.971L176.86 97.1796H102.514L96.6124 119.971L98.552 142.755L92.6505 165.54L94.59 188.331L88.6885 211.115H163.028L168.936 188.331L166.99 165.54L172.898 142.755L170.952 119.971Z" fill="white"/>
<path opacity="0.5" d="M170.952 119.971H96.6123L102.514 97.1796H176.86L170.952 119.971Z" fill="white"/>
<path opacity="0.5" d="M166.99 165.54H92.6504L98.5519 142.755H172.898L166.99 165.54Z" fill="white"/>
<path opacity="0.5" d="M163.028 211.115H88.6821L94.59 188.331H168.936L163.028 211.115Z" fill="white"/>
<path opacity="0.2" d="M161.006 129.491C160.243 129.713 159.452 129.821 158.658 129.812C157.581 129.86 156.509 129.64 155.538 129.17C155.362 129.066 155.162 129.01 154.957 129.01V129.01C154.77 129.013 154.586 129.061 154.422 129.151H154.383C154.098 129.312 153.794 129.435 153.477 129.517C152.763 129.707 152.027 129.8 151.289 129.793C151.066 129.793 150.849 129.793 150.651 129.793C150.078 129.756 149.511 129.655 148.96 129.491C148.879 129.467 148.796 129.452 148.711 129.446C148.571 129.435 148.43 129.453 148.297 129.499C148.164 129.545 148.041 129.618 147.938 129.714C147.834 129.81 147.751 129.926 147.694 130.056C147.638 130.186 147.608 130.326 147.608 130.467V130.467V131.161H118.668C118.136 131.161 117.61 131.266 117.119 131.471C116.627 131.676 116.181 131.976 115.806 132.355C115.43 132.734 115.132 133.183 114.929 133.678C114.726 134.172 114.622 134.702 114.623 135.237V139.34C114.621 139.875 114.725 140.406 114.927 140.901C115.13 141.397 115.428 141.847 115.803 142.226C116.179 142.605 116.626 142.906 117.117 143.112C117.609 143.317 118.136 143.423 118.668 143.423H151.544H151.761C152.112 143.718 152.482 144.013 152.878 144.315C153.273 144.617 153.835 145.034 154.351 145.407C154.528 145.535 154.74 145.604 154.957 145.604C155.175 145.604 155.387 145.535 155.564 145.407C159.698 142.389 162.352 140.309 162.352 134.595V130.486C162.354 130.322 162.317 130.16 162.244 130.013C162.171 129.866 162.064 129.738 161.933 129.641C161.801 129.544 161.648 129.479 161.487 129.453C161.326 129.427 161.161 129.44 161.006 129.491V129.491Z" fill="black"/>
<path d="M150.913 128.907H118.043C115.806 128.907 113.992 130.732 113.992 132.984V137.086C113.992 139.338 115.806 141.163 118.043 141.163H150.913C153.15 141.163 154.964 139.338 154.964 137.086V132.984C154.964 130.732 153.15 128.907 150.913 128.907Z" fill="#00D9DE"/>
<path d="M158.026 127.553C156.95 127.599 155.879 127.378 154.907 126.911C154.734 126.804 154.535 126.747 154.332 126.747C154.13 126.747 153.931 126.804 153.758 126.911C152.784 127.379 151.711 127.6 150.632 127.553C149.838 127.561 149.047 127.453 148.284 127.232C148.13 127.18 147.967 127.165 147.806 127.189C147.646 127.214 147.494 127.276 147.362 127.372C147.231 127.467 147.123 127.593 147.05 127.738C146.976 127.883 146.938 128.044 146.938 128.207V132.316C146.938 138.036 149.592 140.116 153.726 143.134C153.903 143.262 154.115 143.331 154.332 143.331C154.55 143.331 154.762 143.262 154.939 143.134C159.073 140.116 161.727 138.036 161.727 132.316V128.207C161.726 128.044 161.687 127.883 161.612 127.738C161.538 127.593 161.43 127.467 161.298 127.372C161.166 127.277 161.014 127.214 160.853 127.19C160.692 127.166 160.528 127.18 160.374 127.232C159.611 127.453 158.82 127.562 158.026 127.553V127.553Z" fill="#00D9DE"/>
<path opacity="0.3" d="M158.026 127.553C156.95 127.599 155.879 127.378 154.907 126.911C154.734 126.804 154.535 126.747 154.332 126.747C154.13 126.747 153.931 126.804 153.758 126.911C152.784 127.379 151.711 127.6 150.632 127.553C149.838 127.561 149.047 127.453 148.284 127.232C148.13 127.18 147.967 127.165 147.806 127.189C147.646 127.214 147.494 127.276 147.362 127.372C147.231 127.467 147.123 127.593 147.05 127.738C146.976 127.883 146.938 128.044 146.938 128.207V132.316C146.938 138.036 149.592 140.116 153.726 143.134C153.903 143.262 154.115 143.331 154.332 143.331C154.55 143.331 154.762 143.262 154.939 143.134C159.073 140.116 161.727 138.036 161.727 132.316V128.207C161.726 128.044 161.687 127.883 161.612 127.738C161.538 127.593 161.43 127.467 161.298 127.372C161.166 127.277 161.014 127.214 160.853 127.19C160.692 127.166 160.528 127.18 160.374 127.232C159.611 127.453 158.82 127.562 158.026 127.553V127.553Z" fill="white"/>
<path opacity="0.2" d="M153.758 126.898C152.784 127.366 151.711 127.587 150.632 127.54C149.838 127.548 149.047 127.44 148.284 127.219C148.13 127.167 147.967 127.152 147.806 127.177C147.646 127.201 147.494 127.264 147.362 127.359C147.231 127.454 147.123 127.58 147.05 127.725C146.976 127.87 146.938 128.031 146.938 128.195V132.303C146.938 138.024 149.592 140.104 153.726 143.121C153.911 143.256 154.136 143.326 154.364 143.32V126.731C154.151 126.727 153.94 126.785 153.758 126.898V126.898Z" fill="white"/>
<path d="M160.259 131.199C157.772 132.18 155.557 133.75 153.803 135.777C152.579 134.869 151.145 134.292 149.637 134.101H149.439V135.083L149.547 135.122C151.225 135.731 152.671 136.853 153.682 138.332L153.841 138.563L153.975 138.312C155.442 135.57 157.676 133.32 160.4 131.841L160.496 131.796V131.154L160.259 131.199Z" fill="#263238"/>
<path d="M175.546 103.593H172.726C172.363 103.6 172.003 103.529 171.67 103.384C171.336 103.24 171.038 103.026 170.793 102.756C170.548 102.486 170.364 102.167 170.252 101.82C170.139 101.473 170.102 101.106 170.142 100.743L170.391 97.905C170.467 97.1333 170.823 96.4167 171.39 95.8912C171.956 95.3657 172.695 95.068 173.466 95.0545H176.286C176.649 95.0468 177.01 95.1173 177.344 95.2612C177.678 95.4051 177.978 95.6192 178.223 95.889C178.468 96.1589 178.653 96.4783 178.766 96.826C178.879 97.1737 178.916 97.5416 178.876 97.905L178.627 100.743C178.542 101.512 178.182 102.224 177.616 102.748C177.05 103.271 176.315 103.572 175.546 103.593V103.593Z" fill="#00D9DE"/>
<path d="M176.72 97.8985L176.107 97.218L174.563 98.6433L173.274 97.218L172.541 97.8985L173.836 99.3238L172.298 100.749L172.911 101.423L174.448 99.9979L175.744 101.423L176.471 100.749L175.176 99.3238L176.72 97.8985Z" fill="white"/>
<path d="M112.524 128.073C114.157 129.864 115.714 131.719 117.264 133.587C118.814 135.456 120.314 137.362 121.807 139.275C121.87 139.359 121.845 139.327 121.858 139.352C121.87 139.378 121.858 139.385 121.858 139.391C121.869 139.415 121.884 139.436 121.902 139.455C121.957 139.533 122.026 139.599 122.106 139.65C122.186 139.7 122.275 139.735 122.368 139.75C122.44 139.76 122.513 139.76 122.585 139.75C122.623 139.754 122.662 139.754 122.7 139.75H122.757C122.789 139.75 122.757 139.75 122.859 139.712L124.454 138.839C126.598 137.696 128.761 136.579 130.994 135.577L132.863 137.908C131.064 139.571 129.188 141.657 127.293 143.185L125.864 144.315C125.776 144.388 125.682 144.455 125.584 144.514C125.475 144.592 125.362 144.662 125.245 144.726C125.015 144.86 124.776 144.98 124.531 145.086C124.037 145.295 123.518 145.439 122.987 145.516C121.914 145.674 120.818 145.564 119.797 145.195C119.278 145.009 118.784 144.757 118.33 144.444C118.1 144.289 117.883 144.11 117.692 143.936C117.583 143.846 117.494 143.744 117.392 143.647L117.136 143.391C115.446 141.644 113.781 139.885 112.147 138.094C110.514 136.303 108.9 134.499 107.356 132.624L112.524 128.073Z" fill="#B55B52"/>
<path d="M130.152 136.99L131.638 132.181L135.556 134.146C135.556 134.146 134.982 137.651 132.136 138.261L130.152 136.99Z" fill="#B55B52"/>
<path d="M133.201 130.852L136.736 131.828L135.549 134.146L131.632 132.181L133.201 130.852Z" fill="#B55B52"/>
<path d="M91.929 129.382C91.508 131.424 90.9848 133.446 90.4425 135.462C89.9002 137.478 89.3069 139.474 88.688 141.471L88.4583 142.222L88.3435 142.595C88.3281 142.648 88.3067 142.7 88.2797 142.749C88.2069 142.955 88.166 143.172 88.1585 143.391C88.145 143.857 88.2742 144.317 88.5285 144.707C88.654 144.878 88.7927 145.039 88.9432 145.188L89.4727 145.772L90.5191 146.947C91.2017 147.743 91.8908 148.54 92.5415 149.374L90.3149 151.942C89.3962 151.416 88.5157 150.844 87.6353 150.279L86.3274 149.406L85.6894 148.963C85.4725 148.809 85.2938 148.706 84.9429 148.418C83.6946 147.347 82.8333 145.891 82.493 144.277C82.3218 143.454 82.2809 142.609 82.3718 141.773C82.3718 141.567 82.4356 141.336 82.4675 141.131L82.5377 140.746L82.6717 139.975C83.0289 137.914 83.4117 135.86 83.8392 133.818C84.2667 131.777 84.726 129.742 85.2683 127.732L91.929 129.382Z" fill="#B55B52"/>
<path d="M90.3599 149.169L92.9884 147.814L94.1496 152.308C94.1496 152.308 92.0378 153.123 90.4045 152.077L90.3599 149.169Z" fill="#B55B52"/>
<path d="M96.6249 146.37L96.7462 150.504L93.805 152.437L92.7842 147.898L96.6249 146.37Z" fill="#B55B52"/>
<path d="M105.231 108.158C105.295 108.472 105.519 108.697 105.723 108.658C105.927 108.62 106.048 108.325 105.984 108.016C105.92 107.708 105.697 107.477 105.493 107.516C105.289 107.554 105.168 107.856 105.231 108.158Z" fill="#263238"/>
<path d="M105.487 108.703C106.061 109.599 106.755 110.411 107.548 111.117C107.363 111.317 107.137 111.475 106.886 111.578C106.635 111.681 106.364 111.727 106.093 111.714L105.487 108.703Z" fill="#A02724"/>
<path d="M103.719 106.63C103.683 106.629 103.647 106.618 103.616 106.598C103.585 106.577 103.561 106.549 103.546 106.515C103.532 106.481 103.527 106.443 103.533 106.407C103.538 106.37 103.555 106.336 103.579 106.309C103.779 106.081 104.029 105.905 104.31 105.793C104.59 105.681 104.893 105.638 105.193 105.667C105.218 105.671 105.241 105.681 105.263 105.695C105.284 105.708 105.302 105.726 105.316 105.747C105.33 105.768 105.34 105.792 105.345 105.816C105.351 105.841 105.351 105.867 105.346 105.891C105.342 105.916 105.334 105.94 105.321 105.961C105.308 105.982 105.29 106 105.27 106.015C105.25 106.029 105.227 106.039 105.203 106.044C105.179 106.05 105.154 106.05 105.129 106.046C104.891 106.023 104.651 106.057 104.429 106.147C104.207 106.236 104.01 106.377 103.853 106.559C103.819 106.599 103.771 106.624 103.719 106.63V106.63Z" fill="#263238"/>
<path d="M96.0315 112.632C96.7333 115.579 97.4415 120.978 94.9277 122.937C94.9277 122.937 95.9103 125.928 102.584 125.928C109.921 125.928 106.093 124.002 106.093 124.002C102.086 123.219 102.188 119.72 102.903 117.428L96.0315 112.632Z" fill="#B55B52"/>
<path d="M94.1428 123.482C93.709 122.667 93.2241 121.73 94.2194 121.434C95.3168 121.113 102.354 120.516 104.427 121.12C103.789 122.256 104.868 123.688 104.868 123.688L94.1428 123.482Z" fill="#263238"/>
<path d="M99.9746 261.243H104.575L105.034 251.921H100.428L99.9746 261.243Z" fill="#B55B52"/>
<path d="M70.7603 259.959L75.424 260.209L78.2568 251.022L73.593 250.772L70.7603 259.959Z" fill="#B55B52"/>
<path d="M75.2838 259.837L70.888 258.88C70.811 258.862 70.7303 258.872 70.6595 258.907C70.5886 258.942 70.5319 259.001 70.4988 259.073L68.974 262.405C68.9364 262.486 68.9178 262.574 68.9195 262.663C68.9213 262.753 68.9433 262.84 68.984 262.92C69.0247 262.999 69.0828 263.068 69.1541 263.121C69.2254 263.174 69.3078 263.21 69.395 263.226C70.9326 263.535 71.6982 263.605 73.6314 264.029C74.818 264.286 77.504 264.947 79.1437 265.313C80.7833 265.679 81.3512 264.087 80.7132 263.791C77.8422 262.475 76.6427 261.313 75.8644 260.228C75.7247 260.031 75.5182 259.892 75.2838 259.837V259.837Z" fill="#263238"/>
<path d="M104.332 260.774H99.9618C99.8828 260.775 99.8064 260.803 99.7451 260.853C99.6837 260.903 99.6409 260.972 99.6237 261.05L98.8326 264.626C98.8122 264.712 98.8117 264.803 98.8311 264.889C98.8506 264.976 98.8895 265.057 98.9449 265.127C99.0003 265.196 99.0707 265.252 99.1507 265.29C99.2308 265.327 99.3184 265.346 99.4068 265.345C100.983 265.345 103.235 265.223 105.244 265.223C107.56 265.223 109.557 265.351 112.262 265.351C113.902 265.351 114.362 263.682 113.672 263.528C110.54 262.841 107.988 262.764 105.283 261.088C105 260.899 104.671 260.79 104.332 260.774V260.774Z" fill="#263238"/>
<path d="M86.5893 124.298C83.1186 125.96 82.1743 136.04 82.1743 136.04L90.7682 140.033C92.2208 137.568 93.0122 134.765 93.065 131.899C93.2372 126.692 90.1429 122.622 86.5893 124.298Z" fill="#263238"/>
<path opacity="0.4" d="M91.2336 130.512C89.6833 132.939 89.83 136.688 90.3659 139.853L90.7488 140.033C92.2 137.567 92.9914 134.764 93.0455 131.899C93.0455 131.591 93.0455 131.257 93.0455 130.981L91.2336 130.512Z" fill="black"/>
<path d="M110.572 124.054C110.572 124.054 114.834 128.894 110.808 158.85H89.4156C89.2689 155.544 91.3296 139.423 88.1396 123.848C90.5039 123.391 92.895 123.086 95.298 122.937C98.3282 122.763 101.366 122.763 104.396 122.937C106.48 123.149 108.545 123.522 110.572 124.054V124.054Z" fill="#00D9DE"/>
<path opacity="0.6" d="M110.572 124.054C110.572 124.054 114.834 128.894 110.808 158.85H89.4156C89.2689 155.544 91.3296 139.423 88.1396 123.848C90.5039 123.391 92.895 123.086 95.298 122.937C98.3282 122.763 101.366 122.763 104.396 122.937C106.48 123.149 108.545 123.522 110.572 124.054V124.054Z" fill="#FAFAFA"/>
<path opacity="0.2" d="M112.441 133.209L112.364 133.138L108.109 130.852C107.675 137.446 110.603 141.58 112.345 143.384C112.563 139.997 112.595 136.6 112.441 133.209V133.209Z" fill="black"/>
<path opacity="0.2" d="M105.034 251.921L104.798 256.729H100.191L100.427 251.921H105.034Z" fill="black"/>
<path opacity="0.2" d="M73.5929 250.778L78.2566 251.022L76.7956 255.76L72.1318 255.51L73.5929 250.778Z" fill="black"/>
<path d="M94.5514 109.641C95.5786 113.493 95.9869 115.81 98.3794 117.415C101.939 119.829 106.367 117.056 106.508 112.966C106.629 109.288 104.932 103.593 100.817 102.816C99.9081 102.635 98.9686 102.692 98.088 102.981C97.2074 103.269 96.415 103.78 95.7865 104.465C95.1581 105.149 94.7146 105.984 94.4983 106.891C94.2821 107.797 94.3004 108.744 94.5514 109.641V109.641Z" fill="#B55B52"/>
<path d="M103.222 158.85C103.222 158.85 98.6795 189.608 96.204 201.139C93.4606 213.786 78.8249 255.516 78.8249 255.516L71.6602 253.956C71.6602 253.956 80.841 219.93 83.1442 202.288C84.0374 195.399 85.1156 184.312 86.4809 175.048C87.8016 166.06 89.4285 158.857 89.4285 158.857L103.222 158.85Z" fill="#263238"/>
<path d="M80.5408 253.108L79.201 255.715L71.1494 253.956L71.8257 251.523L80.5408 253.108Z" fill="#00D9DE"/>
<path opacity="0.6" d="M80.5408 253.108L79.201 255.715L71.1494 253.956L71.8257 251.523L80.5408 253.108Z" fill="white"/>
<path opacity="0.6" d="M100.351 169.809C95.1 170.843 95.6551 190.546 96.2867 200.676C97.8052 193.512 100.019 179.734 101.531 169.95C101.165 169.769 100.749 169.719 100.351 169.809V169.809Z" fill="black"/>
<path d="M110.808 158.85C110.808 158.85 112.945 188.947 112.511 201.222C112.058 213.991 106.042 255.792 106.042 255.792H99.2662C99.2662 255.792 99.0174 214.704 98.7175 202.191C98.3858 188.517 96.7461 158.844 96.7461 158.844L110.808 158.85Z" fill="#263238"/>
<path d="M107.343 253.083C107.375 253.083 106.96 255.914 106.96 255.914H98.7174L98.4941 253.385L107.343 253.083Z" fill="#00D9DE"/>
<path opacity="0.6" d="M107.343 253.083C107.375 253.083 106.96 255.914 106.96 255.914H98.7174L98.4941 253.385L107.343 253.083Z" fill="white"/>
<path d="M108.077 129.684C108.077 137.76 112.345 141.086 112.345 141.086L119.306 134.268C117.658 131.497 115.782 128.871 113.698 126.416C109.672 121.775 108.077 124.497 108.077 129.684Z" fill="#263238"/>
<path opacity="0.2" d="M106.24 114.43C106.098 114.835 105.859 115.198 105.546 115.489C105.232 115.78 104.853 115.99 104.44 116.099C103.987 116.192 103.575 116.43 103.266 116.777C102.957 117.124 102.767 117.561 102.724 118.025V118.025C103.55 117.747 104.299 117.277 104.91 116.652C105.521 116.027 105.977 115.266 106.24 114.43V114.43Z" fill="black"/>
<path d="M104.44 101.969C105.87 100.152 103.668 100.043 103.668 100.043C104.243 97.8793 101.665 99.0413 101.665 99.0413C100.121 96.897 99.2471 99.51 99.2471 99.51C97.6457 97.6931 97.3331 100.659 97.3331 100.659C95.7253 98.3544 94.9087 101.68 94.9087 101.68C93.4285 99.2853 92.5226 102.399 92.5226 102.399C89.4666 101.301 90.9148 104.498 90.9148 104.498C88.3118 104.569 90.4044 106.604 90.4044 106.604C87.2782 106.604 90.0344 108.408 90.0344 108.408C87.5526 110.045 90.6724 110.488 90.6724 110.488C88.6499 113.698 92.127 112.491 92.127 112.491C90.717 115.65 93.8369 114.257 93.8369 114.257C93.6391 117.3 95.3808 116.472 96.223 115.907C96.3825 116.549 96.6887 117.191 97.2501 117.242C98.3411 117.39 98.5261 115.316 98.5261 115.316C98.5261 115.316 99.5342 116.112 100.383 115.682C101.231 115.252 100.912 114.167 100.912 114.167C101.096 114.305 101.32 114.38 101.55 114.38C101.78 114.38 102.004 114.305 102.188 114.167C102.552 113.884 102.552 111.843 102.093 111.124L103.751 110.482C103.751 110.482 104.983 110.308 104.434 108.671C104.103 107.73 104.074 106.709 104.351 105.75C106.227 104.864 104.683 103.824 104.683 103.824C106.858 102.418 104.44 101.969 104.44 101.969Z" fill="#263238"/>
<path d="M101.078 109.782C101.338 110.74 101.905 111.584 102.692 112.183C103.732 112.966 104.51 112.183 104.434 111.008C104.37 109.942 103.745 108.254 102.596 107.933C101.448 107.612 100.804 108.646 101.078 109.782Z" fill="#B55B52"/>
</svg>
