<svg width="382" height="321" viewBox="0 0 382 321" fill="none" xmlns="http://www.w3.org/2000/svg">
<path d="M61.105 92.6058C100.875 51.57 128.605 131.606 192.105 55.6059C255.605 -20.3941 290.844 17.1917 338.605 36.6059C414.495 67.4541 368.853 189.55 352.605 238.606C331.344 302.796 263.105 244.606 202.105 278.606C88.2086 342.089 -30.5324 271 7.10485 220.606C44.7421 170.212 25.482 129.363 61.105 92.6058Z" fill="#0A9396"/>
<path d="M300.036 255.831H278.906V255.991H300.036V255.831Z" fill="#EBEBEB"/>
<path d="M224.318 257.577H218.774V257.737H224.318V257.577Z" fill="#EBEBEB"/>
<path d="M278.268 249.873H266.024V250.033H278.268V249.873Z" fill="#EBEBEB"/>
<path d="M74.0245 250.951H46.4692V251.112H74.0245V250.951Z" fill="#EBEBEB"/>
<path d="M83.748 250.951H79.7095V251.112H83.748V250.951Z" fill="#EBEBEB"/>
<path d="M156.646 253.661H96.8779V253.821H156.646V253.661Z" fill="#EBEBEB"/>
<path d="M165.099 216.868H41.9013C40.9351 216.868 40.0085 216.481 39.3253 215.794C38.6421 215.106 38.2583 214.174 38.2583 213.202V38.9438C38.2667 37.9771 38.6542 37.0529 39.3365 36.3724C40.0188 35.6918 40.9406 35.31 41.9013 35.3101H165.099C165.577 35.3101 166.051 35.4049 166.493 35.5891C166.935 35.7733 167.337 36.0433 167.675 36.3838C168.013 36.7242 168.282 37.1283 168.465 37.573C168.648 38.0178 168.742 38.4945 168.742 38.9759V213.202C168.742 213.683 168.648 214.16 168.465 214.605C168.282 215.049 168.013 215.454 167.675 215.794C167.337 216.134 166.935 216.404 166.493 216.589C166.051 216.773 165.577 216.868 165.099 216.868V216.868ZM41.9013 35.4385C40.9779 35.4402 40.0929 35.81 39.44 36.467C38.787 37.124 38.4195 38.0146 38.4178 38.9438V213.202C38.4195 214.131 38.787 215.022 39.44 215.679C40.0929 216.336 40.9779 216.705 41.9013 216.707H165.099C166.022 216.705 166.907 216.336 167.56 215.679C168.213 215.022 168.581 214.131 168.583 213.202V38.9438C168.581 38.0146 168.213 37.124 167.56 36.467C166.907 35.81 166.022 35.4402 165.099 35.4385H41.9013Z" fill="#EBEBEB"/>
<path d="M303.099 216.868H179.901C178.935 216.868 178.008 216.481 177.325 215.794C176.642 215.106 176.258 214.174 176.258 213.202V38.9438C176.266 37.9771 176.654 37.0529 177.336 36.3724C178.018 35.6918 178.94 35.31 179.901 35.3101H303.099C304.065 35.3101 304.991 35.6963 305.675 36.3838C306.358 37.0712 306.742 38.0036 306.742 38.9759V213.202C306.742 214.174 306.358 215.106 305.675 215.794C304.991 216.481 304.065 216.868 303.099 216.868V216.868ZM179.901 35.4385C178.977 35.4402 178.092 35.81 177.439 36.467C176.787 37.124 176.419 38.0146 176.417 38.9438V213.202C176.419 214.131 176.787 215.022 177.439 215.679C178.092 216.336 178.977 216.705 179.901 216.707H303.099C304.022 216.705 304.907 216.336 305.56 215.679C306.213 215.022 306.58 214.131 306.582 213.202V38.9438C306.58 38.0146 306.213 37.124 305.56 36.467C304.907 35.81 304.022 35.4402 303.099 35.4385H179.901Z" fill="#EBEBEB"/>
<path d="M332 245.501H13V245.661H332V245.501Z" fill="#EBEBEB"/>
<path d="M89.1327 202.07C88.5968 195.868 82.3061 193.55 74.8479 194.205C67.3896 194.86 61.603 198.243 62.1261 204.445L89.1327 202.07Z" fill="#9DD6FF"/>
<path d="M74.6055 191.374C78.0634 191.066 79.1672 188.125 78.8673 184.646C78.5675 181.166 76.9533 178.463 73.5081 178.765C70.0629 179.067 68.9464 182.013 69.2463 185.493C69.5461 188.973 71.1475 191.676 74.6055 191.374Z" fill="#9DD6FF"/>
<path d="M229.984 69.9781C230.044 70.6664 229.9 71.3572 229.571 71.9633C229.241 72.5694 228.74 73.0634 228.131 73.3828C227.522 73.7023 226.833 73.8328 226.15 73.7578C225.467 73.6829 224.822 73.4059 224.296 72.9619C223.77 72.5178 223.387 71.9267 223.194 71.2634C223.002 70.6 223.01 69.8942 223.216 69.2352C223.423 68.5762 223.819 67.9938 224.355 67.5615C224.891 67.1291 225.542 66.8664 226.226 66.8066C227.142 66.7264 228.052 67.0154 228.757 67.61C229.461 68.2047 229.903 69.0563 229.984 69.9781Z" fill="#E5FCF6"/>
<path d="M249.169 68.2704C249.228 68.9572 249.083 69.6464 248.753 70.2506C248.423 70.8549 247.923 71.3471 247.315 71.6651C246.707 71.983 246.019 72.1124 245.338 72.0369C244.657 71.9615 244.013 71.6845 243.489 71.241C242.964 70.7975 242.582 70.2074 242.391 69.5454C242.199 68.8833 242.207 68.1791 242.414 67.5217C242.62 66.8642 243.016 66.2832 243.55 65.8519C244.085 65.4207 244.735 65.1586 245.417 65.0989C246.332 65.0205 247.241 65.3103 247.944 65.9048C248.647 66.4992 249.088 67.3499 249.169 68.2704V68.2704Z" fill="#E5FCF6"/>
<path d="M268.36 66.5818C268.42 67.2701 268.276 67.961 267.947 68.5671C267.617 69.1731 267.116 69.6671 266.507 69.9866C265.898 70.306 265.209 70.4365 264.526 70.3616C263.843 70.2867 263.198 70.0096 262.672 69.5656C262.146 69.1216 261.763 68.5305 261.57 67.8671C261.378 67.2038 261.386 66.4979 261.592 65.839C261.799 65.18 262.195 64.5975 262.731 64.1652C263.267 63.7329 263.918 63.4702 264.602 63.4104C265.518 63.3302 266.428 63.6192 267.133 64.2138C267.837 64.8084 268.279 65.6601 268.36 66.5818V66.5818Z" fill="#E5FCF6"/>
<path d="M231.694 89.636C231.754 90.3243 231.61 91.0152 231.281 91.6213C230.951 92.2274 230.45 92.7214 229.841 93.0408C229.232 93.3602 228.543 93.4907 227.86 93.4158C227.177 93.3409 226.532 93.0639 226.006 92.6198C225.48 92.1758 225.096 91.5847 224.904 90.9213C224.712 90.258 224.72 89.5521 224.926 88.8932C225.133 88.2342 225.529 87.6517 226.065 87.2194C226.601 86.7871 227.252 86.5244 227.936 86.4645C228.852 86.3844 229.762 86.6734 230.467 87.268C231.171 87.8626 231.612 88.7143 231.694 89.636Z" fill="#E5FCF6"/>
<path d="M250.878 87.9541C250.937 88.641 250.793 89.3301 250.463 89.9344C250.133 90.5386 249.632 91.0308 249.024 91.3488C248.416 91.6668 247.728 91.7962 247.047 91.7207C246.366 91.6452 245.723 91.3682 245.198 90.9247C244.674 90.4812 244.292 89.8911 244.1 89.2291C243.909 88.5671 243.917 87.8628 244.123 87.2054C244.33 86.548 244.725 85.9669 245.26 85.5357C245.794 85.1044 246.444 84.8424 247.127 84.7826C247.58 84.743 248.037 84.7936 248.47 84.9315C248.904 85.0694 249.307 85.292 249.655 85.5865C250.004 85.881 250.291 86.2417 250.501 86.6479C250.711 87.0541 250.839 87.498 250.878 87.9541Z" fill="#E5FCF6"/>
<path d="M270.07 86.2592C270.13 86.9475 269.986 87.6384 269.657 88.2444C269.327 88.8505 268.826 89.3445 268.217 89.6639C267.608 89.9834 266.919 90.1139 266.236 90.039C265.553 89.964 264.908 89.687 264.382 89.243C263.856 88.799 263.472 88.2079 263.28 87.5445C263.088 86.8811 263.096 86.1753 263.302 85.5163C263.509 84.8574 263.905 84.2749 264.441 83.8426C264.977 83.4103 265.628 83.1476 266.312 83.0877C267.228 83.0076 268.138 83.2965 268.843 83.8912C269.547 84.4858 269.988 85.3375 270.07 86.2592V86.2592Z" fill="#E5FCF6"/>
<path d="M233.404 109.32C233.463 110.007 233.318 110.696 232.988 111.3C232.658 111.904 232.158 112.396 231.55 112.714C230.942 113.032 230.254 113.162 229.573 113.086C228.892 113.011 228.248 112.734 227.724 112.29C227.199 111.847 226.817 111.257 226.626 110.595C226.434 109.933 226.442 109.228 226.649 108.571C226.855 107.914 227.251 107.333 227.785 106.901C228.32 106.47 228.969 106.208 229.652 106.148C230.105 106.108 230.562 106.158 230.997 106.295C231.431 106.433 231.834 106.655 232.182 106.95C232.531 107.245 232.818 107.606 233.028 108.012C233.237 108.419 233.365 108.863 233.404 109.32V109.32Z" fill="#E5FCF6"/>
<path d="M252.594 107.625C252.655 108.313 252.511 109.004 252.181 109.61C251.852 110.216 251.351 110.71 250.742 111.03C250.133 111.349 249.443 111.48 248.761 111.405C248.078 111.33 247.433 111.053 246.907 110.609C246.381 110.165 245.997 109.574 245.805 108.91C245.613 108.247 245.621 107.541 245.827 106.882C246.034 106.223 246.43 105.641 246.966 105.208C247.501 104.776 248.153 104.513 248.837 104.453C249.753 104.373 250.663 104.662 251.368 105.257C252.072 105.852 252.513 106.703 252.594 107.625Z" fill="#E5FCF6"/>
<path d="M271.779 105.93C271.84 106.618 271.696 107.309 271.366 107.915C271.036 108.521 270.535 109.015 269.926 109.335C269.317 109.654 268.628 109.785 267.945 109.71C267.263 109.635 266.618 109.358 266.091 108.914C265.565 108.47 265.182 107.879 264.99 107.215C264.798 106.552 264.805 105.846 265.012 105.187C265.218 104.528 265.615 103.946 266.15 103.513C266.686 103.081 267.337 102.818 268.021 102.759C268.937 102.678 269.848 102.967 270.552 103.562C271.257 104.157 271.698 105.008 271.779 105.93V105.93Z" fill="#E5FCF6"/>
<path d="M267.632 107.073L228.216 110.54L263.166 67.8081L227.368 70.9603C227.268 70.97 227.167 70.9595 227.071 70.9293C226.976 70.8992 226.887 70.8501 226.81 70.7849C226.733 70.7197 226.67 70.6397 226.625 70.5497C226.579 70.4596 226.552 70.3613 226.545 70.2606V70.2606C226.527 70.0588 226.59 69.8582 226.719 69.7029C226.848 69.5476 227.033 69.4503 227.234 69.4324L266.656 65.9656L231.7 108.697L267.511 105.545C267.713 105.529 267.913 105.593 268.068 105.724C268.223 105.855 268.321 106.042 268.34 106.245C268.348 106.346 268.336 106.448 268.305 106.544C268.273 106.641 268.223 106.73 268.157 106.807C268.092 106.884 268.011 106.947 267.921 106.993C267.831 107.038 267.733 107.066 267.632 107.073V107.073Z" fill="#003D3F"/>
<path d="M268.238 183.362C268.178 183.175 268.064 183.01 267.911 182.888C267.757 182.766 267.572 182.691 267.377 182.675C265.663 182.595 264.041 181.874 262.828 180.652C261.252 179.054 260.327 176.633 260.174 173.757C260.16 173.498 260.047 173.254 259.86 173.075C259.672 172.896 259.424 172.796 259.166 172.794V172.794C259.027 172.795 258.889 172.824 258.76 172.88C258.632 172.936 258.517 173.017 258.421 173.119C258.325 173.221 258.25 173.342 258.202 173.473C258.153 173.605 258.132 173.745 258.139 173.886C258.318 177.263 259.453 180.152 261.386 182.097C262.9 183.623 264.909 184.55 267.045 184.71H267.192C267.36 184.723 267.528 184.694 267.682 184.625C267.836 184.557 267.971 184.451 268.074 184.318C268.178 184.184 268.247 184.027 268.276 183.86C268.304 183.694 268.292 183.522 268.238 183.362V183.362Z" fill="#9DD6FF"/>
<path d="M266.197 195.682C257.743 194.937 251.644 189.14 249.717 180.088C249.687 179.952 249.684 179.811 249.708 179.674C249.733 179.537 249.785 179.406 249.862 179.29C249.938 179.173 250.037 179.074 250.152 178.997C250.268 178.92 250.398 178.867 250.534 178.842V178.842C250.792 178.796 251.058 178.851 251.277 178.997C251.495 179.143 251.65 179.368 251.708 179.625C253.437 187.759 258.86 192.972 266.382 193.634C274.625 194.359 283.474 188.902 285.063 175.151C285.09 174.882 285.221 174.636 285.428 174.464C285.634 174.292 285.899 174.209 286.166 174.232V174.232C286.301 174.244 286.433 174.282 286.553 174.345C286.673 174.409 286.78 174.495 286.866 174.601C286.952 174.706 287.017 174.828 287.055 174.959C287.094 175.089 287.106 175.227 287.091 175.362C285.567 188.331 277.094 196.638 266.197 195.682Z" fill="#9DD6FF"/>
<path d="M250.247 171.067C250.112 171.056 249.98 171.018 249.86 170.955C249.74 170.891 249.633 170.804 249.547 170.699C249.461 170.594 249.396 170.472 249.358 170.341C249.319 170.21 249.307 170.073 249.322 169.937C250.84 156.969 259.313 148.655 270.203 149.618C279.773 150.459 286.185 157.65 287.187 168.48C287.197 168.616 287.181 168.753 287.138 168.882C287.095 169.012 287.028 169.131 286.938 169.234C286.849 169.337 286.741 169.421 286.619 169.481C286.498 169.541 286.365 169.576 286.23 169.584V169.584C285.964 169.597 285.703 169.505 285.503 169.327C285.303 169.15 285.179 168.902 285.158 168.634C284.233 158.876 278.51 152.411 270.031 151.666C261.82 150.941 252.933 156.391 251.35 170.13C251.339 170.264 251.302 170.395 251.24 170.515C251.179 170.635 251.094 170.742 250.992 170.829C250.889 170.916 250.771 170.982 250.643 171.023C250.515 171.064 250.38 171.079 250.247 171.067Z" fill="#9DD6FF"/>
<path d="M266.611 190.18C265.096 190.057 263.61 189.684 262.215 189.076C262.085 189.018 261.968 188.934 261.872 188.829C261.776 188.724 261.703 188.6 261.656 188.465C261.61 188.33 261.592 188.186 261.604 188.044C261.616 187.902 261.657 187.763 261.724 187.637V187.637C261.844 187.417 262.04 187.249 262.276 187.166C262.512 187.083 262.77 187.091 263 187.188C264.33 187.763 265.752 188.093 267.198 188.164C273.444 188.523 280.041 184.068 280.692 173.308C281.087 166.676 278.829 161.322 274.618 158.76C274.4 158.628 274.239 158.418 274.167 158.172C274.095 157.926 274.117 157.662 274.229 157.431V157.431C274.292 157.304 274.381 157.191 274.49 157.1C274.598 157.008 274.724 156.94 274.86 156.9C274.996 156.86 275.139 156.848 275.279 156.865C275.42 156.883 275.555 156.929 275.677 157.001C280.558 159.967 283.174 165.989 282.727 173.43C282.089 183.805 275.671 190.713 267.077 190.218L266.611 190.18Z" fill="#9DD6FF"/>
<path d="M257.526 183.779C257.409 183.859 257.276 183.914 257.137 183.94C256.997 183.966 256.854 183.963 256.716 183.931C256.577 183.899 256.447 183.839 256.333 183.754C256.219 183.67 256.123 183.562 256.052 183.439C254.161 179.901 253.33 175.886 253.66 171.883C254.26 161.951 260.174 155.191 268.206 155.075C268.348 155.072 268.488 155.099 268.619 155.153C268.75 155.208 268.868 155.288 268.966 155.391C269.065 155.493 269.141 155.615 269.19 155.749C269.239 155.882 269.261 156.024 269.253 156.167V156.167C269.237 156.423 269.126 156.665 268.941 156.843C268.757 157.021 268.513 157.124 268.257 157.13C262.298 157.245 256.314 161.778 255.701 172.005C255.392 175.619 256.132 179.245 257.832 182.444C257.96 182.666 258 182.928 257.943 183.178C257.886 183.429 257.737 183.648 257.526 183.792V183.779Z" fill="#9DD6FF"/>
<path d="M271.473 182.97C271.376 182.742 271.365 182.486 271.441 182.25C271.518 182.014 271.676 181.813 271.888 181.686C274.574 180.062 276.22 176.653 276.245 172.538C276.245 169.244 275.32 166.458 273.572 164.692C272.893 164.015 272.084 163.485 271.194 163.134C270.305 162.783 269.353 162.619 268.398 162.651C265.253 162.651 262.701 164.391 261.291 167.446C261.182 167.679 260.99 167.861 260.754 167.958C260.517 168.054 260.253 168.057 260.015 167.966V167.966C259.882 167.917 259.76 167.84 259.658 167.741C259.556 167.642 259.475 167.522 259.421 167.39C259.367 167.258 259.341 167.116 259.345 166.973C259.348 166.83 259.38 166.69 259.44 166.56C261.189 162.818 264.461 160.603 268.372 160.596C269.598 160.565 270.816 160.782 271.956 161.237C273.095 161.692 274.131 162.373 275.001 163.241C277.139 165.398 278.3 168.705 278.274 172.557C278.236 177.404 276.207 181.474 272.902 183.471C272.777 183.54 272.639 183.581 272.497 183.593C272.355 183.605 272.212 183.586 272.077 183.539C271.943 183.492 271.819 183.417 271.715 183.319C271.611 183.221 271.529 183.102 271.473 182.97V182.97Z" fill="#9DD6FF"/>
<path d="M264.123 175.388C263.987 175.444 263.84 175.47 263.693 175.463C263.546 175.457 263.402 175.418 263.272 175.35C263.141 175.283 263.026 175.187 262.935 175.071C262.844 174.954 262.779 174.82 262.745 174.675C262.675 174.399 262.624 174.111 262.579 173.815C261.999 169.963 264.053 166.631 267.352 166.034C268.12 165.866 268.916 165.881 269.677 166.079C270.438 166.276 271.143 166.65 271.735 167.171C271.846 167.27 271.933 167.393 271.99 167.531C272.047 167.669 272.073 167.818 272.065 167.967C272.057 168.117 272.016 168.262 271.944 168.393C271.873 168.524 271.773 168.637 271.652 168.724L271.588 168.769C271.397 168.903 271.165 168.966 270.933 168.949C270.701 168.931 270.481 168.834 270.312 168.673C269.954 168.369 269.531 168.153 269.076 168.041C268.621 167.93 268.146 167.926 267.69 168.031C265.176 168.487 264.219 171.119 264.576 173.481C264.615 173.712 264.653 173.937 264.71 174.123C264.772 174.365 264.744 174.621 264.633 174.844C264.522 175.067 264.334 175.242 264.104 175.337L264.123 175.388Z" fill="#9DD6FF"/>
<path d="M267.498 179.343C267.337 179.327 267.183 179.27 267.05 179.178C266.917 179.085 266.81 178.96 266.738 178.814C266.667 178.668 266.633 178.506 266.641 178.344C266.649 178.181 266.698 178.024 266.784 177.885L266.873 177.744C266.964 177.597 267.094 177.478 267.248 177.4C267.403 177.322 267.575 177.288 267.747 177.301C268.067 177.32 268.388 177.3 268.704 177.243C270.899 176.845 271.894 174.791 271.894 172.698C271.888 172.447 271.972 172.202 272.132 172.008C272.291 171.814 272.515 171.685 272.762 171.645V171.645C272.903 171.623 273.048 171.632 273.186 171.67C273.324 171.708 273.453 171.775 273.563 171.867C273.674 171.958 273.764 172.072 273.829 172.201C273.893 172.33 273.929 172.471 273.936 172.615C273.993 175.966 272.022 178.733 269.068 179.266C268.55 179.362 268.022 179.388 267.498 179.343V179.343Z" fill="#9DD6FF"/>
<path d="M267.951 175.549C267.436 175.505 266.947 175.3 266.553 174.963C266.16 174.625 265.881 174.172 265.756 173.668C265.72 173.525 265.719 173.376 265.751 173.233C265.784 173.089 265.85 172.956 265.945 172.844C266.039 172.731 266.158 172.643 266.293 172.587C266.428 172.53 266.574 172.507 266.72 172.518H266.956C267.134 172.537 267.304 172.608 267.443 172.722C267.582 172.836 267.686 172.988 267.74 173.16C267.763 173.25 267.812 173.33 267.882 173.39C267.952 173.45 268.038 173.486 268.13 173.494C268.621 173.539 268.704 172.852 268.717 172.685C268.746 172.435 268.699 172.182 268.583 171.96C268.407 171.746 268.316 171.473 268.327 171.196V171.196C268.344 170.992 268.42 170.797 268.547 170.637C268.673 170.477 268.845 170.359 269.039 170.298C269.233 170.236 269.441 170.234 269.636 170.293C269.83 170.351 270.004 170.466 270.133 170.624C270.631 171.257 270.86 172.063 270.771 172.865C270.605 174.553 269.425 175.677 267.951 175.549Z" fill="#9DD6FF"/>
<path d="M248.76 152.571C248.627 152.56 248.497 152.522 248.378 152.46C248.259 152.398 248.154 152.313 248.068 152.21C247.982 152.107 247.917 151.987 247.877 151.859C247.837 151.73 247.823 151.595 247.835 151.461L248.607 142.556L257.456 143.339C257.589 143.351 257.719 143.388 257.838 143.45C257.957 143.513 258.062 143.598 258.148 143.701C258.234 143.804 258.299 143.923 258.339 144.052C258.379 144.181 258.393 144.316 258.381 144.45V144.45C258.37 144.585 258.332 144.715 258.271 144.835C258.209 144.955 258.125 145.062 258.022 145.149C257.92 145.236 257.801 145.302 257.673 145.343C257.545 145.384 257.411 145.399 257.277 145.387L250.463 144.784L249.87 151.64C249.858 151.775 249.82 151.906 249.757 152.025C249.695 152.145 249.61 152.251 249.507 152.338C249.404 152.424 249.285 152.489 249.157 152.529C249.028 152.569 248.894 152.584 248.76 152.571V152.571Z" fill="#003D3F"/>
<path d="M290.824 156.276C290.69 156.264 290.56 156.227 290.441 156.165C290.323 156.103 290.217 156.017 290.131 155.914C290.045 155.811 289.98 155.692 289.94 155.563C289.9 155.434 289.886 155.299 289.898 155.165L290.492 148.309L283.678 147.711C283.544 147.699 283.414 147.661 283.295 147.598C283.176 147.535 283.071 147.45 282.985 147.346C282.899 147.242 282.834 147.122 282.795 146.993C282.755 146.864 282.741 146.729 282.753 146.594V146.594C282.764 146.46 282.802 146.329 282.863 146.21C282.925 146.09 283.009 145.984 283.112 145.898C283.215 145.811 283.333 145.746 283.461 145.706C283.589 145.665 283.723 145.651 283.857 145.663L292.706 146.44L291.934 155.364C291.905 155.632 291.772 155.878 291.564 156.049C291.357 156.219 291.09 156.301 290.824 156.276Z" fill="#003D3F"/>
<path d="M287.691 204.156L278.842 203.379C278.708 203.367 278.578 203.329 278.459 203.266C278.341 203.203 278.235 203.118 278.149 203.014C278.063 202.91 277.999 202.79 277.959 202.661C277.919 202.532 277.905 202.397 277.917 202.262V202.262C277.928 202.128 277.966 201.997 278.027 201.878C278.089 201.758 278.174 201.652 278.276 201.565C278.379 201.479 278.497 201.414 278.625 201.373C278.753 201.333 278.887 201.319 279.021 201.331L285.834 201.928L286.428 195.078C286.439 194.943 286.477 194.812 286.539 194.691C286.601 194.571 286.686 194.464 286.789 194.377C286.892 194.29 287.011 194.224 287.14 194.184C287.269 194.143 287.404 194.129 287.538 194.141C287.671 194.152 287.801 194.19 287.92 194.252C288.039 194.314 288.144 194.399 288.23 194.502C288.316 194.606 288.381 194.725 288.421 194.854C288.461 194.982 288.475 195.117 288.463 195.252L287.691 204.156Z" fill="#003D3F"/>
<path d="M252.441 201.036L243.592 200.253L244.364 191.355C244.39 191.083 244.521 190.833 244.729 190.657C244.936 190.482 245.204 190.396 245.474 190.417V190.417C245.608 190.429 245.738 190.468 245.857 190.531C245.976 190.593 246.081 190.679 246.167 190.783C246.253 190.887 246.318 191.006 246.358 191.135C246.398 191.264 246.412 191.4 246.399 191.534L245.806 198.378L252.614 198.982C252.747 198.993 252.877 199.031 252.997 199.093C253.116 199.155 253.222 199.24 253.308 199.343C253.395 199.446 253.46 199.565 253.501 199.694C253.541 199.822 253.556 199.958 253.545 200.092C253.522 200.364 253.393 200.616 253.187 200.793C252.98 200.97 252.712 201.057 252.441 201.036V201.036Z" fill="#003D3F"/>
<path d="M60.6777 181.769C60.5115 181.782 60.347 181.729 60.2194 181.621C60.0918 181.513 60.0113 181.359 59.9951 181.192L59.5229 175.722L64.9587 175.24C65.125 175.228 65.2895 175.281 65.4171 175.389C65.5447 175.497 65.6252 175.651 65.6414 175.818V175.818C65.6521 175.984 65.5982 176.148 65.4911 176.275C65.3839 176.402 65.2319 176.482 65.0672 176.499L60.8819 176.871L61.2456 181.083C61.2581 181.249 61.2059 181.413 61.0999 181.542C60.9939 181.67 60.8425 181.752 60.6777 181.769V181.769Z" fill="#003D3F"/>
<path d="M86.5421 179.49C86.3768 179.503 86.2132 179.45 86.0857 179.344C85.9583 179.237 85.8772 179.085 85.8594 178.919L85.4957 174.701L81.3041 175.073C81.1378 175.086 80.9733 175.033 80.8457 174.925C80.7181 174.817 80.6376 174.663 80.6214 174.496V174.496C80.609 174.328 80.6621 174.163 80.7694 174.034C80.8767 173.906 81.0297 173.825 81.1956 173.809L86.6314 173.334L87.1099 178.803C87.1224 178.97 87.0702 179.134 86.9642 179.263C86.8582 179.391 86.7068 179.473 86.5421 179.49V179.49Z" fill="#003D3F"/>
<path d="M89.2218 203.058L83.7797 203.54C83.6134 203.552 83.4489 203.499 83.3213 203.391C83.1937 203.283 83.1132 203.129 83.097 202.962V202.962C83.0845 202.795 83.1376 202.629 83.245 202.501C83.3523 202.372 83.5053 202.291 83.6712 202.275L87.8565 201.909L87.4928 197.698C87.4803 197.531 87.5325 197.367 87.6385 197.238C87.7445 197.11 87.8959 197.029 88.0606 197.011V197.011C88.2259 196.998 88.3895 197.051 88.517 197.157C88.6444 197.264 88.7255 197.416 88.7433 197.582L89.2218 203.058Z" fill="#003D3F"/>
<path d="M67.5425 204.965L62.1258 205.44L61.6473 199.964C61.6366 199.798 61.6905 199.634 61.7977 199.507C61.9048 199.38 62.0568 199.3 62.2215 199.283C62.3857 199.272 62.5478 199.326 62.6738 199.432C62.7998 199.539 62.8801 199.69 62.8978 199.855L63.2679 204.073L67.4531 203.7C67.6194 203.688 67.7839 203.741 67.9115 203.849C68.0391 203.957 68.1196 204.111 68.1358 204.278V204.278C68.1419 204.362 68.1313 204.447 68.1048 204.527C68.0782 204.608 68.0361 204.682 67.981 204.746C67.9259 204.809 67.8587 204.862 67.7835 204.899C67.7082 204.937 67.6263 204.959 67.5425 204.965V204.965Z" fill="#003D3F"/>
<path d="M86.1019 90.5221L65.3159 92.3197L64.8884 87.4212C64.8572 85.0834 65.7056 82.8201 67.2634 81.0854C68.8212 79.3507 70.9733 78.2729 73.2878 78.0682C75.6024 77.8635 77.9083 78.547 79.743 79.9816C81.5776 81.4163 82.8054 83.4959 83.1799 85.8034L83.4223 88.6539L86.4273 88.3906L86.1785 85.5402C86.0386 83.9324 85.5853 82.3681 84.8446 80.9366C84.1039 79.5051 83.0903 78.2344 81.8616 77.1971C80.6328 76.1598 79.2131 75.3762 77.6835 74.891C76.1538 74.4058 74.5441 74.2286 72.9464 74.3694C69.7196 74.6537 66.7372 76.2163 64.6553 78.7134C63.6245 79.9498 62.8457 81.3784 62.3636 82.9177C61.8814 84.4569 61.7052 86.0767 61.8452 87.6844L62.2726 92.615C61.089 92.8481 60.0329 93.5134 59.3074 94.4829C58.5819 95.4523 58.2382 96.6575 58.3425 97.8666L59.8291 114.969C59.8821 115.615 60.0613 116.244 60.3565 116.819C60.6516 117.395 61.0568 117.906 61.5488 118.324C62.0409 118.741 62.6101 119.057 63.2237 119.252C63.8373 119.448 64.4833 119.52 65.1245 119.463L88.4306 117.415C89.0721 117.362 89.6968 117.182 90.2688 116.885C90.8408 116.588 91.3489 116.18 91.7639 115.685C92.1789 115.19 92.4926 114.617 92.687 114C92.8813 113.382 92.9526 112.732 92.8966 112.087L91.4101 94.984C91.3532 94.3401 91.1706 93.7139 90.873 93.141C90.5753 92.5682 90.1683 92.06 89.6753 91.6456C89.1823 91.2312 88.6129 90.9187 87.9998 90.7259C87.3866 90.5331 86.7417 90.4638 86.1019 90.5221V90.5221ZM77.2592 103.702L77.7696 109.589C77.804 109.826 77.7899 110.068 77.7283 110.299C77.6666 110.53 77.5587 110.747 77.4111 110.934C77.2635 111.122 77.0794 111.278 76.8699 111.392C76.6605 111.505 76.4302 111.575 76.1932 111.596C75.9562 111.617 75.7174 111.589 75.4914 111.514C75.2655 111.439 75.0572 111.318 74.8792 111.159C74.7013 111 74.5575 110.806 74.4566 110.589C74.3557 110.372 74.2999 110.137 74.2925 109.898L73.7821 104.004C73.2558 103.679 72.8449 103.195 72.6079 102.621C72.3708 102.047 72.3198 101.412 72.462 100.808C72.6042 100.203 72.9325 99.6584 73.4 99.2523C73.8675 98.8461 74.4504 98.5987 75.0658 98.5453C75.6812 98.4919 76.2976 98.6352 76.8273 98.9548C77.357 99.2745 77.773 99.7541 78.016 100.326C78.2591 100.897 78.3167 101.531 78.1809 102.137C78.045 102.744 77.7225 103.291 77.2592 103.702V103.702Z" fill="#003D3F"/>
<path d="M121.741 100.402L119.642 96.942C118.584 97.0936 117.51 97.0936 116.452 96.942L114.346 100.39L113.944 100.28C112.58 99.9187 111.271 99.3723 110.052 98.6561L109.695 98.4507L110.582 94.7014C110.599 94.6287 110.631 94.5601 110.674 94.4997C110.718 94.4392 110.773 94.3881 110.837 94.3493C110.9 94.3105 110.971 94.2847 111.044 94.2736C111.118 94.2624 111.193 94.266 111.265 94.2841C111.409 94.3192 111.534 94.4105 111.612 94.5381C111.69 94.6657 111.714 94.8191 111.679 94.9646L110.978 97.8858C111.884 98.3828 112.84 98.783 113.829 99.0799L115.884 95.703L116.26 95.7671C117.452 95.9598 118.667 95.9598 119.859 95.7671L120.229 95.703L122.283 99.0799C123.273 98.7853 124.229 98.385 125.135 97.8858L124.222 94.0338L124.529 93.809C125.36 93.2059 126.105 92.4909 126.743 91.684C126.831 91.5678 126.961 91.4908 127.105 91.4692C127.249 91.4476 127.396 91.4832 127.515 91.5685C127.577 91.6118 127.629 91.6674 127.669 91.7319C127.709 91.7963 127.736 91.8683 127.747 91.9434C127.758 92.0186 127.754 92.0952 127.735 92.1687C127.716 92.2423 127.682 92.3111 127.636 92.371C127.009 93.1677 126.287 93.8835 125.486 94.5024L126.424 98.4379L126.06 98.6433C124.843 99.3583 123.536 99.9047 122.174 100.268L121.741 100.402ZM108.84 92.8653C108.668 92.6663 108.496 92.4544 108.33 92.2233L104.419 93.167L104.208 92.8075C103.502 91.579 102.959 90.2623 102.594 88.8913L102.492 88.4869L105.918 86.3683C105.768 85.3036 105.768 84.2229 105.918 83.1583L102.492 81.0461L102.594 80.6352C102.959 79.2663 103.502 77.9517 104.208 76.7254L104.419 76.3595L108.33 77.3032C108.983 76.4434 109.747 75.6748 110.601 75.0177L109.893 72.0388C109.858 71.8933 109.883 71.7398 109.96 71.6122C110.038 71.4847 110.163 71.3933 110.308 71.3583V71.3583C110.379 71.3412 110.453 71.3384 110.525 71.3501C110.597 71.3618 110.667 71.3878 110.729 71.4266C110.791 71.4654 110.845 71.5162 110.888 71.5761C110.931 71.636 110.961 71.7038 110.978 71.7756L111.864 75.4864L111.558 75.7046C110.575 76.4163 109.713 77.2836 109.006 78.2726L108.783 78.5808L104.955 77.6627C104.459 78.574 104.061 79.5361 103.768 80.5325L107.118 82.5997L107.06 82.9721C106.847 84.1695 106.847 85.3955 107.06 86.593L107.118 86.9717L103.768 89.039C104.062 90.033 104.46 90.9928 104.955 91.9023L108.783 90.9843L109.006 91.2924C109.204 91.5835 109.417 91.8642 109.644 92.1334C109.742 92.2373 109.797 92.3752 109.797 92.5186C109.797 92.662 109.742 92.8 109.644 92.9038V92.9038C109.59 92.9562 109.525 92.9969 109.455 93.0234C109.384 93.05 109.309 93.0618 109.234 93.0582C109.159 93.0546 109.085 93.0356 109.017 93.0025C108.95 92.9693 108.889 92.9226 108.84 92.8653V92.8653ZM131.642 93.1799L130.201 92.8332C130.056 92.7982 129.931 92.7069 129.853 92.5793C129.776 92.4517 129.751 92.2983 129.786 92.1527V92.1527C129.821 92.0072 129.911 91.8815 130.038 91.8033C130.165 91.725 130.317 91.7006 130.462 91.7354L131.1 91.883C131.593 90.9733 131.989 90.0135 132.28 89.0197L128.931 86.9525L128.995 86.5737C129.208 85.3763 129.208 84.1503 128.995 82.9528L128.931 82.5805L132.28 80.5132C131.99 79.517 131.594 78.5549 131.1 77.6435L127.272 78.5615L127.055 78.2534C126.346 77.2658 125.485 76.3988 124.503 75.6854L124.197 75.4671L125.109 71.6151C124.204 71.1179 123.247 70.7197 122.257 70.4274L120.184 73.83L119.814 73.7658C118.622 73.5732 117.407 73.5732 116.216 73.7658L115.839 73.83L113.804 70.4402L113.421 70.5558C113.285 70.601 113.136 70.5907 113.008 70.5271C112.879 70.4635 112.78 70.3517 112.732 70.2155V70.2155C112.706 70.1452 112.694 70.0703 112.696 69.9952C112.699 69.9201 112.717 69.8463 112.748 69.7781C112.78 69.71 112.825 69.6488 112.88 69.5982C112.935 69.5477 113 69.5087 113.07 69.4837C113.351 69.3938 113.638 69.3103 113.919 69.2333L114.321 69.1241L116.426 72.5781C117.484 72.4199 118.559 72.4199 119.616 72.5781L121.715 69.1241L122.123 69.2333C123.484 69.599 124.791 70.1452 126.009 70.8575L126.373 71.0694L125.435 75.0049C126.29 75.6605 127.054 76.4293 127.706 77.2904L131.617 76.3466L131.827 76.7126C132.536 77.9375 133.079 79.2525 133.442 80.6224L133.55 81.0332L130.118 83.1454C130.277 84.2094 130.277 85.2914 130.118 86.3554L133.55 88.474L133.442 88.8785C133.079 90.2504 132.536 91.5675 131.827 92.7947L131.642 93.1799ZM117.874 90.2652C116.484 90.2098 115.166 89.6292 114.182 88.6393C113.198 87.6493 112.621 86.3227 112.566 84.9238C112.528 83.5478 113.004 82.2075 113.899 81.1666C114.794 80.1257 116.044 79.4597 117.402 79.2998C117.482 79.2899 117.563 79.297 117.64 79.3208C117.716 79.3446 117.787 79.3845 117.848 79.4379C117.908 79.4913 117.956 79.557 117.989 79.6305C118.023 79.7041 118.04 79.784 118.04 79.8648V79.8648C118.04 80.0014 117.989 80.1329 117.899 80.2347C117.808 80.3364 117.684 80.4012 117.549 80.4169C116.604 80.5254 115.72 80.9432 115.033 81.6062C114.347 82.2691 113.895 83.1406 113.748 84.0866C113.602 85.0327 113.768 86.0011 114.221 86.843C114.674 87.685 115.389 88.3539 116.257 88.7471C117.125 89.1404 118.097 89.2361 119.023 89.0196C119.95 88.8032 120.781 88.2865 121.388 87.549C121.995 86.8114 122.344 85.8938 122.383 84.9371C122.421 83.9803 122.146 83.0374 121.6 82.253C121.522 82.1419 121.487 82.0051 121.504 81.8696C121.52 81.7341 121.586 81.6098 121.69 81.5212C121.749 81.468 121.819 81.4281 121.895 81.4042C121.971 81.3804 122.051 81.373 122.131 81.3828C122.21 81.3925 122.286 81.419 122.354 81.4606C122.422 81.5021 122.48 81.5578 122.525 81.6239C123.106 82.4594 123.444 83.4408 123.502 84.4585C123.559 85.4763 123.335 86.4901 122.853 87.3867C122.371 88.2833 121.651 89.0274 120.773 89.5358C119.895 90.0441 118.893 90.2967 117.881 90.2652H117.874Z" fill="#003D3F"/>
<path d="M82.1016 147.397L80.7427 145.169C80.0553 145.272 79.3566 145.272 78.6692 145.169L77.3102 147.397L77.0487 147.326C76.1679 147.092 75.3224 146.74 74.5349 146.28L74.3053 146.145L74.8795 143.718C74.9022 143.625 74.9604 143.544 75.0415 143.494C75.1227 143.444 75.2203 143.427 75.3133 143.449C75.3598 143.46 75.4037 143.48 75.4424 143.509C75.4811 143.537 75.5138 143.573 75.5387 143.614C75.5636 143.655 75.5802 143.701 75.5875 143.748C75.5948 143.796 75.5927 143.845 75.5813 143.891L75.1347 145.779C75.72 146.102 76.3382 146.36 76.9785 146.549L78.3055 144.373L78.5416 144.412C79.3126 144.54 80.0993 144.54 80.8703 144.412L81.1063 144.373L82.4398 146.549C83.0766 146.356 83.6923 146.098 84.2772 145.779L83.6902 143.301L83.888 143.153C84.4244 142.765 84.9053 142.305 85.3171 141.786C85.3732 141.709 85.457 141.658 85.5502 141.644C85.6434 141.63 85.7385 141.653 85.8148 141.709V141.709C85.8539 141.737 85.8872 141.772 85.9126 141.813C85.938 141.855 85.9551 141.9 85.9628 141.948C85.9705 141.996 85.9687 142.045 85.9575 142.092C85.9464 142.139 85.926 142.183 85.8977 142.222C85.4913 142.737 85.0242 143.201 84.5069 143.603L85.1449 146.171L84.9088 146.305C84.1219 146.767 83.2762 147.119 82.3951 147.352L82.1016 147.397ZM73.7693 142.524L73.4376 142.12L70.8856 142.723L70.7516 142.492C70.3021 141.696 69.9609 140.843 69.7372 139.956L69.667 139.693L71.8809 138.325C71.7787 137.634 71.7787 136.931 71.8809 136.239L69.667 134.871L69.7372 134.608C69.9684 133.722 70.3183 132.871 70.7771 132.079L70.9111 131.841L73.4631 132.483C73.8735 131.921 74.3513 131.412 74.8858 130.968L74.4329 129.042C74.4215 128.996 74.4195 128.947 74.4268 128.9C74.4342 128.853 74.4509 128.808 74.4758 128.767C74.5008 128.727 74.5335 128.691 74.5721 128.664C74.6108 128.636 74.6545 128.616 74.7008 128.605V128.605C74.7938 128.584 74.8914 128.601 74.9726 128.651C75.0537 128.701 75.1119 128.782 75.1347 128.875L75.7089 131.27L75.5047 131.417C74.8724 131.874 74.3186 132.431 73.865 133.067L73.7183 133.266L71.2556 132.676C70.9388 133.264 70.6823 133.884 70.49 134.525L72.6528 135.86L72.6146 136.104C72.5488 136.49 72.5146 136.881 72.5125 137.272C72.5146 137.666 72.5487 138.059 72.6146 138.447L72.6528 138.685L70.49 140.02C70.6811 140.664 70.9376 141.285 71.2556 141.876L73.7183 141.279L73.865 141.478C73.9968 141.668 74.1396 141.85 74.2925 142.023C74.3553 142.09 74.3903 142.178 74.3903 142.27C74.3903 142.362 74.3553 142.451 74.2925 142.518C74.2595 142.554 74.2194 142.584 74.1746 142.604C74.1298 142.624 74.0814 142.635 74.0323 142.635C73.9832 142.636 73.9345 142.626 73.8893 142.607C73.844 142.588 73.8032 142.56 73.7693 142.524V142.524ZM88.5008 142.723L87.5693 142.505C87.5227 142.493 87.4789 142.473 87.4402 142.445C87.4015 142.416 87.3688 142.38 87.3439 142.339C87.319 142.298 87.3024 142.252 87.2951 142.205C87.2878 142.157 87.2899 142.109 87.3013 142.062V142.062C87.3118 142.015 87.3314 141.971 87.359 141.932C87.3866 141.893 87.4216 141.86 87.462 141.835C87.5024 141.81 87.5474 141.794 87.5943 141.786C87.6412 141.779 87.6891 141.781 87.7352 141.792L88.1371 141.888C88.4577 141.299 88.7144 140.677 88.9027 140.033L86.7399 138.698L86.7782 138.46C86.844 138.072 86.8781 137.679 86.8802 137.285C86.8781 136.894 86.8439 136.503 86.7782 136.117L86.7399 135.873L88.9027 134.538C88.7132 133.896 88.4566 133.276 88.1371 132.689L85.6744 133.279L85.5277 133.08C85.0741 132.444 84.5203 131.887 83.888 131.43L83.6902 131.283L84.2772 128.804C83.6935 128.483 83.0776 128.225 82.4398 128.034L81.1063 130.21L80.8703 130.172C80.0993 130.044 79.3126 130.044 78.5416 130.172L78.3055 130.21L76.9785 128.034L76.7297 128.111C76.6408 128.14 76.5443 128.132 76.4609 128.09C76.3774 128.048 76.3136 127.975 76.2831 127.886C76.2659 127.841 76.2579 127.793 76.2595 127.745C76.2612 127.697 76.2725 127.65 76.2927 127.606C76.313 127.562 76.3418 127.523 76.3774 127.491C76.413 127.458 76.4547 127.434 76.5 127.418L77.0487 127.251L77.3102 127.187L78.6692 129.414C79.3566 129.312 80.0553 129.312 80.7427 129.414L82.1016 127.187L82.3632 127.251C83.2436 127.489 84.0889 127.843 84.8769 128.304L85.113 128.439L84.475 131.007C85.0243 131.434 85.5174 131.93 85.9424 132.483L88.4944 131.841L88.6284 132.079C89.0872 132.871 89.437 133.722 89.6683 134.608L89.7385 134.871L87.5246 136.239C87.6267 136.931 87.6267 137.634 87.5246 138.325L89.7385 139.693L89.6683 139.956C89.4359 140.842 89.0862 141.693 88.6284 142.486L88.5008 142.723ZM79.607 140.842C78.7401 140.782 77.9255 140.403 77.3187 139.777C76.712 139.151 76.3556 138.322 76.3177 137.449C76.2798 136.575 76.5631 135.718 77.1134 135.041C77.6636 134.365 78.4423 133.916 79.3008 133.78C79.352 133.775 79.4037 133.78 79.4527 133.796C79.5016 133.812 79.5468 133.838 79.5852 133.872C79.6236 133.907 79.6545 133.949 79.6758 133.996C79.6972 134.043 79.7085 134.094 79.7091 134.146C79.7096 134.235 79.6773 134.321 79.6183 134.387C79.5594 134.454 79.4781 134.496 79.3901 134.505C78.852 134.567 78.3431 134.785 77.925 135.131C77.5068 135.477 77.1971 135.938 77.0333 136.458C76.8695 136.977 76.8586 137.533 77.0019 138.059C77.1451 138.585 77.4364 139.057 77.8407 139.42C78.2449 139.783 78.7448 140.02 79.2801 140.104C79.8154 140.187 80.3632 140.113 80.8574 139.89C81.3517 139.667 81.7713 139.305 82.0656 138.847C82.36 138.389 82.5165 137.856 82.5163 137.311C82.5175 136.731 82.3391 136.166 82.0059 135.693C81.9572 135.62 81.9362 135.532 81.9467 135.445C81.9573 135.358 81.9987 135.277 82.0633 135.218V135.218C82.1018 135.183 82.1471 135.157 82.1963 135.141C82.2456 135.126 82.2976 135.121 82.3489 135.127C82.4002 135.133 82.4497 135.15 82.4939 135.177C82.5382 135.203 82.5763 135.239 82.6056 135.282C82.9788 135.822 83.1957 136.456 83.2324 137.113C83.269 137.77 83.1239 138.424 82.8131 139.003C82.5024 139.582 82.0382 140.062 81.4722 140.392C80.9062 140.721 80.2606 140.886 79.607 140.868V140.842Z" fill="#003D3F"/>
<path d="M172.5 274.14C240.819 274.14 296.202 270.887 296.202 266.873C296.202 262.859 240.819 259.605 172.5 259.605C104.182 259.605 48.7983 262.859 48.7983 266.873C48.7983 270.887 104.182 274.14 172.5 274.14Z" fill="#F5F5F5"/>
<path d="M244.881 93.6229H224.108L209.434 262.629H230.207C233.122 262.573 235.917 261.445 238.063 259.458C240.209 257.471 241.558 254.763 241.857 251.844L254.674 104.402C254.823 103.028 254.679 101.638 254.253 100.325C253.826 99.0114 253.126 97.8045 252.199 96.7846C251.273 95.7647 250.141 94.9552 248.879 94.41C247.617 93.8648 246.254 93.5965 244.881 93.6229V93.6229Z" fill="#00D9DE"/>
<path d="M240.645 93.6228H170.337C167.421 93.6778 164.626 94.8043 162.479 96.7899C160.332 98.7756 158.981 101.483 158.681 104.402L145.863 251.844C145.716 253.216 145.86 254.605 146.286 255.918C146.713 257.23 147.411 258.436 148.336 259.456C149.261 260.476 150.391 261.286 151.651 261.834C152.911 262.381 154.272 262.652 155.644 262.629H225.945C228.857 262.567 231.646 261.436 233.787 259.45C235.929 257.464 237.276 254.759 237.576 251.844L250.393 104.402C250.542 103.032 250.399 101.646 249.975 100.336C249.551 99.0255 248.855 97.8208 247.933 96.8017C247.011 95.7825 245.885 94.972 244.628 94.424C243.372 93.876 242.014 93.6029 240.645 93.6228V93.6228Z" fill="#00D9DE"/>
<path opacity="0.3" d="M240.645 93.6228H170.337C167.421 93.6778 164.626 94.8043 162.479 96.7899C160.332 98.7756 158.981 101.483 158.681 104.402L145.863 251.844C145.716 253.216 145.86 254.605 146.286 255.918C146.713 257.23 147.411 258.436 148.336 259.456C149.261 260.476 150.391 261.286 151.651 261.834C152.911 262.381 154.272 262.652 155.644 262.629H225.945C228.857 262.567 231.646 261.436 233.787 259.45C235.929 257.464 237.276 254.759 237.576 251.844L250.393 104.402C250.542 103.032 250.399 101.646 249.975 100.336C249.551 99.0255 248.855 97.8208 247.933 96.8017C247.011 95.7825 245.885 94.972 244.628 94.424C243.372 93.876 242.014 93.6029 240.645 93.6228V93.6228Z" fill="white"/>
<path opacity="0.4" d="M240.345 97.0769H221.804C221.252 97.0814 220.713 97.2527 220.258 97.5686C219.803 97.8845 219.453 98.3304 219.252 98.8488V98.8488C218.521 100.753 217.243 102.395 215.58 103.564C213.918 104.734 211.947 105.379 209.918 105.416H198.983C197.073 105.455 195.209 104.822 193.713 103.627C192.216 102.432 191.181 100.749 190.785 98.868V98.868C190.679 98.3592 190.4 97.9035 189.996 97.5799C189.592 97.2563 189.087 97.0852 188.571 97.0961H170.037C168.055 97.1314 166.155 97.8963 164.696 99.2462C163.237 100.596 162.32 102.437 162.119 104.421L149.296 251.863C149.193 252.797 149.289 253.741 149.578 254.635C149.867 255.528 150.342 256.349 150.971 257.042C151.6 257.736 152.369 258.287 153.227 258.658C154.084 259.029 155.01 259.212 155.944 259.195H226.251C228.234 259.158 230.134 258.392 231.593 257.041C233.051 255.69 233.968 253.848 234.169 251.863L246.986 104.421C247.091 103.487 246.996 102.542 246.708 101.647C246.421 100.753 245.947 99.931 245.318 99.2358C244.689 98.5407 243.921 97.9885 243.063 97.6162C242.205 97.2439 241.279 97.06 240.345 97.0769V97.0769Z" fill="white"/>
<path d="M222.825 177.192H173.623C173.284 177.198 172.949 177.131 172.638 176.996C172.328 176.861 172.049 176.662 171.821 176.41C171.593 176.159 171.421 175.862 171.316 175.538C171.21 175.215 171.175 174.872 171.211 174.534L171.46 171.696C171.533 170.977 171.865 170.309 172.394 169.82C172.923 169.33 173.612 169.052 174.331 169.039H223.54C223.878 169.033 224.213 169.1 224.524 169.235C224.835 169.369 225.113 169.569 225.341 169.82C225.569 170.072 225.741 170.369 225.847 170.692C225.952 171.016 225.988 171.358 225.951 171.696L225.709 174.534C225.634 175.255 225.299 175.924 224.768 176.414C224.237 176.903 223.546 177.18 222.825 177.192Z" fill="white"/>
<path d="M221.766 189.39H172.557C172.219 189.396 171.884 189.329 171.574 189.194C171.264 189.059 170.985 188.86 170.758 188.608C170.53 188.357 170.359 188.059 170.254 187.736C170.15 187.412 170.115 187.07 170.152 186.732L170.395 183.895C170.469 183.176 170.802 182.509 171.331 182.019C171.859 181.53 172.547 181.252 173.266 181.237H222.475C222.813 181.231 223.148 181.298 223.459 181.433C223.769 181.567 224.048 181.767 224.276 182.018C224.504 182.27 224.676 182.567 224.781 182.89C224.887 183.214 224.922 183.556 224.886 183.895L224.637 186.732C224.563 187.451 224.23 188.118 223.701 188.607C223.173 189.097 222.485 189.375 221.766 189.39Z" fill="white"/>
<path opacity="0.1" d="M207.877 99.8375C207.796 100.636 207.426 101.378 206.838 101.921C206.25 102.464 205.485 102.771 204.687 102.784C204.312 102.791 203.94 102.717 203.595 102.568C203.251 102.419 202.942 102.198 202.689 101.919C202.436 101.64 202.245 101.31 202.128 100.951C202.012 100.592 201.973 100.213 202.014 99.8375C202.095 99.0385 202.464 98.2973 203.052 97.7542C203.64 97.211 204.406 96.9038 205.204 96.8907C205.579 96.8839 205.951 96.9576 206.296 97.1068C206.64 97.256 206.949 97.4774 207.202 97.7562C207.455 98.035 207.646 98.3648 207.762 98.7237C207.879 99.0825 207.918 99.4622 207.877 99.8375V99.8375Z" fill="black"/>
<path opacity="0.1" d="M206.55 99.8374C206.505 100.274 206.303 100.678 205.982 100.975C205.661 101.272 205.244 101.44 204.808 101.449C204.603 101.453 204.399 101.413 204.211 101.331C204.022 101.25 203.853 101.129 203.715 100.976C203.577 100.824 203.472 100.643 203.409 100.447C203.346 100.25 203.325 100.043 203.347 99.8374C203.391 99.4007 203.592 98.9954 203.914 98.6984C204.235 98.4013 204.653 98.2332 205.089 98.226C205.294 98.223 205.497 98.2638 205.685 98.3457C205.873 98.4276 206.042 98.5486 206.18 98.7009C206.318 98.8532 206.422 99.0333 206.486 99.2292C206.55 99.4251 206.572 99.6324 206.55 99.8374Z" fill="black"/>
<g opacity="0.8">
<path d="M231.687 104.755C231.577 104.757 231.468 104.735 231.367 104.691C231.266 104.647 231.175 104.581 231.101 104.499C231.027 104.418 230.971 104.321 230.937 104.215C230.902 104.11 230.891 103.999 230.902 103.888L231.043 102.309C231.066 102.076 231.174 101.859 231.346 101.701C231.517 101.542 231.741 101.452 231.974 101.449C232.084 101.447 232.192 101.469 232.293 101.513C232.393 101.557 232.484 101.621 232.558 101.702C232.632 101.784 232.688 101.88 232.723 101.984C232.757 102.089 232.77 102.199 232.759 102.309L232.619 103.888C232.595 104.122 232.488 104.34 232.316 104.499C232.144 104.659 231.921 104.75 231.687 104.755Z" fill="white"/>
<path d="M238.552 104.755C238.442 104.757 238.333 104.735 238.232 104.691C238.13 104.647 238.04 104.581 237.966 104.499C237.892 104.418 237.835 104.321 237.801 104.215C237.767 104.11 237.755 103.999 237.767 103.888L238.093 100.184C238.116 99.9507 238.224 99.7341 238.396 99.5755C238.567 99.4169 238.791 99.3273 239.024 99.3238C239.134 99.3224 239.242 99.3442 239.343 99.3879C239.443 99.4316 239.534 99.4961 239.608 99.5773C239.682 99.6585 239.738 99.7545 239.773 99.8591C239.807 99.9636 239.82 100.074 239.809 100.184L239.483 103.888C239.46 104.122 239.352 104.34 239.181 104.499C239.009 104.659 238.786 104.75 238.552 104.755Z" fill="white"/>
<path d="M235.12 104.755C235.01 104.757 234.9 104.735 234.799 104.691C234.698 104.647 234.608 104.581 234.534 104.499C234.459 104.418 234.403 104.321 234.369 104.215C234.335 104.11 234.323 103.999 234.335 103.888L234.565 101.25C234.588 101.015 234.697 100.797 234.87 100.637C235.043 100.477 235.268 100.387 235.503 100.383V100.383C235.612 100.381 235.721 100.403 235.822 100.448C235.923 100.492 236.013 100.557 236.087 100.639C236.161 100.721 236.216 100.818 236.249 100.923C236.283 101.029 236.294 101.14 236.281 101.25L236.051 103.888C236.028 104.122 235.92 104.34 235.749 104.499C235.577 104.659 235.353 104.75 235.12 104.755V104.755Z" fill="white"/>
</g>
<g opacity="0.8">
<path d="M172.908 104.755H168.595C168.533 104.756 168.471 104.744 168.414 104.72C168.357 104.695 168.306 104.658 168.264 104.612C168.223 104.566 168.191 104.511 168.172 104.452C168.154 104.392 168.148 104.329 168.155 104.267L168.353 101.937C168.367 101.804 168.428 101.682 168.526 101.592C168.623 101.502 168.75 101.451 168.882 101.449H173.195C173.257 101.447 173.319 101.46 173.376 101.484C173.433 101.509 173.484 101.546 173.526 101.592C173.567 101.638 173.599 101.693 173.618 101.752C173.637 101.812 173.643 101.875 173.635 101.937L173.431 104.267C173.42 104.4 173.36 104.523 173.263 104.613C173.167 104.703 173.04 104.754 172.908 104.755V104.755Z" fill="white"/>
<path d="M174.905 104.12C174.843 104.121 174.781 104.109 174.723 104.084C174.666 104.059 174.615 104.023 174.572 103.977C174.53 103.931 174.498 103.876 174.479 103.817C174.459 103.757 174.452 103.694 174.458 103.632L174.554 102.566C174.567 102.433 174.628 102.31 174.726 102.22C174.823 102.129 174.951 102.079 175.084 102.078V102.078C175.146 102.077 175.207 102.089 175.264 102.113C175.321 102.138 175.372 102.175 175.414 102.221C175.456 102.267 175.487 102.322 175.506 102.381C175.525 102.441 175.531 102.504 175.524 102.566L175.434 103.632C175.42 103.764 175.359 103.887 175.261 103.976C175.164 104.066 175.037 104.117 174.905 104.12V104.12Z" fill="white"/>
</g>
<path d="M214.718 158.529C223.303 150.259 224.159 137.139 216.63 129.225C209.101 121.311 196.038 121.599 187.452 129.869C178.867 138.139 178.011 151.26 185.54 159.174C193.069 167.088 206.132 166.8 214.718 158.529Z" fill="white"/>
<path d="M201.159 143.41C195.749 143.41 191.174 145.484 190.785 149.984L190.351 154.985H209.957L210.391 149.984C210.78 145.484 206.575 143.41 201.159 143.41Z" fill="#00D9DE"/>
<path d="M201.337 141.349C203.851 141.349 205.012 139.301 205.229 136.772C205.446 134.242 204.649 132.194 202.135 132.194C199.621 132.194 198.466 134.249 198.243 136.772C198.02 139.295 198.824 141.349 201.337 141.349Z" fill="#00D9DE"/>
<path d="M220.579 172.942C219.246 172.942 218.117 173.456 218.027 174.566L217.919 175.805H222.761L222.87 174.566C222.959 173.456 221.919 172.942 220.579 172.942Z" fill="#00D9DE"/>
<path d="M220.624 172.435C221.262 172.435 221.53 171.928 221.587 171.305C221.645 170.682 221.441 170.175 220.822 170.175C220.203 170.175 219.916 170.682 219.858 171.305C219.801 171.928 220.005 172.435 220.624 172.435Z" fill="#00D9DE"/>
<path d="M205.676 201.588H186.536C186.017 201.597 185.502 201.496 185.025 201.289C184.548 201.083 184.121 200.776 183.77 200.391C183.42 200.005 183.156 199.549 182.995 199.052C182.834 198.556 182.779 198.031 182.835 197.511C182.949 196.407 183.46 195.383 184.272 194.632C185.084 193.881 186.141 193.455 187.244 193.435H206.384C206.903 193.426 207.417 193.529 207.894 193.735C208.37 193.942 208.797 194.248 209.147 194.634C209.497 195.019 209.761 195.475 209.923 195.971C210.085 196.467 210.14 196.992 210.084 197.511V197.511C209.972 198.616 209.462 199.641 208.649 200.392C207.837 201.143 206.779 201.569 205.676 201.588V201.588Z" fill="#00D9DE"/>
<path d="M203.36 247.054H182.874C182.324 247.069 181.778 246.965 181.272 246.749C180.766 246.532 180.312 246.208 179.942 245.8C179.571 245.391 179.292 244.907 179.125 244.38C178.957 243.853 178.904 243.296 178.969 242.747L180.277 227.711C180.394 226.545 180.932 225.462 181.789 224.668C182.646 223.874 183.763 223.424 184.928 223.403H205.42C205.969 223.394 206.512 223.501 207.016 223.72C207.519 223.938 207.971 224.262 208.34 224.669C208.709 225.077 208.988 225.559 209.158 226.083C209.328 226.608 209.385 227.163 209.325 227.711L208.017 242.747C207.897 243.913 207.358 244.995 206.5 245.789C205.642 246.582 204.525 247.032 203.36 247.054Z" fill="#00D9DE"/>
<g opacity="0.6">
<path d="M197.044 231.505C197.077 231.177 197.041 230.846 196.938 230.533C196.834 230.219 196.666 229.932 196.444 229.689C196.222 229.447 195.952 229.254 195.65 229.124C195.349 228.995 195.024 228.931 194.696 228.937C193.998 228.947 193.328 229.214 192.812 229.687C192.296 230.16 191.97 230.807 191.895 231.505C191.854 231.896 191.912 232.29 192.062 232.653C192.213 233.015 192.452 233.334 192.756 233.579L192.31 238.76C192.288 238.956 192.308 239.155 192.369 239.343C192.429 239.53 192.529 239.703 192.661 239.849C192.794 239.995 192.955 240.111 193.136 240.188C193.316 240.266 193.511 240.305 193.707 240.301C194.123 240.292 194.521 240.13 194.826 239.846C195.132 239.563 195.324 239.176 195.366 238.76L195.819 233.579C196.16 233.344 196.447 233.036 196.659 232.678C196.87 232.32 197.002 231.92 197.044 231.505V231.505Z" fill="white"/>
</g>
<path d="M205.599 226.536H202.958L203.596 219.095C203.707 218.063 203.599 217.018 203.279 216.031C202.958 215.043 202.433 214.136 201.737 213.368C201.041 212.601 200.191 211.991 199.244 211.579C198.296 211.168 197.272 210.964 196.24 210.981C194.046 211.024 191.944 211.873 190.329 213.367C188.715 214.862 187.699 216.899 187.474 219.095L186.836 226.536H184.194L184.832 219.095C185.13 216.181 186.477 213.477 188.619 211.493C190.762 209.51 193.552 208.384 196.463 208.329C197.833 208.306 199.192 208.576 200.451 209.121C201.709 209.667 202.838 210.476 203.761 211.494C204.685 212.512 205.383 213.717 205.809 215.027C206.235 216.338 206.379 217.725 206.231 219.095L205.599 226.536Z" fill="#00D9DE"/>
<path d="M220.905 184.337L220.988 183.612C221.005 183.444 220.986 183.274 220.934 183.114C220.881 182.953 220.795 182.806 220.682 182.681C220.569 182.556 220.431 182.456 220.277 182.389C220.123 182.322 219.956 182.288 219.788 182.289C219.431 182.297 219.088 182.435 218.825 182.679C218.562 182.922 218.396 183.254 218.359 183.612L218.295 184.325C218.152 184.329 218.016 184.385 217.911 184.483C217.807 184.581 217.742 184.714 217.728 184.858L217.562 186.784C217.553 186.851 217.56 186.919 217.58 186.984C217.601 187.048 217.635 187.108 217.68 187.158C217.726 187.208 217.781 187.247 217.844 187.274C217.906 187.3 217.973 187.312 218.04 187.31H220.669C220.811 187.308 220.948 187.253 221.052 187.155C221.157 187.058 221.223 186.926 221.237 186.784L221.402 184.858C221.408 184.789 221.399 184.721 221.376 184.657C221.353 184.592 221.317 184.534 221.27 184.485C221.223 184.435 221.166 184.397 221.103 184.371C221.04 184.346 220.973 184.335 220.905 184.337V184.337ZM219.712 182.63C219.838 182.628 219.964 182.654 220.08 182.704C220.196 182.755 220.3 182.83 220.386 182.923C220.471 183.017 220.536 183.128 220.576 183.249C220.616 183.37 220.63 183.498 220.618 183.625L220.554 184.337H218.576L218.64 183.625C218.668 183.356 218.792 183.107 218.989 182.924C219.187 182.741 219.443 182.636 219.712 182.63V182.63Z" fill="#00D9DE"/>
<path d="M181.336 185.101L180.418 184.909C180.392 184.904 180.368 184.893 180.347 184.877C180.326 184.861 180.31 184.84 180.298 184.817C180.286 184.793 180.28 184.767 180.28 184.741C180.279 184.715 180.285 184.689 180.296 184.665L180.679 183.753C180.695 183.714 180.697 183.67 180.683 183.63C180.67 183.589 180.643 183.555 180.607 183.533C180.571 183.51 180.529 183.501 180.487 183.508C180.445 183.514 180.407 183.535 180.379 183.567L179.684 184.286C179.667 184.307 179.646 184.325 179.621 184.337C179.597 184.349 179.57 184.355 179.543 184.355C179.516 184.355 179.49 184.349 179.465 184.337C179.441 184.325 179.42 184.307 179.403 184.286L178.835 183.567C178.714 183.413 178.452 183.567 178.497 183.753L178.72 184.665C178.727 184.692 178.728 184.719 178.723 184.746C178.719 184.773 178.709 184.799 178.694 184.822C178.679 184.845 178.659 184.864 178.636 184.879C178.613 184.894 178.588 184.904 178.561 184.909L177.61 185.101C177.406 185.14 177.381 185.429 177.578 185.467L178.497 185.66C178.523 185.665 178.547 185.676 178.568 185.692C178.588 185.708 178.605 185.729 178.616 185.753C178.627 185.776 178.633 185.802 178.632 185.829C178.631 185.855 178.624 185.881 178.612 185.904L178.242 186.822C178.226 186.861 178.224 186.905 178.238 186.946C178.251 186.986 178.278 187.02 178.314 187.043C178.35 187.065 178.392 187.074 178.434 187.068C178.476 187.061 178.514 187.04 178.542 187.008L179.237 186.289C179.255 186.27 179.277 186.254 179.301 186.244C179.325 186.233 179.351 186.228 179.378 186.228C179.404 186.228 179.43 186.233 179.454 186.244C179.478 186.254 179.5 186.27 179.518 186.289L180.086 187.008C180.207 187.162 180.469 187.008 180.418 186.822L180.194 185.91C180.185 185.856 180.197 185.8 180.228 185.754C180.259 185.709 180.306 185.677 180.36 185.666L181.311 185.474C181.508 185.429 181.534 185.14 181.336 185.101Z" fill="#263238"/>
<path d="M187.371 185.101L186.453 184.909C186.427 184.904 186.403 184.893 186.382 184.877C186.362 184.861 186.345 184.84 186.333 184.817C186.321 184.793 186.315 184.767 186.315 184.741C186.315 184.715 186.32 184.689 186.331 184.665L186.714 183.753C186.73 183.714 186.732 183.67 186.719 183.63C186.705 183.589 186.679 183.555 186.643 183.533C186.607 183.51 186.564 183.501 186.522 183.508C186.48 183.514 186.442 183.535 186.414 183.567L185.719 184.286C185.702 184.307 185.681 184.325 185.657 184.337C185.632 184.349 185.606 184.355 185.579 184.355C185.552 184.355 185.525 184.349 185.501 184.337C185.476 184.325 185.455 184.307 185.438 184.286L184.87 183.567C184.749 183.413 184.488 183.567 184.539 183.753L184.762 184.665C184.767 184.692 184.768 184.72 184.762 184.747C184.757 184.774 184.746 184.8 184.73 184.822C184.715 184.845 184.695 184.864 184.672 184.879C184.649 184.894 184.623 184.904 184.596 184.909L183.645 185.101C183.441 185.14 183.416 185.429 183.614 185.467L184.532 185.66C184.558 185.665 184.582 185.676 184.603 185.692C184.623 185.708 184.64 185.729 184.652 185.752C184.664 185.776 184.67 185.802 184.67 185.828C184.67 185.854 184.665 185.88 184.654 185.904L184.271 186.816C184.255 186.855 184.253 186.899 184.266 186.939C184.279 186.98 184.306 187.014 184.342 187.036C184.378 187.059 184.421 187.067 184.463 187.061C184.505 187.055 184.543 187.034 184.571 187.002L185.266 186.283C185.284 186.263 185.306 186.248 185.33 186.237C185.354 186.227 185.38 186.221 185.406 186.221C185.433 186.221 185.459 186.227 185.483 186.237C185.507 186.248 185.529 186.263 185.547 186.283L186.115 187.002C186.236 187.156 186.497 187.002 186.453 186.816L186.229 185.904C186.224 185.877 186.223 185.85 186.228 185.823C186.233 185.797 186.244 185.771 186.259 185.748C186.273 185.726 186.293 185.706 186.315 185.691C186.337 185.676 186.362 185.665 186.389 185.66L187.34 185.467C187.544 185.429 187.569 185.14 187.371 185.101Z" fill="#263238"/>
<path d="M193.407 185.101L192.495 184.909C192.468 184.905 192.443 184.894 192.422 184.879C192.401 184.863 192.383 184.842 192.371 184.818C192.359 184.795 192.353 184.768 192.354 184.741C192.354 184.715 192.361 184.688 192.373 184.665L192.756 183.753C192.781 183.712 192.788 183.663 192.777 183.617C192.765 183.571 192.736 183.531 192.696 183.506C192.655 183.481 192.606 183.474 192.56 183.485C192.514 183.497 192.475 183.526 192.45 183.567L191.761 184.286C191.744 184.308 191.722 184.325 191.697 184.337C191.672 184.349 191.645 184.355 191.617 184.355C191.59 184.355 191.563 184.349 191.538 184.337C191.513 184.325 191.491 184.308 191.474 184.286L190.906 183.567C190.785 183.413 190.523 183.567 190.574 183.753L190.798 184.665C190.803 184.691 190.803 184.719 190.798 184.746C190.793 184.772 190.783 184.798 190.768 184.82C190.754 184.843 190.734 184.863 190.712 184.878C190.69 184.893 190.665 184.903 190.638 184.909L189.687 185.101C189.483 185.14 189.458 185.429 189.656 185.467L190.568 185.66C190.593 185.665 190.618 185.676 190.638 185.692C190.659 185.708 190.676 185.729 190.687 185.752C190.699 185.776 190.705 185.802 190.706 185.828C190.706 185.854 190.7 185.88 190.689 185.904L190.306 186.816C190.282 186.856 190.274 186.905 190.286 186.952C190.297 186.998 190.326 187.038 190.367 187.063C190.408 187.087 190.456 187.095 190.502 187.083C190.548 187.072 190.588 187.043 190.613 187.002L191.302 186.283C191.32 186.263 191.341 186.248 191.365 186.237C191.39 186.227 191.416 186.221 191.442 186.221C191.468 186.221 191.494 186.227 191.519 186.237C191.543 186.248 191.564 186.263 191.582 186.283L192.157 187.002C192.278 187.156 192.539 187.002 192.488 186.816L192.265 185.904C192.255 185.85 192.267 185.795 192.296 185.75C192.326 185.704 192.372 185.672 192.424 185.66L193.375 185.467C193.554 185.429 193.605 185.14 193.407 185.101Z" fill="#263238"/>
<path d="M199.449 185.101L198.53 184.909C198.505 184.904 198.48 184.893 198.46 184.877C198.439 184.861 198.422 184.84 198.411 184.817C198.399 184.793 198.393 184.767 198.392 184.741C198.392 184.715 198.398 184.689 198.409 184.665L198.792 183.753C198.808 183.714 198.809 183.67 198.796 183.63C198.783 183.589 198.756 183.555 198.72 183.533C198.684 183.51 198.641 183.501 198.6 183.508C198.558 183.514 198.52 183.535 198.492 183.567L197.796 184.286C197.78 184.307 197.758 184.325 197.734 184.337C197.71 184.349 197.683 184.355 197.656 184.355C197.629 184.355 197.602 184.349 197.578 184.337C197.554 184.325 197.532 184.307 197.516 184.286L196.948 183.567C196.827 183.413 196.565 183.567 196.61 183.753L196.833 184.665C196.84 184.692 196.841 184.719 196.836 184.746C196.831 184.773 196.821 184.799 196.806 184.822C196.791 184.845 196.772 184.864 196.749 184.879C196.726 184.894 196.7 184.904 196.674 184.909L195.723 185.101C195.519 185.14 195.493 185.429 195.723 185.467L196.642 185.66C196.667 185.665 196.692 185.676 196.712 185.692C196.733 185.708 196.75 185.729 196.761 185.753C196.772 185.776 196.777 185.802 196.777 185.829C196.776 185.855 196.769 185.881 196.756 185.904L196.38 186.816C196.364 186.855 196.363 186.899 196.376 186.939C196.389 186.98 196.416 187.014 196.452 187.036C196.488 187.059 196.53 187.067 196.572 187.061C196.614 187.055 196.652 187.034 196.68 187.002L197.375 186.283C197.393 186.263 197.415 186.248 197.439 186.237C197.463 186.227 197.489 186.221 197.516 186.221C197.542 186.221 197.568 186.227 197.592 186.237C197.616 186.248 197.638 186.263 197.656 186.283L198.224 187.002C198.345 187.156 198.607 187.002 198.556 186.816L198.332 185.904C198.323 185.85 198.335 185.794 198.366 185.748C198.397 185.702 198.444 185.671 198.498 185.66L199.449 185.467C199.621 185.429 199.647 185.14 199.449 185.101Z" fill="#263238"/>
<path d="M205.484 185.101L204.565 184.909C204.54 184.904 204.516 184.893 204.495 184.877C204.474 184.861 204.458 184.84 204.446 184.817C204.434 184.793 204.428 184.767 204.428 184.741C204.427 184.715 204.433 184.689 204.444 184.665L204.827 183.753C204.843 183.714 204.845 183.67 204.831 183.63C204.818 183.589 204.791 183.555 204.755 183.533C204.719 183.51 204.677 183.501 204.635 183.508C204.593 183.514 204.555 183.535 204.527 183.567L203.832 184.286C203.815 184.307 203.794 184.325 203.769 184.337C203.745 184.349 203.718 184.355 203.691 184.355C203.664 184.355 203.638 184.349 203.613 184.337C203.589 184.325 203.568 184.307 203.551 184.286L202.983 183.567C202.862 183.413 202.6 183.567 202.651 183.753L202.875 184.665C202.88 184.692 202.88 184.72 202.875 184.747C202.87 184.774 202.859 184.8 202.843 184.822C202.828 184.845 202.808 184.864 202.785 184.879C202.762 184.894 202.736 184.904 202.709 184.909L201.758 185.101C201.554 185.14 201.529 185.429 201.726 185.467L202.645 185.66C202.671 185.665 202.695 185.676 202.715 185.692C202.736 185.708 202.753 185.729 202.765 185.752C202.776 185.776 202.783 185.802 202.783 185.828C202.783 185.854 202.777 185.88 202.766 185.904L202.384 186.816C202.368 186.855 202.366 186.899 202.379 186.939C202.392 186.98 202.419 187.014 202.455 187.036C202.491 187.059 202.534 187.067 202.576 187.061C202.617 187.055 202.656 187.034 202.683 187.002L203.379 186.283C203.397 186.263 203.418 186.248 203.443 186.237C203.467 186.227 203.493 186.221 203.519 186.221C203.545 186.221 203.572 186.227 203.596 186.237C203.62 186.248 203.642 186.263 203.66 186.283L204.227 187.002C204.349 187.156 204.61 187.002 204.565 186.816L204.342 185.904C204.337 185.877 204.336 185.85 204.341 185.823C204.346 185.797 204.357 185.771 204.371 185.748C204.386 185.726 204.405 185.706 204.428 185.691C204.45 185.676 204.475 185.665 204.502 185.66L205.452 185.467C205.676 185.429 205.676 185.14 205.484 185.101Z" fill="#263238"/>
<path d="M211.52 185.101L210.601 184.909C210.575 184.904 210.551 184.893 210.53 184.877C210.51 184.861 210.493 184.84 210.482 184.816C210.471 184.792 210.465 184.766 210.466 184.74C210.467 184.714 210.474 184.688 210.486 184.665L210.869 183.753C210.881 183.733 210.889 183.711 210.893 183.687C210.896 183.664 210.895 183.64 210.89 183.617C210.884 183.594 210.874 183.572 210.86 183.553C210.846 183.534 210.829 183.518 210.808 183.506C210.788 183.494 210.766 183.486 210.743 183.482C210.72 183.479 210.696 183.48 210.673 183.485C210.65 183.491 210.629 183.501 210.61 183.515C210.591 183.529 210.575 183.547 210.563 183.567L209.874 184.286C209.856 184.308 209.835 184.325 209.81 184.337C209.785 184.349 209.758 184.355 209.73 184.355C209.703 184.355 209.676 184.349 209.651 184.337C209.626 184.325 209.604 184.308 209.587 184.286L209.019 183.567C208.898 183.413 208.636 183.567 208.687 183.753L208.91 184.665C208.916 184.691 208.916 184.719 208.911 184.746C208.906 184.772 208.896 184.798 208.881 184.82C208.866 184.843 208.847 184.862 208.825 184.878C208.802 184.893 208.777 184.903 208.751 184.909L207.8 185.101C207.596 185.14 207.571 185.429 207.768 185.467L208.681 185.66C208.706 185.665 208.73 185.676 208.751 185.692C208.772 185.708 208.789 185.729 208.8 185.752C208.812 185.776 208.818 185.802 208.818 185.828C208.819 185.854 208.813 185.88 208.802 185.904L208.419 186.816C208.395 186.856 208.387 186.905 208.399 186.952C208.41 186.998 208.439 187.038 208.48 187.063C208.52 187.087 208.569 187.095 208.615 187.083C208.661 187.072 208.701 187.043 208.725 187.002L209.414 186.283C209.432 186.263 209.454 186.248 209.478 186.237C209.502 186.226 209.528 186.221 209.555 186.221C209.581 186.221 209.607 186.226 209.631 186.237C209.655 186.248 209.677 186.263 209.695 186.283L210.263 187.002C210.293 187.035 210.333 187.058 210.377 187.066C210.421 187.073 210.466 187.066 210.506 187.044C210.545 187.022 210.576 186.988 210.593 186.947C210.61 186.905 210.613 186.859 210.601 186.816L210.378 185.904C210.368 185.85 210.379 185.795 210.409 185.75C210.439 185.704 210.485 185.672 210.537 185.66L211.488 185.467C211.692 185.429 211.718 185.14 211.52 185.101Z" fill="#263238"/>
<path d="M196.967 171.806H185.636C185.289 171.812 184.955 171.946 184.699 172.182C184.443 172.419 184.281 172.741 184.245 173.09C184.227 173.253 184.244 173.419 184.295 173.576C184.345 173.733 184.429 173.877 184.539 173.998C184.65 174.12 184.785 174.216 184.936 174.281C185.087 174.346 185.249 174.377 185.413 174.374H196.744C197.092 174.368 197.425 174.234 197.681 173.997C197.938 173.761 198.099 173.438 198.135 173.09C198.152 172.926 198.134 172.761 198.083 172.604C198.032 172.448 197.949 172.304 197.838 172.183C197.728 172.062 197.593 171.965 197.443 171.9C197.293 171.835 197.131 171.803 196.967 171.806Z" fill="#263238"/>
<path d="M208.477 171.806H201.899C201.552 171.812 201.219 171.946 200.964 172.183C200.709 172.419 200.549 172.742 200.514 173.09C200.496 173.253 200.513 173.418 200.563 173.575C200.614 173.731 200.696 173.874 200.806 173.996C200.916 174.118 201.051 174.214 201.201 174.279C201.35 174.344 201.512 174.376 201.676 174.374H208.228C208.575 174.367 208.908 174.233 209.163 173.997C209.418 173.76 209.578 173.437 209.612 173.09C209.63 172.929 209.614 172.765 209.565 172.611C209.517 172.456 209.436 172.314 209.329 172.193C209.222 172.072 209.091 171.975 208.944 171.908C208.797 171.841 208.638 171.806 208.477 171.806V171.806Z" fill="#263238"/>
<path d="M217.16 230.003C213.155 231.538 209.54 233.95 206.576 237.065C204.776 235.659 202.63 234.771 200.368 234.497L200.068 234.452L199.94 235.967L200.106 236.031C202.587 236.951 204.686 238.689 206.059 240.962L206.276 241.321L206.512 240.936C209.154 236.692 212.883 233.241 217.307 230.947L217.454 230.87L217.536 229.868L217.16 230.003Z" fill="#263238"/>
<path opacity="0.2" d="M160.148 103.6C159.335 105.028 158.835 106.615 158.681 108.254L149.181 217.535H178.58L184.488 194.751L182.542 171.96L188.45 149.175L186.536 126.391L192.444 103.6H160.148Z" fill="black"/>
<path d="M183.952 119.971L189.86 97.1796H115.514L109.612 119.971L111.552 142.755L105.65 165.54L107.59 188.331L101.688 211.115H176.028L181.936 188.331L179.99 165.54L185.898 142.755L183.952 119.971Z" fill="#00D9DE"/>
<path opacity="0.7" d="M183.952 119.971L189.86 97.1796H115.514L109.612 119.971L111.552 142.755L105.65 165.54L107.59 188.331L101.688 211.115H176.028L181.936 188.331L179.99 165.54L185.898 142.755L183.952 119.971Z" fill="white"/>
<path opacity="0.5" d="M183.952 119.971H109.612L115.514 97.1796H189.86L183.952 119.971Z" fill="white"/>
<path opacity="0.5" d="M179.99 165.54H105.65L111.552 142.755H185.898L179.99 165.54Z" fill="white"/>
<path opacity="0.5" d="M176.028 211.115H101.682L107.59 188.331H181.936L176.028 211.115Z" fill="white"/>
<path opacity="0.2" d="M174.006 129.491C173.243 129.713 172.452 129.821 171.658 129.812C170.581 129.86 169.509 129.64 168.538 129.17C168.362 129.066 168.162 129.01 167.957 129.01V129.01C167.77 129.013 167.586 129.061 167.422 129.151H167.383C167.098 129.312 166.794 129.435 166.477 129.517C165.763 129.707 165.027 129.8 164.289 129.793C164.066 129.793 163.849 129.793 163.651 129.793C163.078 129.756 162.511 129.655 161.96 129.491C161.879 129.467 161.796 129.452 161.711 129.446C161.571 129.435 161.43 129.453 161.297 129.499C161.164 129.545 161.041 129.618 160.938 129.714C160.834 129.81 160.751 129.926 160.694 130.056C160.638 130.186 160.608 130.326 160.608 130.467V130.467V131.161H131.668C131.136 131.161 130.61 131.266 130.119 131.471C129.627 131.676 129.181 131.976 128.806 132.355C128.43 132.734 128.132 133.183 127.929 133.678C127.726 134.172 127.622 134.702 127.623 135.237V139.34C127.621 139.875 127.725 140.406 127.927 140.901C128.13 141.397 128.428 141.847 128.803 142.226C129.179 142.605 129.626 142.906 130.117 143.112C130.609 143.317 131.136 143.423 131.668 143.423H164.544H164.761C165.112 143.718 165.482 144.013 165.878 144.315C166.273 144.617 166.835 145.034 167.351 145.407C167.528 145.535 167.74 145.604 167.957 145.604C168.175 145.604 168.387 145.535 168.564 145.407C172.698 142.389 175.352 140.309 175.352 134.595V130.486C175.354 130.322 175.317 130.16 175.244 130.013C175.171 129.866 175.064 129.738 174.933 129.641C174.801 129.544 174.648 129.479 174.487 129.453C174.326 129.427 174.161 129.44 174.006 129.491V129.491Z" fill="black"/>
<path d="M163.913 128.907H131.043C128.806 128.907 126.992 130.732 126.992 132.984V137.086C126.992 139.338 128.806 141.163 131.043 141.163H163.913C166.15 141.163 167.964 139.338 167.964 137.086V132.984C167.964 130.732 166.15 128.907 163.913 128.907Z" fill="#00D9DE"/>
<path d="M171.026 127.553C169.95 127.599 168.879 127.378 167.907 126.911C167.734 126.804 167.535 126.747 167.332 126.747C167.13 126.747 166.931 126.804 166.758 126.911C165.784 127.379 164.711 127.6 163.632 127.553C162.838 127.561 162.047 127.453 161.284 127.232C161.13 127.18 160.967 127.165 160.806 127.189C160.646 127.214 160.494 127.276 160.362 127.372C160.231 127.467 160.123 127.593 160.05 127.738C159.976 127.883 159.938 128.044 159.938 128.207V132.316C159.938 138.036 162.592 140.116 166.726 143.134C166.903 143.262 167.115 143.331 167.332 143.331C167.55 143.331 167.762 143.262 167.939 143.134C172.073 140.116 174.727 138.036 174.727 132.316V128.207C174.726 128.044 174.687 127.883 174.612 127.738C174.538 127.593 174.43 127.467 174.298 127.372C174.166 127.277 174.014 127.214 173.853 127.19C173.692 127.166 173.528 127.18 173.374 127.232C172.611 127.453 171.82 127.562 171.026 127.553V127.553Z" fill="#00D9DE"/>
<path opacity="0.3" d="M171.026 127.553C169.95 127.599 168.879 127.378 167.907 126.911C167.734 126.804 167.535 126.747 167.332 126.747C167.13 126.747 166.931 126.804 166.758 126.911C165.784 127.379 164.711 127.6 163.632 127.553C162.838 127.561 162.047 127.453 161.284 127.232C161.13 127.18 160.967 127.165 160.806 127.189C160.646 127.214 160.494 127.276 160.362 127.372C160.231 127.467 160.123 127.593 160.05 127.738C159.976 127.883 159.938 128.044 159.938 128.207V132.316C159.938 138.036 162.592 140.116 166.726 143.134C166.903 143.262 167.115 143.331 167.332 143.331C167.55 143.331 167.762 143.262 167.939 143.134C172.073 140.116 174.727 138.036 174.727 132.316V128.207C174.726 128.044 174.687 127.883 174.612 127.738C174.538 127.593 174.43 127.467 174.298 127.372C174.166 127.277 174.014 127.214 173.853 127.19C173.692 127.166 173.528 127.18 173.374 127.232C172.611 127.453 171.82 127.562 171.026 127.553V127.553Z" fill="white"/>
<path opacity="0.2" d="M166.758 126.898C165.784 127.366 164.711 127.587 163.632 127.54C162.838 127.548 162.047 127.44 161.284 127.219C161.13 127.167 160.967 127.152 160.806 127.177C160.646 127.201 160.494 127.264 160.362 127.359C160.231 127.454 160.123 127.58 160.05 127.725C159.976 127.87 159.938 128.031 159.938 128.195V132.303C159.938 138.024 162.592 140.104 166.726 143.121C166.911 143.256 167.136 143.326 167.364 143.32V126.731C167.151 126.727 166.94 126.785 166.758 126.898V126.898Z" fill="white"/>
<path d="M173.259 131.199C170.772 132.18 168.557 133.75 166.803 135.777C165.579 134.869 164.145 134.292 162.637 134.101H162.439V135.083L162.547 135.122C164.225 135.731 165.671 136.853 166.682 138.332L166.841 138.563L166.975 138.312C168.442 135.57 170.676 133.32 173.4 131.841L173.496 131.796V131.154L173.259 131.199Z" fill="#263238"/>
<path d="M188.546 103.593H185.726C185.363 103.6 185.003 103.529 184.67 103.384C184.336 103.24 184.038 103.026 183.793 102.756C183.548 102.486 183.364 102.167 183.252 101.82C183.139 101.473 183.102 101.106 183.142 100.743L183.391 97.905C183.467 97.1333 183.823 96.4167 184.39 95.8912C184.956 95.3657 185.695 95.068 186.466 95.0545H189.286C189.649 95.0468 190.01 95.1173 190.344 95.2612C190.678 95.4051 190.978 95.6192 191.223 95.889C191.468 96.1589 191.653 96.4783 191.766 96.826C191.879 97.1737 191.916 97.5416 191.876 97.905L191.627 100.743C191.542 101.512 191.182 102.224 190.616 102.748C190.05 103.271 189.315 103.572 188.546 103.593V103.593Z" fill="#00D9DE"/>
<path d="M189.72 97.8985L189.107 97.218L187.563 98.6433L186.274 97.218L185.541 97.8985L186.836 99.3238L185.298 100.749L185.911 101.423L187.448 99.9979L188.744 101.423L189.471 100.749L188.176 99.3238L189.72 97.8985Z" fill="white"/>
<path d="M125.524 128.073C127.157 129.864 128.714 131.719 130.264 133.587C131.814 135.456 133.314 137.362 134.807 139.275C134.87 139.359 134.845 139.327 134.858 139.352C134.87 139.378 134.858 139.385 134.858 139.391C134.869 139.415 134.884 139.436 134.902 139.455C134.957 139.533 135.026 139.599 135.106 139.65C135.186 139.7 135.275 139.735 135.368 139.75C135.44 139.76 135.513 139.76 135.585 139.75C135.623 139.754 135.662 139.754 135.7 139.75H135.757C135.789 139.75 135.757 139.75 135.859 139.712L137.454 138.839C139.598 137.696 141.761 136.579 143.994 135.577L145.863 137.908C144.064 139.571 142.188 141.657 140.293 143.185L138.864 144.315C138.776 144.388 138.682 144.455 138.584 144.514C138.475 144.592 138.362 144.662 138.245 144.726C138.015 144.86 137.776 144.98 137.531 145.086C137.037 145.295 136.518 145.439 135.987 145.516C134.914 145.674 133.818 145.564 132.797 145.195C132.278 145.009 131.784 144.757 131.33 144.444C131.1 144.289 130.883 144.11 130.692 143.936C130.583 143.846 130.494 143.744 130.392 143.647L130.136 143.391C128.446 141.644 126.781 139.885 125.147 138.094C123.514 136.303 121.9 134.499 120.356 132.624L125.524 128.073Z" fill="#B55B52"/>
<path d="M143.152 136.99L144.638 132.181L148.556 134.146C148.556 134.146 147.982 137.651 145.136 138.261L143.152 136.99Z" fill="#B55B52"/>
<path d="M146.201 130.852L149.736 131.828L148.549 134.146L144.632 132.181L146.201 130.852Z" fill="#B55B52"/>
<path d="M104.929 129.382C104.508 131.424 103.985 133.446 103.443 135.462C102.9 137.478 102.307 139.474 101.688 141.471L101.458 142.222L101.343 142.595C101.328 142.648 101.307 142.7 101.28 142.749C101.207 142.955 101.166 143.172 101.158 143.391C101.145 143.857 101.274 144.317 101.529 144.707C101.654 144.878 101.793 145.039 101.943 145.188L102.473 145.772L103.519 146.947C104.202 147.743 104.891 148.54 105.542 149.374L103.315 151.942C102.396 151.416 101.516 150.844 100.635 150.279L99.3274 149.406L98.6894 148.963C98.4725 148.809 98.2938 148.706 97.9429 148.418C96.6946 147.347 95.8333 145.891 95.493 144.277C95.3218 143.454 95.2809 142.609 95.3718 141.773C95.3718 141.567 95.4356 141.336 95.4675 141.131L95.5377 140.746L95.6717 139.975C96.0289 137.914 96.4117 135.86 96.8392 133.818C97.2667 131.777 97.726 129.742 98.2683 127.732L104.929 129.382Z" fill="#B55B52"/>
<path d="M103.36 149.169L105.988 147.814L107.15 152.308C107.15 152.308 105.038 153.123 103.405 152.077L103.36 149.169Z" fill="#B55B52"/>
<path d="M109.625 146.37L109.746 150.504L106.805 152.437L105.784 147.898L109.625 146.37Z" fill="#B55B52"/>
<path d="M118.231 108.158C118.295 108.472 118.519 108.697 118.723 108.658C118.927 108.62 119.048 108.325 118.984 108.016C118.92 107.708 118.697 107.477 118.493 107.516C118.289 107.554 118.168 107.856 118.231 108.158Z" fill="#263238"/>
<path d="M118.487 108.703C119.061 109.599 119.755 110.411 120.548 111.117C120.363 111.317 120.137 111.475 119.886 111.578C119.635 111.681 119.364 111.727 119.093 111.714L118.487 108.703Z" fill="#A02724"/>
<path d="M116.719 106.63C116.683 106.629 116.647 106.618 116.616 106.598C116.585 106.577 116.561 106.549 116.546 106.515C116.532 106.481 116.527 106.443 116.533 106.407C116.538 106.37 116.555 106.336 116.579 106.309C116.779 106.081 117.029 105.905 117.31 105.793C117.59 105.681 117.893 105.638 118.193 105.667C118.218 105.671 118.241 105.681 118.263 105.695C118.284 105.708 118.302 105.726 118.316 105.747C118.33 105.768 118.34 105.792 118.345 105.816C118.351 105.841 118.351 105.867 118.346 105.891C118.342 105.916 118.334 105.94 118.321 105.961C118.308 105.982 118.29 106 118.27 106.015C118.25 106.029 118.227 106.039 118.203 106.044C118.179 106.05 118.154 106.05 118.129 106.046C117.891 106.023 117.651 106.057 117.429 106.147C117.207 106.236 117.01 106.377 116.853 106.559C116.819 106.599 116.771 106.624 116.719 106.63V106.63Z" fill="#263238"/>
<path d="M109.031 112.632C109.733 115.579 110.441 120.978 107.928 122.937C107.928 122.937 108.91 125.928 115.584 125.928C122.921 125.928 119.093 124.002 119.093 124.002C115.086 123.219 115.188 119.72 115.903 117.428L109.031 112.632Z" fill="#B55B52"/>
<path d="M107.143 123.482C106.709 122.667 106.224 121.73 107.219 121.434C108.317 121.113 115.354 120.516 117.427 121.12C116.789 122.256 117.868 123.688 117.868 123.688L107.143 123.482Z" fill="#263238"/>
<path d="M112.975 261.243H117.575L118.034 251.921H113.428L112.975 261.243Z" fill="#B55B52"/>
<path d="M83.7603 259.959L88.424 260.209L91.2568 251.022L86.593 250.772L83.7603 259.959Z" fill="#B55B52"/>
<path d="M88.2838 259.837L83.888 258.88C83.811 258.862 83.7303 258.872 83.6595 258.907C83.5886 258.942 83.5319 259.001 83.4988 259.073L81.974 262.405C81.9364 262.486 81.9178 262.574 81.9195 262.663C81.9213 262.753 81.9433 262.84 81.984 262.92C82.0247 262.999 82.0828 263.068 82.1541 263.121C82.2254 263.174 82.3078 263.21 82.395 263.226C83.9326 263.535 84.6982 263.605 86.6314 264.029C87.818 264.286 90.504 264.947 92.1437 265.313C93.7833 265.679 94.3512 264.087 93.7132 263.791C90.8422 262.475 89.6427 261.313 88.8644 260.228C88.7247 260.031 88.5182 259.892 88.2838 259.837V259.837Z" fill="#263238"/>
<path d="M117.332 260.774H112.962C112.883 260.775 112.806 260.803 112.745 260.853C112.684 260.903 112.641 260.972 112.624 261.05L111.833 264.626C111.812 264.712 111.812 264.803 111.831 264.889C111.851 264.976 111.89 265.057 111.945 265.127C112 265.196 112.071 265.252 112.151 265.29C112.231 265.327 112.318 265.346 112.407 265.345C113.983 265.345 116.235 265.223 118.244 265.223C120.56 265.223 122.557 265.351 125.262 265.351C126.902 265.351 127.362 263.682 126.672 263.528C123.54 262.841 120.988 262.764 118.283 261.088C118 260.899 117.671 260.79 117.332 260.774V260.774Z" fill="#263238"/>
<path d="M99.5893 124.298C96.1186 125.96 95.1743 136.04 95.1743 136.04L103.768 140.033C105.221 137.568 106.012 134.765 106.065 131.899C106.237 126.692 103.143 122.622 99.5893 124.298Z" fill="#263238"/>
<path opacity="0.4" d="M104.234 130.512C102.683 132.939 102.83 136.688 103.366 139.853L103.749 140.033C105.2 137.567 105.991 134.764 106.046 131.899C106.046 131.591 106.046 131.257 106.046 130.981L104.234 130.512Z" fill="black"/>
<path d="M123.572 124.054C123.572 124.054 127.834 128.894 123.808 158.85H102.416C102.269 155.544 104.33 139.423 101.14 123.848C103.504 123.391 105.895 123.086 108.298 122.937C111.328 122.763 114.366 122.763 117.396 122.937C119.48 123.149 121.545 123.522 123.572 124.054V124.054Z" fill="#00D9DE"/>
<path opacity="0.6" d="M123.572 124.054C123.572 124.054 127.834 128.894 123.808 158.85H102.416C102.269 155.544 104.33 139.423 101.14 123.848C103.504 123.391 105.895 123.086 108.298 122.937C111.328 122.763 114.366 122.763 117.396 122.937C119.48 123.149 121.545 123.522 123.572 124.054V124.054Z" fill="#FAFAFA"/>
<path opacity="0.2" d="M125.441 133.209L125.364 133.138L121.109 130.852C120.675 137.446 123.603 141.58 125.345 143.384C125.563 139.997 125.595 136.6 125.441 133.209V133.209Z" fill="black"/>
<path opacity="0.2" d="M118.034 251.921L117.798 256.729H113.191L113.427 251.921H118.034Z" fill="black"/>
<path opacity="0.2" d="M86.5929 250.778L91.2566 251.022L89.7956 255.76L85.1318 255.51L86.5929 250.778Z" fill="black"/>
<path d="M107.551 109.641C108.579 113.493 108.987 115.81 111.379 117.415C114.939 119.829 119.367 117.056 119.508 112.966C119.629 109.288 117.932 103.593 113.817 102.816C112.908 102.635 111.969 102.692 111.088 102.981C110.207 103.269 109.415 103.78 108.787 104.465C108.158 105.149 107.715 105.984 107.498 106.891C107.282 107.797 107.3 108.744 107.551 109.641V109.641Z" fill="#B55B52"/>
<path d="M116.222 158.85C116.222 158.85 111.679 189.608 109.204 201.139C106.461 213.786 91.8249 255.516 91.8249 255.516L84.6602 253.956C84.6602 253.956 93.841 219.93 96.1442 202.288C97.0374 195.399 98.1156 184.312 99.4809 175.048C100.802 166.06 102.428 158.857 102.428 158.857L116.222 158.85Z" fill="#263238"/>
<path d="M93.5408 253.108L92.201 255.715L84.1494 253.956L84.8257 251.523L93.5408 253.108Z" fill="#00D9DE"/>
<path opacity="0.6" d="M93.5408 253.108L92.201 255.715L84.1494 253.956L84.8257 251.523L93.5408 253.108Z" fill="white"/>
<path opacity="0.6" d="M113.351 169.809C108.1 170.843 108.655 190.546 109.287 200.676C110.805 193.512 113.019 179.734 114.531 169.95C114.165 169.769 113.749 169.719 113.351 169.809V169.809Z" fill="black"/>
<path d="M123.808 158.85C123.808 158.85 125.945 188.947 125.511 201.222C125.058 213.991 119.042 255.792 119.042 255.792H112.266C112.266 255.792 112.017 214.704 111.718 202.191C111.386 188.517 109.746 158.844 109.746 158.844L123.808 158.85Z" fill="#263238"/>
<path d="M120.343 253.083C120.375 253.083 119.96 255.914 119.96 255.914H111.717L111.494 253.385L120.343 253.083Z" fill="#00D9DE"/>
<path opacity="0.6" d="M120.343 253.083C120.375 253.083 119.96 255.914 119.96 255.914H111.717L111.494 253.385L120.343 253.083Z" fill="white"/>
<path d="M121.077 129.684C121.077 137.76 125.345 141.086 125.345 141.086L132.306 134.268C130.658 131.497 128.782 128.871 126.698 126.416C122.672 121.775 121.077 124.497 121.077 129.684Z" fill="#263238"/>
<path opacity="0.2" d="M119.24 114.43C119.098 114.835 118.859 115.198 118.546 115.489C118.232 115.78 117.853 115.99 117.44 116.099C116.987 116.192 116.575 116.43 116.266 116.777C115.957 117.124 115.767 117.561 115.724 118.025V118.025C116.55 117.747 117.299 117.277 117.91 116.652C118.521 116.027 118.977 115.266 119.24 114.43V114.43Z" fill="black"/>
<path d="M117.44 101.969C118.87 100.152 116.668 100.043 116.668 100.043C117.243 97.8793 114.665 99.0413 114.665 99.0413C113.121 96.897 112.247 99.51 112.247 99.51C110.646 97.6931 110.333 100.659 110.333 100.659C108.725 98.3544 107.909 101.68 107.909 101.68C106.429 99.2853 105.523 102.399 105.523 102.399C102.467 101.301 103.915 104.498 103.915 104.498C101.312 104.569 103.404 106.604 103.404 106.604C100.278 106.604 103.034 108.408 103.034 108.408C100.553 110.045 103.672 110.488 103.672 110.488C101.65 113.698 105.127 112.491 105.127 112.491C103.717 115.65 106.837 114.257 106.837 114.257C106.639 117.3 108.381 116.472 109.223 115.907C109.382 116.549 109.689 117.191 110.25 117.242C111.341 117.39 111.526 115.316 111.526 115.316C111.526 115.316 112.534 116.112 113.383 115.682C114.231 115.252 113.912 114.167 113.912 114.167C114.096 114.305 114.32 114.38 114.55 114.38C114.78 114.38 115.004 114.305 115.188 114.167C115.552 113.884 115.552 111.843 115.093 111.124L116.751 110.482C116.751 110.482 117.983 110.308 117.434 108.671C117.103 107.73 117.074 106.709 117.351 105.75C119.227 104.864 117.683 103.824 117.683 103.824C119.858 102.418 117.44 101.969 117.44 101.969Z" fill="#263238"/>
<path d="M114.078 109.782C114.338 110.74 114.905 111.584 115.692 112.183C116.732 112.966 117.51 112.183 117.434 111.008C117.37 109.942 116.745 108.254 115.596 107.933C114.448 107.612 113.804 108.646 114.078 109.782Z" fill="#B55B52"/>
</svg>
