<svg width="73" height="25" viewBox="0 0 73 25" fill="none" xmlns="http://www.w3.org/2000/svg">
<path fill-rule="evenodd" clip-rule="evenodd" d="M2 5.5H22V13.2498H2V5.5Z" fill="#E70011"/>
<path fill-rule="evenodd" clip-rule="evenodd" d="M2 12.9697H22V20.4394H2V12.9697Z" fill="#F8FAFC"/>
<path d="M36.4886 16.1364V8.27273H38.2727V16.1364H36.4886ZM33.4489 13.0966V11.3125H41.3125V13.0966H33.4489ZM48.0611 18.1591C47.5043 18.1553 46.9607 18.0587 46.4304 17.8693C45.9001 17.6761 45.4228 17.3636 44.9986 16.9318C44.5743 16.4962 44.2372 15.9186 43.9872 15.1989C43.7372 14.4754 43.6141 13.5795 43.6179 12.5114C43.6179 11.5152 43.724 10.6269 43.9361 9.84659C44.1482 9.06629 44.4531 8.4072 44.8509 7.86932C45.2486 7.32765 45.7277 6.91477 46.2884 6.63068C46.8527 6.34659 47.4834 6.20455 48.1804 6.20455C48.9115 6.20455 49.5592 6.34848 50.1236 6.63636C50.6918 6.92424 51.1501 7.31818 51.4986 7.81818C51.8471 8.31439 52.063 8.875 52.1463 9.5H50.0724C49.9664 9.05303 49.7486 8.69697 49.419 8.43182C49.0933 8.16288 48.6804 8.02841 48.1804 8.02841C47.3736 8.02841 46.7524 8.37879 46.3168 9.07955C45.8849 9.7803 45.6671 10.7424 45.6634 11.9659H45.7429C45.9285 11.6326 46.169 11.3466 46.4645 11.108C46.7599 10.8693 47.0933 10.6856 47.4645 10.5568C47.8395 10.4242 48.2353 10.358 48.652 10.358C49.3338 10.358 49.9455 10.5208 50.4872 10.8466C51.0327 11.1723 51.4645 11.6212 51.7827 12.1932C52.1009 12.7614 52.258 13.4129 52.2543 14.1477C52.258 14.9129 52.0838 15.6004 51.7315 16.2102C51.3793 16.8163 50.8887 17.2936 50.2599 17.642C49.6312 17.9905 48.8982 18.1629 48.0611 18.1591ZM48.0497 16.4545C48.4626 16.4545 48.8319 16.3542 49.1577 16.1534C49.4834 15.9527 49.741 15.6818 49.9304 15.3409C50.1198 15 50.2126 14.6174 50.2088 14.1932C50.2126 13.7765 50.1217 13.3996 49.9361 13.0625C49.7543 12.7254 49.5024 12.4583 49.1804 12.2614C48.8584 12.0644 48.491 11.9659 48.0781 11.9659C47.7713 11.9659 47.4853 12.0246 47.2202 12.142C46.955 12.2595 46.724 12.4223 46.527 12.6307C46.33 12.8352 46.1747 13.0739 46.0611 13.3466C45.9512 13.6155 45.8944 13.9034 45.8906 14.2102C45.8944 14.6155 45.9891 14.9886 46.1747 15.3295C46.3603 15.6705 46.616 15.9432 46.9418 16.1477C47.2675 16.3523 47.6368 16.4545 48.0497 16.4545ZM54.1747 18V16.4773L58.2145 12.517C58.6009 12.1269 58.9228 11.7803 59.1804 11.4773C59.438 11.1742 59.6312 10.8807 59.7599 10.5966C59.8887 10.3125 59.9531 10.0095 59.9531 9.6875C59.9531 9.32008 59.8698 9.00568 59.7031 8.74432C59.5365 8.47917 59.3073 8.27462 59.0156 8.13068C58.724 7.98674 58.3925 7.91477 58.0213 7.91477C57.6387 7.91477 57.3035 7.99432 57.0156 8.15341C56.7277 8.30871 56.5043 8.5303 56.3452 8.81818C56.1899 9.10606 56.1122 9.44886 56.1122 9.84659H54.1065C54.1065 9.10795 54.2751 8.46591 54.6122 7.92045C54.9493 7.375 55.4134 6.95265 56.0043 6.65341C56.599 6.35417 57.2808 6.20455 58.0497 6.20455C58.83 6.20455 59.5156 6.35038 60.1065 6.64205C60.6974 6.93371 61.1558 7.33333 61.4815 7.84091C61.8111 8.34848 61.9759 8.92803 61.9759 9.57955C61.9759 10.0152 61.8925 10.4432 61.7259 10.8636C61.5592 11.2841 61.2656 11.75 60.8452 12.2614C60.4285 12.7727 59.8433 13.392 59.0895 14.1193L57.0838 16.1591V16.2386H62.152V18H54.1747Z" fill="#18181B"/>
<path d="M72 2.49976V22.5" stroke="#18181B" stroke-width="2"/>
</svg>
