<svg width="252" height="226" viewBox="0 0 252 226" fill="none" xmlns="http://www.w3.org/2000/svg">
<path d="M174.752 84.8403H154.194V188.267H174.752V84.8403Z" fill="#9DD6FF"/>
<path d="M239.632 84.8403H174.631V188.267H239.632V84.8403Z" fill="#E5FCF6"/>
<path d="M236.548 88.0676H179.883V133.222H236.548V88.0676Z" fill="#003D3F"/>
<path d="M236.548 138.045H179.883V183.2H236.548V138.045Z" fill="#003D3F"/>
<path d="M186.279 119.658V132.531H207.27H230.424V119.658H186.279Z" fill="#E5FCF6"/>
<path d="M184.429 116.06V119.658H231.966V116.06H207.27H184.429Z" fill="#E5FCF6"/>
<path d="M208.197 132.531H230.424V119.658H231.966V116.06H207.27V119.323L208.197 132.531Z" fill="#E5FCF6"/>
<path d="M201.404 121.733H192.453V123.672H201.404V121.733Z" fill="#FAFAFA"/>
<path d="M202.795 126.094H191.298V130.185H202.795V126.094Z" fill="#FAFAFA"/>
<path d="M232.344 119.622C232.344 119.73 221.669 119.821 208.505 119.821C195.341 119.821 184.666 119.73 184.666 119.622C184.666 119.513 195.335 119.427 208.505 119.427C221.674 119.427 232.344 119.513 232.344 119.622Z" fill="#003D3F"/>
<path d="M208.792 132.481C208.671 132.481 208.57 129.629 208.57 126.108C208.57 122.587 208.671 119.73 208.792 119.73C208.913 119.73 209.009 122.587 209.009 126.108C209.009 129.629 208.913 132.481 208.792 132.481Z" fill="#003D3F"/>
<path d="M186.273 169.916V182.789H207.265H230.419V169.916H186.273Z" fill="#9DD6FF"/>
<path d="M184.419 166.318V169.916H231.961V166.318H207.265H184.419Z" fill="#9DD6FF"/>
<path d="M208.187 182.789H230.419V169.916H231.961V166.318H207.265V169.586L208.187 182.789Z" fill="#9DD6FF"/>
<path d="M201.399 171.99H192.448V173.93H201.399V171.99Z" fill="#FAFAFA"/>
<path d="M202.789 176.352H191.293V180.443H202.789V176.352Z" fill="#FAFAFA"/>
<path d="M232.344 169.88C232.344 169.988 221.669 170.079 208.505 170.079C195.341 170.079 184.666 169.988 184.666 169.88C184.666 169.771 195.335 169.685 208.505 169.685C221.674 169.685 232.344 169.771 232.344 169.88Z" fill="#003D3F"/>
<path d="M208.787 182.744C208.666 182.744 208.565 179.887 208.565 176.366C208.565 172.845 208.666 169.993 208.787 169.993C208.908 169.993 209.004 172.845 209.004 176.366C209.004 179.887 208.908 182.744 208.787 182.744Z" fill="#003D3F"/>
<path d="M190.351 105.881V116.06H206.943H225.248V105.881H190.351Z" fill="#9DD6FF"/>
<path d="M188.884 103.038V105.881H226.468V103.038H206.943H188.884Z" fill="#9DD6FF"/>
<path d="M207.678 116.06H225.248V105.881H226.468V103.038H206.943V105.619L207.678 116.06Z" fill="#9DD6FF"/>
<path d="M202.306 107.522H195.229V109.054H202.306V107.522Z" fill="#FAFAFA"/>
<path d="M203.405 110.97H194.317V114.207H203.405V110.97Z" fill="#FAFAFA"/>
<path d="M226.75 105.854C226.75 105.962 218.313 106.048 207.905 106.048C197.498 106.048 189.056 105.962 189.056 105.854C189.056 105.745 197.493 105.655 207.905 105.655C218.318 105.655 226.75 105.768 226.75 105.854Z" fill="#003D3F"/>
<path d="M208.152 116.019C208.031 116.019 207.93 113.759 207.93 110.979C207.93 108.2 208.031 105.94 208.152 105.94C208.273 105.94 208.369 108.2 208.369 110.979C208.369 113.759 208.268 116.019 208.152 116.019Z" fill="#003D3F"/>
<path d="M226.649 115.97C226.649 116.078 218.524 116.169 208.505 116.169C198.485 116.169 190.361 116.078 190.361 115.97C190.361 115.861 198.48 115.775 208.505 115.775C218.529 115.775 226.649 115.861 226.649 115.97Z" fill="#003D3F"/>
<path d="M203.813 83.6109L201.262 83.29V74.1144L203.813 74.4353V83.6109Z" fill="#003D3F"/>
<path d="M202.714 74.6975C188.788 74.6975 177.458 64.645 177.458 52.2873C177.47 48.2751 178.684 44.3394 180.972 40.8917C183.261 37.444 186.54 34.6109 190.467 32.6886L190.749 32.5485L192.437 34.6457L191.848 35.0254L190.537 33.3937C186.799 35.2816 183.686 38.0251 181.516 41.3443C179.345 44.6635 178.196 48.4396 178.184 52.2873C178.184 64.2879 189.187 74.0511 202.714 74.0511C208.308 74.05 213.737 72.3501 218.116 69.2283L217.108 68.3243L217.612 67.8723L219.205 69.2825L218.897 69.513C213.192 73.7121 208.822 74.6975 202.714 74.6975Z" fill="#003D3F"/>
<path d="M213.484 83.29H191.112V84.8404H213.484V83.29Z" fill="#003D3F"/>
<path d="M225.529 52.0433C225.529 62.8015 215.853 71.6076 203.808 71.6076C191.762 71.6076 182.086 62.8015 182.086 52.0433C182.086 41.285 191.762 32.479 203.808 32.479C215.853 32.479 225.529 41.285 225.529 52.0433Z" fill="#E5FCF6" stroke="#003D3F"/>
<path d="M195.582 60.9838C195.698 60.1114 196.454 59.2255 196.021 58.439C195.517 57.5576 194.106 57.6977 193.108 57.3045C191.707 56.753 191.273 55.1982 190.361 54.0953C189.539 53.1099 187.629 52.0296 186.173 52.328C185.771 52.3811 185.401 52.5564 185.126 52.8246C184.85 53.0929 184.686 53.4377 184.661 53.8015H184.53C184.136 53.7653 183.683 53.7472 183.466 53.458C183.249 53.1687 183.466 52.6172 183.209 52.2873C183.048 52.1356 182.859 52.0102 182.65 51.9166C182.463 51.7946 182.302 51.5686 182.418 51.3833C182.534 51.198 182.756 51.198 182.882 51.0578C182.93 51.0016 182.957 50.9324 182.957 50.8612C182.957 50.79 182.93 50.7209 182.882 50.6646C182.483 50.2126 182.035 51.1166 181.813 51.311C181.758 51.3643 181.699 51.4141 181.637 51.4601C181.634 51.4963 181.634 51.5325 181.637 51.5686C181.637 51.6861 181.637 51.8082 181.637 51.9302C181.637 52.0522 181.637 52.1698 181.637 52.2873C181.637 52.4048 181.637 52.4816 181.637 52.5811C181.637 52.6805 181.637 52.7754 181.637 52.8704C181.876 52.9502 182.106 53.0516 182.322 53.1732C182.75 53.3992 183.234 53.693 183.265 54.1405C183.253 54.2138 183.269 54.2885 183.31 54.3529C183.362 54.4076 183.436 54.4416 183.517 54.4478C183.887 54.5263 184.265 54.5732 184.646 54.588C184.646 54.9902 184.681 55.4106 184.676 55.8084C184.586 56.3775 184.535 56.9512 184.525 57.526C184.625 58.3305 185.25 58.995 185.795 59.6458C187.871 62.1273 188.99 64.9794 190.2 67.8948C190.426 68.0576 190.749 68.27 190.981 68.4192C191.213 68.5683 191.329 68.6406 191.52 68.7536C191.712 68.8666 191.873 68.9616 192.064 69.07C192.256 69.1785 192.226 69.1695 192.362 69.2418C192.362 69.2056 192.362 69.2418 192.362 69.2418C191.858 68.2836 191.858 66.9502 192.921 66.4756C193.133 66.4053 193.333 66.3095 193.516 66.1908C193.985 65.7976 193.602 64.9749 194.07 64.5772C194.332 64.3602 194.746 64.3738 195.078 64.2427C195.668 63.9986 195.859 63.3387 195.814 62.742C195.672 62.1643 195.594 61.5753 195.582 60.9838Z" fill="#003D3F"/>
<path d="M182.952 46.2983C183.049 46.2134 183.164 46.1469 183.291 46.1028C183.417 46.0588 183.552 46.038 183.687 46.0418C183.823 46.0456 183.956 46.0739 184.079 46.1249C184.202 46.176 184.313 46.2488 184.404 46.339C184.59 46.6527 184.632 47.0195 184.52 47.3605C184.439 47.8125 184.358 48.2916 184.273 48.7572C184.235 48.8965 184.244 49.0426 184.298 49.1775C184.449 49.4759 184.993 49.4171 185.2 49.1504C185.377 48.8624 185.424 48.524 185.331 48.2057C185.232 47.8879 185.232 47.5518 185.331 47.2339C185.684 46.4836 186.929 46.5966 187.654 46.1085C188.056 45.7543 188.369 45.3275 188.572 44.8564C188.676 44.6213 188.85 44.4161 189.074 44.2631C189.299 44.1102 189.566 44.0152 189.847 43.9886C190.038 43.9886 190.225 44.0564 190.411 44.0519C190.546 44.0382 190.674 43.9924 190.782 43.9193C190.889 43.8462 190.974 43.7484 191.025 43.6362C191.077 43.524 191.094 43.4015 191.074 43.2814C191.055 43.1613 191 43.0481 190.915 42.9535C190.823 42.8874 190.74 42.8115 190.668 42.7275C190.629 42.6391 190.625 42.5413 190.657 42.4506C190.69 42.3599 190.756 42.2821 190.845 42.2303C191.024 42.1332 191.226 42.0758 191.434 42.0631L192.856 41.8597C193.36 41.7873 194.055 41.5433 193.98 41.0732C193.904 40.6031 193.299 40.4856 193.208 40.0833C193.201 39.9821 193.181 39.8819 193.148 39.785C193.007 39.5273 192.573 39.6313 192.296 39.785C192.261 39.6953 192.203 39.6142 192.127 39.5479C192.051 39.4815 191.959 39.4318 191.858 39.4025C191.757 39.3732 191.65 39.3652 191.545 39.379C191.44 39.3928 191.34 39.4281 191.253 39.4821C190.971 39.6901 190.935 40.0562 190.835 40.3861C190.523 41.1241 189.989 41.7702 189.292 42.2529C189.1 42.4521 188.836 42.5848 188.546 42.6281C188.254 42.6281 187.947 42.3614 188.078 42.1309C188.174 41.9727 188.426 41.8823 188.4 41.706C188.375 41.5297 187.937 41.5026 187.851 41.2901C188.022 40.6664 188.819 40.3861 189.428 40.0743C190.178 39.6633 190.749 39.035 191.046 38.2934C191.075 38.2357 191.09 38.1734 191.09 38.1103C191.09 38.0473 191.075 37.9849 191.046 37.9273C190.956 37.7691 190.719 37.7465 190.517 37.7465C190.048 37.7465 189.459 37.7962 189.287 38.1985C189.243 38.4209 189.216 38.646 189.207 38.8719C189.04 39.5273 188.037 39.5997 187.428 39.9884C187.215 40.167 186.983 40.3274 186.737 40.4675C186.439 40.5672 186.122 40.6133 185.805 40.6031C185.749 40.6031 185.603 40.6031 185.548 40.6031C185.356 40.8427 185.2 41.0551 185.044 41.3127C184.887 41.5704 184.681 41.8416 184.514 42.0992C183.733 43.3227 183.101 44.6184 182.63 45.9638C182.453 46.4158 182.307 46.9447 182.176 47.4328C182.045 47.921 181.949 48.3775 181.858 48.8792C182.046 48.4761 182.18 48.0542 182.257 47.6227C182.324 47.1256 182.567 46.6612 182.952 46.2983Z" fill="#003D3F"/>
<path d="M201.64 37.2855C201.852 37.0369 201.792 36.6843 201.928 36.3815C202.149 35.9295 202.855 35.7351 203.097 35.2695C203.193 35.0887 203.213 34.8673 203.379 34.7362C203.545 34.6051 203.717 34.6006 203.883 34.5011C203.952 34.4345 204.003 34.3549 204.033 34.268C204.063 34.1812 204.071 34.0895 204.056 33.9996C204.041 33.9098 204.003 33.8241 203.947 33.749C203.89 33.6738 203.815 33.6111 203.727 33.5655C202.855 33.0638 201.252 33.6423 200.501 34.1305C199.534 34.7588 198.586 35.5136 197.296 35.4413C196.949 35.3757 196.59 35.3757 196.243 35.4413C195.91 35.5543 195.703 36.0018 195.991 36.1916C196.147 36.2956 196.374 36.2685 196.555 36.3408C196.705 36.4343 196.81 36.5759 196.847 36.7365C196.885 36.897 196.852 37.0644 196.757 37.2041C196.595 37.4979 196.303 37.7194 196.111 37.9996C195.926 38.2702 195.843 38.5873 195.875 38.9036C195.878 39.0137 195.906 39.1221 195.957 39.2222C196.008 39.3224 196.081 39.4123 196.172 39.4867C196.575 39.776 197.18 39.5319 197.523 39.1839C197.865 38.8358 198.097 38.3929 198.531 38.1578C198.759 38.0505 199.003 37.9743 199.256 37.9318L200.935 37.5747C201.199 37.5507 201.447 37.449 201.64 37.2855Z" fill="#003D3F"/>
<path d="M226.024 51.8896C226.024 51.6003 226.024 51.3201 226.024 51.0353C226.024 50.7505 225.994 50.4658 225.963 50.1855C225.933 49.9053 225.913 49.7335 225.878 49.5075C225.843 49.2815 225.812 48.9968 225.767 48.7663C225.641 48.0894 225.473 47.4194 225.263 46.7594C225.177 46.5017 225.041 46.2215 224.945 45.9684C224.85 45.7153 224.754 45.4576 224.648 45.2045C224.532 45.0147 224.416 44.8293 224.285 44.644C223.05 42.8903 221.261 41.5162 219.9 39.8393C219.457 39.2923 219.114 38.8449 218.328 38.7364C217.169 38.5737 216.584 39.1884 215.757 38.1804C215.541 37.9183 215.153 37.6697 214.825 37.8279L215.082 38.4652C215.095 38.5112 215.095 38.5593 215.082 38.6053C215.082 38.7499 214.82 38.7906 214.679 38.7093C214.553 38.6095 214.449 38.49 214.371 38.3567C214.275 38.2453 214.154 38.1531 214.016 38.0858C213.877 38.0186 213.725 37.9777 213.568 37.9658C213.412 37.9539 213.254 37.9713 213.105 38.0168C212.956 38.0623 212.819 38.1349 212.703 38.2301C212.69 38.1324 212.648 38.0395 212.583 37.9604C212.517 37.8812 212.43 37.8185 212.33 37.7781C212.314 37.8729 212.275 37.9634 212.216 38.0438C212.158 38.1242 212.081 38.1927 211.991 38.2447C211.901 38.2967 211.8 38.3312 211.695 38.3458C211.589 38.3604 211.481 38.3549 211.378 38.3296C211.307 38.1397 211.69 38.1036 211.826 37.9409C211.962 37.7781 211.801 37.5702 211.645 37.4391C211.223 37.1129 210.689 36.9263 210.133 36.9103C209.778 36.9511 209.418 36.9123 209.085 36.7973C208.908 36.7024 208.782 36.5442 208.581 36.4538C208.369 36.3873 208.142 36.369 207.92 36.4005C207.698 36.4321 207.489 36.5125 207.31 36.6346C206.74 36.8543 206.282 37.2574 206.025 37.7646C205.834 38.2889 206.257 38.9985 206.872 38.9307C207.022 38.8891 207.179 38.8737 207.336 38.8855C207.439 38.9269 207.527 38.995 207.587 39.0811C207.647 39.1673 207.677 39.2676 207.673 39.3692C207.658 39.5693 207.692 39.77 207.774 39.9568C207.88 40.1331 208.197 40.2235 208.323 40.0562C208.442 39.913 208.521 39.746 208.551 39.5696C208.582 39.3931 208.564 39.2126 208.5 39.0437C208.374 38.7041 208.403 38.3337 208.581 38.0132C208.817 37.7284 209.488 37.8188 209.442 38.1714C209.412 38.3793 209.15 38.533 209.16 38.7454C209.17 38.9579 209.463 39.0709 209.699 39.0618C209.935 39.0222 210.176 39.0116 210.415 39.0302C210.647 39.0799 210.833 39.3556 210.667 39.5093C210.375 39.8076 209.614 39.2969 209.463 39.6675C209.447 39.768 209.447 39.8698 209.463 39.9703C209.437 40.2777 209.004 40.3907 208.661 40.4223C208.324 40.4798 207.977 40.4564 207.653 40.3545C207.574 40.3254 207.502 40.2824 207.441 40.228C207.381 40.1737 207.333 40.1091 207.301 40.038C207.268 39.9669 207.252 39.8907 207.253 39.8139C207.254 39.7371 207.272 39.6612 207.305 39.5907C207.258 39.5682 207.205 39.5549 207.151 39.5516C207.097 39.5484 207.043 39.5553 206.992 39.5719C206.942 39.5885 206.895 39.6144 206.856 39.648C206.817 39.6816 206.787 39.7221 206.766 39.7669C206.692 39.9509 206.678 40.1501 206.726 40.341C206.363 40.2687 206.035 40.5444 205.829 40.8201C205.622 41.0958 205.415 41.4167 205.063 41.5162C204.71 41.6156 204.211 41.48 204.024 41.7693C203.782 42.149 204.483 42.6281 204.236 43.0033C204.095 43.2157 203.757 43.2067 203.49 43.2745C203.324 43.3344 203.175 43.4284 203.057 43.549C202.938 43.6696 202.853 43.8133 202.807 43.9688C202.762 44.1243 202.757 44.2872 202.795 44.4445C202.832 44.6017 202.909 44.749 203.021 44.8745C203.15 44.9899 203.302 45.0814 203.47 45.1438C203.638 45.2063 203.818 45.2384 203.999 45.2384C204.181 45.2384 204.361 45.2063 204.528 45.1438C204.696 45.0814 204.849 44.9899 204.977 44.8745C205.28 44.5113 205.534 44.1167 205.733 43.6993C205.99 43.3151 206.474 42.9581 206.958 43.0846C207.145 43.1495 207.316 43.2462 207.462 43.3694L208.167 43.9027C208.318 44.0157 208.485 44.1604 208.47 44.3547C208.455 44.5491 208.334 44.6033 208.278 44.7389C208.132 45.1186 208.747 45.4802 209.135 45.2723C209.314 45.1503 209.432 44.9696 209.463 44.7697C209.495 44.5698 209.436 44.367 209.301 44.2056C208.933 43.7536 208.107 43.5231 208.127 42.9626C208.55 42.6552 209.216 42.9626 209.463 43.4146C209.709 43.8666 209.715 44.3683 209.921 44.8203C210.128 45.2723 210.672 45.652 211.176 45.426L210.798 44.2598C211.106 44.0519 211.463 44.6576 211.831 44.5581C212.058 44.4949 212.083 44.2011 211.988 44.0067C211.859 43.829 211.756 43.6377 211.68 43.4372C211.676 43.3413 211.695 43.2457 211.737 43.1574C211.779 43.0691 211.842 42.9903 211.922 42.9267C212.003 42.8631 212.097 42.8162 212.2 42.7896C212.303 42.763 212.411 42.7572 212.517 42.7727C212.729 42.8186 212.922 42.9207 213.069 43.0658C213.217 43.2108 213.312 43.3921 213.343 43.5863C213.356 43.7409 213.394 43.8931 213.454 44.0383C213.615 44.3412 214.034 44.4361 214.377 44.5627C214.719 44.6892 215.087 45.0147 214.941 45.3085C214.875 45.4441 214.714 45.5706 214.775 45.7107C214.835 45.8509 215.027 45.887 215.027 46.0181C215.027 46.1492 214.926 46.1673 214.83 46.2034C214.598 46.2893 214.326 46.3164 214.125 46.4159C214.007 46.455 213.905 46.5243 213.832 46.6152C213.758 46.7061 213.716 46.8144 213.711 46.9266C213.736 47.2385 214.155 47.3786 214.356 47.6543C214.486 47.9313 214.579 48.2211 214.634 48.5177C214.778 48.7679 214.957 49.0003 215.168 49.2092C215.747 49.9189 215.889 50.8364 216.176 51.6817C216.302 52.0659 216.534 52.4907 216.972 52.5857C217.214 52.6014 217.455 52.5593 217.673 52.4636C218.319 52.2887 218.91 51.9789 219.396 51.5596C219.631 51.3408 219.774 51.0552 219.798 50.7522C219.823 50.4493 219.729 50.1481 219.532 49.9008C219.481 49.8378 219.406 49.7943 219.321 49.7787C219.201 49.7843 219.086 49.8204 218.988 49.8827C218.822 49.9371 218.642 49.9481 218.469 49.9145C218.296 49.8809 218.137 49.8041 218.01 49.6929C217.759 49.468 217.561 49.2007 217.426 48.9064C217.254 48.5945 217.078 48.2826 216.922 47.9662C217.037 47.9005 217.173 47.871 217.309 47.8825C217.445 47.8939 217.573 47.9456 217.673 48.0295C217.862 48.2017 218.031 48.391 218.177 48.5945C218.753 49.1523 219.548 49.4878 220.394 49.5301C220.608 49.5393 220.819 49.579 221.019 49.6477C221.639 49.9008 221.821 50.7234 222.476 50.8997C222.665 50.9251 222.852 50.9629 223.035 51.0127C223.159 51.0804 223.265 51.1711 223.345 51.2788C223.426 51.3864 223.48 51.5084 223.504 51.6365C223.603 52.1105 223.741 52.5774 223.917 53.0331C224.006 53.2595 224.165 53.4588 224.374 53.6083C224.584 53.7577 224.836 53.8513 225.102 53.8784C225.267 53.878 225.431 53.8473 225.582 53.7882C225.734 53.7292 225.87 53.6429 225.984 53.5349C226.009 53.0829 226.044 52.6309 226.044 52.2105C226.034 52.0704 226.034 51.98 226.024 51.8896Z" fill="#003D3F"/>
<path d="M217.033 60.1566C216.705 60.2154 216.64 60.3916 216.458 60.6086C216.277 60.8256 215.889 61.1781 215.677 61.4629C215.314 61.942 215.642 62.6878 215.173 63.0901C215.066 63.1604 214.963 63.2359 214.865 63.3161C214.779 63.422 214.741 63.5543 214.762 63.6845C214.783 63.8146 214.86 63.9323 214.976 64.0122C215.1 64.084 215.245 64.1222 215.392 64.1222C215.54 64.1222 215.684 64.084 215.808 64.0122C216.055 63.868 216.234 63.6477 216.312 63.3929C216.346 63.2054 216.435 63.0292 216.569 62.8822C216.841 62.6697 217.265 62.8279 217.622 62.7827C219.134 62.6064 218.484 59.9035 217.033 60.1566Z" fill="#003D3F"/>
<path d="M217.552 56.396C218.429 55.718 218.782 54.1812 217.693 53.8241C217.28 53.6885 216.806 53.797 216.398 53.6569C215.863 53.4715 215.611 52.9337 215.42 52.45C214.916 51.1799 214.412 49.9143 213.908 48.6442C213.6 47.8803 213.137 46.9944 212.245 46.8814C211.73 46.8882 211.22 46.9675 210.733 47.1164C208.999 47.4012 206.076 43.636 204.755 46.1717C204.574 45.4802 203.324 45.7197 202.926 46.3525C202.528 46.9853 202.422 47.7763 201.807 48.2012C201.303 48.5221 200.617 48.5447 200.224 48.9515C199.981 49.2675 199.855 49.6436 199.861 50.0273C199.796 50.7505 199.73 51.4782 199.66 52.2014C199.545 52.7815 199.624 53.3791 199.887 53.919C200.209 54.4298 201.051 54.7145 201.535 54.3213C201.723 54.1099 201.892 53.8846 202.039 53.6478C202.188 53.4754 202.39 53.3455 202.62 53.2741C202.85 53.2026 203.098 53.1927 203.334 53.2455C203.728 53.3647 204.078 53.5808 204.342 53.8693C206.6 56.0525 207.411 59.1577 207.512 62.1364C207.485 62.6814 207.567 63.2263 207.754 63.7455C208.016 64.3421 208.565 64.8213 208.732 65.445C208.853 65.9196 208.732 66.4485 208.964 66.8914C209.387 67.7141 210.793 67.7457 211.554 67.1581C212.315 66.5705 212.587 65.6213 212.744 64.7309C212.9 63.8404 212.996 62.8957 213.555 62.1454C213.965 61.7242 214.331 61.2704 214.649 60.7894C214.986 60.0707 214.739 59.2119 215.052 58.4797C215.445 57.5079 216.675 57.0785 217.552 56.396Z" fill="#003D3F"/>
<path d="M94.3288 18.0393H11.0024V136.138H94.3288V18.0393Z" fill="#003D3F"/>
<path d="M91.7988 20.2587H13.2454V134.199H91.7988V20.2587Z" fill="#E5FCF6"/>
<path d="M83.8507 26.894H52.5271V70.4849H83.8507V26.894Z" fill="#FAFAFA"/>
<path d="M69.8544 30.736C69.8544 30.9434 69.7859 31.1462 69.6574 31.3186C69.5289 31.4911 69.3463 31.6255 69.1326 31.7048C68.919 31.7842 68.6839 31.805 68.457 31.7645C68.2302 31.724 68.0219 31.6242 67.8583 31.4775C67.6948 31.3309 67.5835 31.144 67.5383 30.9406C67.4932 30.7372 67.5164 30.5263 67.6049 30.3347C67.6934 30.1431 67.8432 29.9793 68.0355 29.8641C68.2278 29.7489 68.4539 29.6874 68.6852 29.6874C68.9953 29.6874 69.2927 29.7979 69.512 29.9945C69.7312 30.1912 69.8544 30.4579 69.8544 30.736Z" fill="#003D3F"/>
<path d="M52.2801 82.6166H20.9565V126.207H52.2801V82.6166Z" fill="#FAFAFA"/>
<path d="M38.3041 86.4721C38.3051 86.6789 38.2378 86.8814 38.1108 87.054C37.9838 87.2266 37.8027 87.3617 37.5903 87.4423C37.3779 87.5229 37.1437 87.5453 36.9172 87.5068C36.6906 87.4683 36.4818 87.3706 36.317 87.2259C36.1521 87.0812 36.0387 86.8961 35.9909 86.6938C35.9432 86.4914 35.9632 86.2809 36.0484 86.0888C36.1337 85.8966 36.2804 85.7314 36.4701 85.6138C36.6599 85.4962 36.8841 85.4316 37.1147 85.428C37.2695 85.4256 37.4233 85.4508 37.5672 85.5022C37.711 85.5535 37.8421 85.63 37.9528 85.7271C38.0634 85.8242 38.1515 85.9401 38.2118 86.068C38.2721 86.1959 38.3035 86.3333 38.3041 86.4721Z" fill="#003D3F"/>
<path d="M47.2855 26.894H20.5332V60.9342H47.2855V26.894Z" fill="#FAFAFA"/>
<path d="M34.882 29.9856C34.883 30.1584 34.8268 30.3275 34.7205 30.4715C34.6142 30.6156 34.4626 30.7281 34.285 30.7948C34.1073 30.8615 33.9116 30.8795 33.7226 30.8463C33.5336 30.8132 33.3598 30.7304 33.2232 30.6086C33.0867 30.4868 32.9935 30.3314 32.9556 30.162C32.9176 29.9927 32.9366 29.817 33.0101 29.6574C33.0836 29.4977 33.2082 29.3612 33.3683 29.2651C33.5284 29.1691 33.7166 29.1178 33.9092 29.1178C34.1663 29.1178 34.413 29.2091 34.5953 29.3717C34.7775 29.5343 34.8806 29.7551 34.882 29.9856Z" fill="#003D3F"/>
<path d="M84.8803 83.2135L56.2734 86.1094L58.0626 100.325L86.6694 97.4291L84.8803 83.2135Z" fill="#FAFAFA"/>
<path d="M71.9008 87.358C71.9008 87.5368 71.8416 87.7115 71.7309 87.8602C71.6201 88.0089 71.4627 88.1247 71.2785 88.1932C71.0943 88.2616 70.8916 88.2795 70.6961 88.2446C70.5006 88.2097 70.321 88.1236 70.18 87.9972C70.039 87.8708 69.943 87.7097 69.9041 87.5343C69.8652 87.359 69.8852 87.1772 69.9615 87.012C70.0378 86.8469 70.167 86.7057 70.3328 86.6063C70.4985 86.507 70.6934 86.454 70.8928 86.454C71.1601 86.454 71.4165 86.5492 71.6055 86.7188C71.7946 86.8883 71.9008 87.1182 71.9008 87.358Z" fill="#003D3F"/>
<path d="M48.1019 92.5606C48.1019 92.6736 43.1829 92.7685 37.1147 92.7685C31.0466 92.7685 26.1326 92.6736 26.1326 92.5606C26.1326 92.4476 31.0466 92.3527 37.1147 92.3527C43.1829 92.3527 48.1019 92.4431 48.1019 92.5606Z" fill="#003D3F"/>
<path d="M48.1019 95.6794C48.1019 95.7924 43.1829 95.8873 37.1147 95.8873C31.0466 95.8873 26.1326 95.7924 26.1326 95.6794C26.1326 95.5664 31.0466 95.4714 37.1147 95.4714C43.1829 95.4714 48.1019 95.5618 48.1019 95.6794Z" fill="#003D3F"/>
<path d="M48.1019 98.7981C48.1019 98.9111 43.1829 99.0061 37.1147 99.0061C31.0466 99.0061 26.1326 98.9111 26.1326 98.7981C26.1326 98.6851 31.0466 98.5902 37.1147 98.5902C43.1829 98.5902 48.1019 98.6806 48.1019 98.7981Z" fill="#003D3F"/>
<path d="M48.1019 101.917C48.1019 102.03 43.1829 102.125 37.1147 102.125C31.0466 102.125 26.1326 102.03 26.1326 101.917C26.1326 101.804 31.0466 101.7 37.1147 101.7C43.1829 101.7 48.1019 101.799 48.1019 101.917Z" fill="#003D3F"/>
<path d="M48.1019 105.036C48.1019 105.149 43.1829 105.244 37.1147 105.244C31.0466 105.244 26.1326 105.149 26.1326 105.036C26.1326 104.923 31.0466 104.828 37.1147 104.828C43.1829 104.828 48.1019 104.918 48.1019 105.036Z" fill="#003D3F"/>
<path d="M48.1019 108.155C48.1019 108.268 43.1829 108.362 37.1147 108.362C31.0466 108.362 26.1326 108.268 26.1326 108.155C26.1326 108.042 31.0466 107.947 37.1147 107.947C43.1829 107.947 48.1019 108.028 48.1019 108.155Z" fill="#003D3F"/>
<path d="M48.1019 111.273C48.1019 111.386 43.1829 111.481 37.1147 111.481C31.0466 111.481 26.1326 111.386 26.1326 111.273C26.1326 111.16 31.0466 111.065 37.1147 111.065C43.1829 111.065 48.1019 111.156 48.1019 111.273Z" fill="#003D3F"/>
<path d="M82.1974 89.2203C82.1974 89.3333 77.359 90.0429 71.3514 90.8023C65.3437 91.5617 60.4599 92.086 60.4398 91.973C60.4196 91.86 65.2782 91.1503 71.2858 90.3865C77.2935 89.6226 82.1773 89.1028 82.1974 89.2203Z" fill="#003D3F"/>
<path d="M82.656 91.1684C82.656 91.2859 77.8227 91.9956 71.815 92.7549C65.8073 93.5143 60.9235 94.0386 60.9034 93.9211C60.8832 93.8036 65.7418 93.0984 71.7495 92.3391C77.7571 91.5797 82.6157 91.0554 82.656 91.1684Z" fill="#003D3F"/>
<path d="M83.0341 92.9719C83.0341 93.0849 78.1957 93.7945 72.188 94.5539C66.1803 95.3132 61.2966 95.8375 61.2764 95.7245C61.2563 95.6115 66.1148 94.9019 72.1225 94.1425C78.1302 93.3832 83.014 92.8589 83.0341 92.9719Z" fill="#003D3F"/>
<path d="M81.0937 36.0153C81.0937 36.1283 75.5497 36.2232 68.6852 36.2232C61.8208 36.2232 56.2717 36.1283 56.2717 36.0153C56.2717 35.9023 61.8157 35.8029 68.6852 35.8029C75.5548 35.8029 81.0937 35.8978 81.0937 36.0153Z" fill="#003D3F"/>
<path d="M81.0937 37.8686C81.0937 37.9861 75.5497 38.0765 68.6852 38.0765C61.8208 38.0765 56.2717 37.9861 56.2717 37.8686C56.2717 37.751 61.8157 37.6606 68.6852 37.6606C75.5548 37.6606 81.0937 37.751 81.0937 37.8686Z" fill="#003D3F"/>
<path d="M81.0937 39.7217C81.0937 39.8392 75.5497 39.9342 68.6852 39.9342C61.8208 39.9342 56.2717 39.8392 56.2717 39.7217C56.2717 39.6042 61.8157 39.5138 68.6852 39.5138C75.5548 39.5138 81.0937 39.6087 81.0937 39.7217Z" fill="#003D3F"/>
<path d="M81.0937 41.584C81.0937 41.697 75.5497 41.7919 68.6852 41.7919C61.8208 41.7919 56.2717 41.697 56.2717 41.584C56.2717 41.471 61.8157 41.3716 68.6852 41.3716C75.5548 41.3716 81.0937 41.462 81.0937 41.584Z" fill="#003D3F"/>
<path d="M81.0937 43.4327C81.0937 43.5457 75.5497 43.6406 68.6852 43.6406C61.8208 43.6406 56.2717 43.5457 56.2717 43.4327C56.2717 43.3197 61.8157 43.2202 68.6852 43.2202C75.5548 43.2202 81.0937 43.3151 81.0937 43.4327Z" fill="#003D3F"/>
<path d="M81.0937 45.2859C81.0937 45.4034 75.5497 45.4938 68.6852 45.4938C61.8208 45.4938 56.2717 45.4034 56.2717 45.2859C56.2717 45.1684 61.8157 45.078 68.6852 45.078C75.5548 45.078 81.0937 45.1729 81.0937 45.2859Z" fill="#003D3F"/>
<path d="M81.0937 47.1391C81.0937 47.2566 75.5497 47.3515 68.6852 47.3515C61.8208 47.3515 56.2717 47.2566 56.2717 47.1391C56.2717 47.0216 61.8157 46.9312 68.6852 46.9312C75.5548 46.9312 81.0937 47.008 81.0937 47.1391Z" fill="#003D3F"/>
<path d="M81.0937 52.6444C81.0937 52.7574 75.5497 52.8524 68.6852 52.8524C61.8208 52.8524 56.2717 52.7574 56.2717 52.6444C56.2717 52.5314 61.8157 52.4365 68.6852 52.4365C75.5548 52.4365 81.0937 52.5269 81.0937 52.6444Z" fill="#003D3F"/>
<path d="M81.2702 54.6016C81.2702 54.7191 75.7262 54.8095 68.8567 54.8095C61.9872 54.8095 56.4482 54.7191 56.4482 54.6016C56.4482 54.4841 61.9922 54.3937 68.8567 54.3937C75.7212 54.3937 81.2702 54.4886 81.2702 54.6016Z" fill="#003D3F"/>
<path d="M81.4415 56.5587C81.4415 56.6763 75.8975 56.7712 69.033 56.7712C62.1685 56.7712 56.6245 56.6763 56.6245 56.5587C56.6245 56.4412 62.1685 56.3508 69.033 56.3508C75.8975 56.3508 81.4415 56.4457 81.4415 56.5587Z" fill="#003D3F"/>
<path d="M81.6179 58.5204C81.6179 58.6334 76.0739 58.7283 69.2094 58.7283C62.3449 58.7283 56.7959 58.6334 56.7959 58.5204C56.7959 58.4074 62.3399 58.3125 69.2094 58.3125C76.0789 58.3125 81.6179 58.4029 81.6179 58.5204Z" fill="#003D3F"/>
<path d="M81.7942 60.4776C81.7942 60.5951 76.2502 60.6855 69.3807 60.6855C62.5111 60.6855 56.9722 60.5951 56.9722 60.4776C56.9722 60.3601 62.5162 60.2697 69.3807 60.2697C76.2451 60.2697 81.7942 60.3646 81.7942 60.4776Z" fill="#003D3F"/>
<path d="M81.9656 62.4347C81.9656 62.5523 76.4216 62.6472 69.5572 62.6472C62.6927 62.6472 57.1487 62.5523 57.1487 62.4347C57.1487 62.3172 62.6927 62.2268 69.5572 62.2268C76.4216 62.2268 81.9656 62.3217 81.9656 62.4347Z" fill="#003D3F"/>
<path d="M242.152 188.588C242.152 188.651 190.144 188.705 126.005 188.705C61.866 188.705 9.84814 188.651 9.84814 188.588C9.84814 188.525 61.8408 188.484 126 188.484C190.159 188.484 242.152 188.52 242.152 188.588Z" fill="#263238"/>
<path d="M75.8881 76.2816C76.8282 67.2442 69.4212 59.2344 59.3441 58.3913C49.267 57.5481 40.3358 64.1909 39.3956 73.2283C38.4555 82.2657 45.8625 90.2754 55.9396 91.1186C66.0167 91.9617 74.9479 85.319 75.8881 76.2816Z" fill="#FAFAFA"/>
<path d="M77.9385 80.56C77.9385 80.56 77.8125 80.7002 77.6513 80.9804C77.4346 81.3833 77.3591 81.8355 77.4345 82.2776C77.4823 82.5783 77.6046 82.8656 77.7924 83.1184C78.0123 83.406 78.3204 83.6305 78.6794 83.7647C79.0845 83.9375 79.5389 83.9949 79.9814 83.9292C80.424 83.8636 80.8336 83.6781 81.1551 83.3976C81.4767 83.1171 81.6948 82.755 81.7802 82.3601C81.8656 81.9652 81.8142 81.5563 81.6329 81.1883C81.4926 80.8643 81.2511 80.5834 80.9373 80.3792C80.6588 80.2032 80.3405 80.0843 80.0049 80.0312C79.516 79.9522 79.0119 80.0074 78.5585 80.1894C78.2359 80.325 78.0948 80.4516 78.0545 80.438C78.0842 80.403 78.1199 80.3725 78.1603 80.3476C78.2006 80.3092 78.2464 80.2758 78.2964 80.2482C78.3607 80.2055 78.43 80.1691 78.503 80.1397C78.9668 79.9205 79.4981 79.8443 80.015 79.9227C80.3761 79.9715 80.7204 80.092 81.023 80.2753C81.366 80.4895 81.6307 80.7899 81.7841 81.1386C81.9537 81.52 82.0042 81.9357 81.9302 82.3409C81.8668 82.7841 81.6381 83.1951 81.2812 83.5069C80.9243 83.8188 80.4603 84.0132 79.9646 84.0585C79.5096 84.1165 79.0455 84.0602 78.624 83.8958C78.24 83.748 77.9125 83.503 77.6815 83.1907C77.4884 82.9167 77.3645 82.6082 77.3186 82.2867C77.2431 81.8197 77.3404 81.3433 77.5958 80.9307C77.6355 80.8681 77.6792 80.8077 77.7269 80.7499C77.7672 80.7002 77.8075 80.6595 77.8377 80.6278C77.8696 80.6032 77.9032 80.5805 77.9385 80.56Z" fill="#263238"/>
<path d="M72.5306 64.9253C72.5306 64.9253 72.4601 64.8575 72.3341 64.7219L71.7696 64.1162L71.3613 63.6642C71.2001 63.506 71.0086 63.3478 70.8069 63.1715C70.6054 62.9952 70.3937 62.8009 70.1618 62.5975C70.0471 62.4874 69.9224 62.3861 69.7889 62.2946L69.3705 61.9963C68.0058 60.9769 66.4764 60.1494 64.8345 59.542C62.6566 58.721 60.3223 58.2851 57.96 58.2583H56.952C56.6193 58.2583 56.2817 58.3125 55.944 58.3351L55.44 58.3758C55.2706 58.3864 55.1021 58.4075 54.936 58.4391L53.8977 58.6153C53.7213 58.647 53.5449 58.6696 53.3937 58.7058L52.8897 58.8413L51.8313 59.1216C51.4785 59.2256 51.1409 59.3657 50.7881 59.4877L50.2841 59.6776L50.022 59.777L49.77 59.8945C49.0729 60.202 48.3994 60.5508 47.754 60.9386C47.4314 61.1375 47.0837 61.3228 46.746 61.5398L45.8035 62.2313C45.6473 62.3534 45.4809 62.4619 45.3297 62.5884L44.8913 62.9817C44.604 63.2484 44.2965 63.506 44.0143 63.7862C43.4554 64.3582 42.9386 64.9622 42.467 65.5942L42.1092 66.0779C42.0487 66.1592 41.9882 66.2406 41.9328 66.322L41.7765 66.5841L41.1617 67.6282C40.9752 67.9853 40.8189 68.3605 40.6577 68.7311C40.577 68.9164 40.4762 69.0972 40.4107 69.2916L40.2141 69.8702C39.9461 70.6521 39.7373 71.4495 39.5892 72.2567C39.5388 72.668 39.4934 73.0839 39.443 73.4997L39.4077 73.8116C39.4077 73.9156 39.4077 74.0195 39.4077 74.1235V75.3891L39.4682 76.0219L39.5337 76.6547L39.564 76.9756C39.564 77.0796 39.6093 77.1835 39.6295 77.292C39.7152 77.7124 39.8059 78.1327 39.8966 78.5576C39.9873 78.9825 40.1637 79.3893 40.2998 79.8051C41.4796 83.1869 43.8579 86.1308 47.0736 88.1897L48.2832 88.9084L49.5533 89.496L49.8708 89.6452L50.1984 89.7672L50.8586 90.0113L51.5138 90.2508L52.1892 90.4362L52.8645 90.617L53.1972 90.7074L53.5399 90.7706L54.9007 91.0147C55.8061 91.1256 56.7186 91.1829 57.6324 91.1865H58.3077C58.5345 91.1865 58.7563 91.1548 58.9781 91.1458C59.4216 91.1051 59.8701 91.0825 60.3036 91.0283L61.5989 90.8113L61.9214 90.7571L62.2389 90.6757L62.8589 90.513C63.6773 90.3013 64.4789 90.04 65.2579 89.731C65.6409 89.5728 66.0038 89.3875 66.3768 89.2158L66.9261 88.9581C67.1025 88.8722 67.2689 88.7592 67.4301 88.6598L68.4381 88.0586C68.7657 87.8507 69.0631 87.6066 69.3756 87.3897C69.9823 86.9474 70.5548 86.4687 71.0892 85.9568L71.2908 85.776C71.3563 85.7128 71.4118 85.645 71.4773 85.5772L71.8351 85.1839C72.0669 84.9172 72.3391 84.6686 72.5357 84.3974L73.1455 83.5748C73.2463 83.4392 73.3471 83.3036 73.4429 83.168L73.6999 82.7476L74.2039 81.9069C74.29 81.7707 74.3641 81.6286 74.4257 81.482L74.6222 81.0572C74.7482 80.7724 74.8843 80.4922 75.0002 80.2119C75.1161 79.9317 75.1968 79.6424 75.2925 79.3622C75.9622 77.3334 76.1881 75.2076 75.9578 73.102C75.9578 72.8714 75.9175 72.65 75.8923 72.4194L75.7562 71.7686C75.7109 71.5561 75.6706 71.3482 75.6252 71.1403C75.6252 71.0408 75.5899 70.9369 75.5597 70.8374C75.5294 70.738 75.4992 70.6431 75.4639 70.5482C75.3429 70.164 75.222 69.7978 75.1111 69.4498C75.0002 69.1018 74.8238 68.7854 74.6978 68.478L74.4962 68.026C74.4396 67.8842 74.3705 67.7467 74.2896 67.6147C74.1434 67.357 74.0023 67.113 73.8713 66.8915C73.7402 66.67 73.6294 66.4395 73.5084 66.2722L73.1556 65.7886L72.6768 65.1242L72.5205 64.8982L72.6919 65.1151L73.1959 65.7705L73.5537 66.2542C73.6797 66.435 73.7906 66.6474 73.9267 66.8689C74.0628 67.0904 74.2039 67.3209 74.3551 67.5921C74.4377 67.7239 74.5085 67.8615 74.5668 68.0034L74.7684 68.4554C74.8994 68.7628 75.0658 69.0792 75.1917 69.4272L75.5546 70.5301C75.5849 70.625 75.6202 70.7244 75.6504 70.8239C75.6806 70.9233 75.6958 71.0228 75.721 71.1267C75.7613 71.3301 75.8066 71.5426 75.852 71.755C75.8973 71.9674 75.9427 72.207 75.9931 72.4104C76.0435 72.6138 76.0385 72.8624 76.0637 73.0974C76.301 75.2139 76.082 77.3516 75.4185 79.3938C75.3245 79.674 75.2287 79.9588 75.1313 80.2481C75.0154 80.5328 74.8742 80.8131 74.7482 81.0978L74.5517 81.5498C74.4897 81.6955 74.4173 81.8374 74.3349 81.9747L73.831 82.82C73.7453 82.9646 73.6646 83.1092 73.5739 83.272L73.2715 83.6833L72.6617 84.5104C72.4449 84.7862 72.193 85.0348 71.9561 85.306L71.5982 85.7037C71.5327 85.767 71.4773 85.8393 71.4117 85.9026L71.2051 86.0879C70.6691 86.6028 70.0949 87.0845 69.4865 87.5298C69.174 87.7558 68.8716 87.9818 68.5389 88.2078L67.531 88.818C67.3596 88.9174 67.1933 89.0259 67.0269 89.1163L66.4725 89.3785C66.0996 89.5502 65.7317 89.7356 65.3486 89.8983C64.5626 90.2096 63.7544 90.4738 62.9294 90.6893L62.2994 90.8565L61.9869 90.9379L61.6593 90.9921L60.354 91.2136C59.9105 91.2678 59.4619 91.2904 59.0133 91.3311C58.7916 91.3311 58.5648 91.3763 58.338 91.3718H57.6576C56.7371 91.372 55.8177 91.3162 54.9057 91.2046L53.5298 90.956L53.1821 90.8927L52.8444 90.8023L52.164 90.617L51.4836 90.4362L50.8183 90.1921L50.1581 89.948L49.8204 89.826L49.5029 89.6723L48.1925 89.044L46.9728 88.3163C43.6952 86.2544 41.2597 83.2876 40.0377 79.8684C39.9 79.4435 39.7639 79.0232 39.6295 78.6073C39.5388 78.1553 39.4481 77.753 39.3624 77.3282C39.3624 77.2197 39.317 77.1157 39.2969 77.0072L39.2666 76.6863L39.2011 76.0445L39.1406 75.4072V74.128C39.1406 74.0195 39.1406 73.9156 39.1406 73.8116L39.1759 73.4952C39.2263 73.0748 39.2767 72.659 39.3221 72.2432C39.4759 71.4302 39.6881 70.627 39.9571 69.8385L40.1587 69.2509C40.2192 69.0566 40.325 68.8758 40.4057 68.6859C40.5821 68.3153 40.7383 67.9356 40.9097 67.574L41.5346 66.5208L41.6909 66.2587C41.7463 66.1773 41.8118 66.096 41.8673 66.0146L42.2301 65.5219C42.7266 64.8808 43.2669 64.2679 43.848 63.6868C44.1353 63.4066 44.4427 63.1489 44.735 62.8777L45.1785 62.4845C45.3297 62.3534 45.4961 62.2449 45.6523 62.1274L46.6049 61.4313C46.9274 61.2098 47.2752 61.0245 47.6129 60.8211C48.2677 60.4318 48.9514 60.0829 49.6591 59.777L49.896 59.664C49.9817 59.6278 50.0774 59.6007 50.1631 59.5691L50.6973 59.3747C51.0501 59.2527 51.3929 59.1126 51.7507 59.0086L52.8141 58.7329L53.3181 58.5928L53.8524 58.5023L54.936 58.308C55.1026 58.2798 55.2709 58.2601 55.44 58.2492L55.944 58.2086C56.2917 58.186 56.6294 58.1498 56.952 58.1362H57.96C60.3311 58.1731 62.6721 58.6197 64.8547 59.4516C66.4997 60.069 68.0295 60.909 69.3907 61.9421L69.804 62.2449C69.9375 62.3364 70.0622 62.4377 70.177 62.5478L70.8221 63.1308C71.0186 63.3116 71.2102 63.4698 71.3664 63.6326C71.5226 63.7953 71.6537 63.949 71.7746 64.0846L72.324 64.6993L72.5306 64.9253Z" fill="#263238"/>
<path d="M52.6678 70.164H55.5708C55.5687 69.8683 55.6328 69.5753 55.7592 69.3023C55.8856 69.0292 56.0718 68.7817 56.3067 68.5744C56.5417 68.367 56.8207 68.2041 57.1271 68.0951C57.4336 67.9862 57.7613 67.9335 58.0908 67.9401C58.5802 67.9249 59.0625 68.0474 59.4702 68.2907C59.8779 68.5339 60.1904 68.8855 60.3639 69.2961C60.5177 69.6376 60.5792 70.0069 60.5433 70.3738C60.5073 70.7407 60.3751 71.0947 60.1572 71.407C59.6532 72.1347 58.5898 72.7946 56.6292 72.4872V78.3632H59.497V74.9235C60.6764 74.6153 61.7101 73.9677 62.4387 73.0807C63.1673 72.1937 63.5504 71.1164 63.529 70.0148C63.529 66.209 59.7238 65.323 58.0908 65.323C56.856 65.3004 52.6123 65.5716 52.6678 70.164Z" fill="#00D9DE"/>
<path d="M59.5474 79.5475H56.6343V81.9883H59.5474V79.5475Z" fill="#00D9DE"/>
<path d="M162.26 39.6144C163.223 28.8152 154.243 19.3605 142.201 18.4965C130.16 17.6326 119.617 25.6867 118.654 36.4858C117.691 47.2849 126.671 56.7397 138.713 57.6036C150.754 58.4675 161.297 50.4135 162.26 39.6144Z" fill="#00D9DE"/>
<path d="M154.765 50.8571C162.47 43.9464 162.47 32.7421 154.765 25.8314C147.059 18.9208 134.566 18.9208 126.86 25.8314C119.154 32.7421 119.154 43.9464 126.86 50.8571C134.566 57.7677 147.059 57.7677 154.765 50.8571Z" fill="#FAFAFA"/>
<path d="M120.879 37.2855C120.879 37.2855 120.879 37.385 120.879 37.5748V38.42C120.879 38.6054 120.879 38.8178 120.879 39.0438C120.879 39.2698 120.93 39.5229 120.95 39.7941C120.97 40.0653 121.011 40.3546 121.041 40.6665C121.071 40.9784 121.167 41.3038 121.227 41.6518C121.568 43.3414 122.191 44.975 123.077 46.4973C124.229 48.5212 125.807 50.3261 127.724 51.8128L128.52 52.432C128.807 52.6264 129.11 52.8072 129.412 52.997C129.709 53.1963 130.017 53.3819 130.335 53.553L131.343 54.0547L131.847 54.3078L132.381 54.5158L133.464 54.9678C133.832 55.1034 134.22 55.1983 134.603 55.3158C134.987 55.4408 135.38 55.545 135.778 55.6277C136.592 55.8122 137.418 55.9481 138.252 56.0345C138.676 56.0706 139.104 56.1339 139.538 56.152H140.843C141.065 56.152 141.286 56.152 141.503 56.152L142.168 56.1023C142.612 56.0616 143.06 56.039 143.509 55.9848C144.413 55.8583 145.307 55.6786 146.185 55.4469L146.856 55.2706C146.967 55.2435 147.082 55.2164 147.193 55.1802L147.516 55.0627L148.831 54.6107C149.26 54.4299 149.678 54.222 150.106 54.0231C150.318 53.9191 150.54 53.8332 150.741 53.7157L151.346 53.3586C152.173 52.8844 152.963 52.3604 153.71 51.7902C154.063 51.4783 154.421 51.171 154.784 50.8591L155.051 50.624L155.298 50.3709L155.802 49.8556L156.306 49.3358L156.744 48.7799L157.183 48.2194L157.404 47.9346C157.47 47.8397 157.53 47.7358 157.596 47.6363L158.357 46.4295L158.987 45.1548C159.766 43.3908 160.247 41.5321 160.413 39.6404C160.518 37.7342 160.3 35.8248 159.768 33.9769L159.33 32.6209C159.138 32.1915 158.947 31.7621 158.75 31.3372L158.609 31.0163L158.427 30.7089L158.075 30.1032L157.752 29.5156L157.314 28.928L156.9 28.3585L156.694 28.0783L156.462 27.8116C156.149 27.4636 155.842 27.111 155.535 26.763C154.875 26.1116 154.169 25.4987 153.423 24.9278L152.873 24.5075C152.687 24.3628 152.48 24.2544 152.289 24.1233C151.891 23.8837 151.508 23.6216 151.109 23.3956L149.875 22.7718L149.572 22.6136L149.25 22.487L148.615 22.2294C147.775 21.8992 146.913 21.6168 146.034 21.3842C145.601 21.2757 145.157 21.2034 144.724 21.113L144.074 20.9864C143.857 20.9457 143.635 20.9322 143.418 20.9096L142.128 20.792C141.695 20.7604 141.266 20.792 140.838 20.7604C139.996 20.7473 139.154 20.7851 138.318 20.8734C137.911 20.9097 137.507 20.967 137.108 21.0452C136.71 21.1175 136.307 21.1672 135.924 21.2576L134.79 21.5559L134.225 21.7006L133.691 21.8904L132.633 22.2746C132.285 22.3921 131.967 22.5729 131.625 22.7266C131.282 22.8803 130.975 23.0249 130.662 23.1786L129.765 23.6984C127.649 24.9501 125.822 26.5553 124.382 28.4263C123.289 29.8312 122.439 31.3765 121.862 33.0096C121.733 33.3216 121.623 33.64 121.535 33.9633C121.454 34.2707 121.383 34.5554 121.318 34.8221C121.252 35.0888 121.182 35.3284 121.137 35.5544C121.091 35.7804 121.076 36.0064 121.051 36.1736C121 36.5397 120.96 36.82 120.935 37.0143C120.91 37.2087 120.885 37.2991 120.885 37.2991C120.885 37.2991 120.885 37.1996 120.885 37.0098C120.885 36.82 120.94 36.5578 120.985 36.1691C121.005 35.9853 121.031 35.7773 121.061 35.5453C121.096 35.3193 121.167 35.0933 121.227 34.8086C121.288 34.5238 121.358 34.2526 121.434 33.9452C121.523 33.6211 121.631 33.3013 121.756 32.987C122.325 31.3383 123.175 29.7785 124.276 28.363C125.715 26.4714 127.548 24.8475 129.674 23.5809L130.592 23.052C130.904 22.8893 131.237 22.7447 131.559 22.6C131.882 22.4554 132.214 22.2701 132.567 22.148L133.631 21.7638L134.17 21.5695L134.734 21.4203L135.884 21.1175C136.272 21.0271 136.675 20.9774 137.073 20.9005C137.477 20.8187 137.886 20.7598 138.298 20.7242C139.134 20.6329 139.976 20.5936 140.818 20.6067C141.251 20.6067 141.685 20.6067 142.123 20.6338L143.433 20.774C143.655 20.774 143.877 20.8101 144.094 20.8463L144.754 20.9774C145.192 21.0678 145.641 21.1401 146.079 21.2486C146.965 21.477 147.833 21.7548 148.68 22.0802L149.325 22.3379C149.431 22.3831 149.542 22.4192 149.648 22.469L149.955 22.6226L151.205 23.2554C151.608 23.486 151.996 23.7436 152.395 23.9922C152.598 24.1111 152.795 24.2393 152.984 24.3764L153.544 24.8284C154.301 25.4028 155.015 26.0219 155.681 26.6816C155.993 27.0311 156.306 27.3837 156.618 27.7393L156.855 28.006L157.067 28.2907L157.48 28.8648L157.898 29.4388L158.256 30.049L158.614 30.6682L158.795 30.9756L158.942 31.2965L159.526 32.5983C159.672 33.0503 159.824 33.5023 159.97 33.9543C160.494 35.8156 160.701 37.7372 160.585 39.654C160.423 41.5565 159.942 43.4261 159.158 45.2L158.523 46.4928L157.752 47.7132L157.561 48.016L157.339 48.3008L156.89 48.8658L156.447 49.4308L155.943 49.9506L155.439 50.4704L155.187 50.7325L154.915 50.9676L153.831 51.9077C153.074 52.4825 152.276 53.0125 151.442 53.4942L150.827 53.8513C150.626 53.9688 150.399 54.0592 150.187 54.1632C149.754 54.3576 149.33 54.5745 148.897 54.7508L147.566 55.2299L147.239 55.352L146.901 55.4424L146.226 55.6186C145.338 55.8516 144.434 56.0313 143.519 56.1565C143.066 56.2108 142.612 56.2334 142.163 56.2695L141.493 56.3238C141.271 56.3238 141.045 56.3238 140.823 56.3238H139.502C139.069 56.3238 138.64 56.2424 138.212 56.2017C137.363 56.1136 136.521 55.9746 135.692 55.7859C135.291 55.701 134.895 55.5954 134.508 55.4695C134.125 55.3474 133.731 55.2525 133.359 55.1169L132.265 54.6649L131.731 54.4525L131.227 54.1948L130.219 53.6886C129.886 53.5259 129.594 53.3089 129.286 53.1281C128.979 52.9473 128.681 52.7484 128.394 52.5541L127.578 51.9258C125.673 50.4182 124.11 48.5949 122.976 46.556C122.095 45.0214 121.48 43.3753 121.152 41.6744C121.068 41.3462 121.004 41.0143 120.96 40.68C120.935 40.3682 120.905 40.0744 120.879 39.8032C120.854 39.532 120.829 39.2788 120.824 39.0528C120.819 38.8268 120.824 38.6008 120.824 38.4246C120.824 38.0584 120.824 37.7737 120.849 37.5793C120.874 37.385 120.879 37.2855 120.879 37.2855Z" fill="#263238"/>
<path d="M149.799 38.8314C149.567 38.862 149.333 38.8756 149.098 38.8721L147.168 38.9082C145.53 38.9082 143.252 38.9444 140.676 38.9444H140.545V37.6788C140.545 35.0979 140.545 32.7655 140.586 31.0751C140.586 30.2615 140.616 29.588 140.626 29.0727C140.619 28.8278 140.636 28.5827 140.676 28.3405C140.714 28.583 140.731 28.8278 140.727 29.0727C140.727 29.588 140.727 30.2615 140.767 31.0751C140.767 32.7655 140.802 35.0979 140.802 37.6788V38.8314L140.676 38.7184C143.252 38.7184 145.53 38.7184 147.168 38.7545L149.098 38.7907C149.333 38.7871 149.567 38.8007 149.799 38.8314Z" fill="#263238"/>
<path d="M140.737 23.4091C140.863 23.8977 140.905 24.4006 140.863 24.9007C140.905 25.4022 140.862 25.9066 140.737 26.3968C140.608 25.907 140.564 25.4024 140.606 24.9007C140.564 24.4004 140.608 23.8973 140.737 23.4091Z" fill="#263238"/>
<path d="M149.779 25.8092C149.489 26.2311 149.128 26.6106 148.71 26.9347C148.349 27.3097 147.926 27.6328 147.455 27.8929C147.746 27.4703 148.108 27.0906 148.529 26.7674C148.888 26.392 149.309 26.0687 149.779 25.8092Z" fill="#263238"/>
<path d="M155.066 30.9891C154.656 31.3099 154.204 31.5847 153.72 31.8073C153.267 32.1041 152.777 32.3514 152.259 32.544C153.055 31.8516 154.014 31.328 155.066 31.0117V30.9891Z" fill="#263238"/>
<path d="M158.165 38.6777C156.658 38.8276 155.137 38.8276 153.629 38.6777C155.136 38.5217 156.658 38.5217 158.165 38.6777Z" fill="#263238"/>
<path d="M126.64 38.42C125.214 38.5707 123.773 38.5707 122.346 38.42C123.772 38.2632 125.214 38.2632 126.64 38.42Z" fill="#263238"/>
<path d="M128.868 44.1288C128.387 44.625 127.842 45.0681 127.245 45.4486C126.705 45.8906 126.107 46.2731 125.466 46.5877C125.945 46.0922 126.488 45.6492 127.084 45.2678C127.627 44.8275 128.226 44.4453 128.868 44.1288Z" fill="#263238"/>
<path d="M134.372 48.5538C134.054 49.1512 133.685 49.7255 133.268 50.2714C132.924 50.8573 132.531 51.4193 132.094 51.9529C132.305 51.3097 132.626 50.6999 133.046 50.1449C133.394 49.5565 133.841 49.0198 134.372 48.5538Z" fill="#263238"/>
<path d="M140.737 54.2626C140.608 53.5897 140.564 52.9058 140.606 52.2241C140.564 51.5423 140.608 50.8584 140.737 50.1855C140.863 50.8588 140.905 51.5425 140.863 52.2241C140.905 52.9057 140.863 53.5894 140.737 54.2626Z" fill="#263238"/>
<path d="M150.535 51.528C149.85 51.2481 149.223 50.866 148.68 50.398C148.085 49.9749 147.574 49.4645 147.168 48.8883C147.761 49.3124 148.328 49.7651 148.867 50.2443C149.448 50.645 150.005 51.0735 150.535 51.528Z" fill="#263238"/>
<path d="M155.136 47.1075C154.578 46.7705 154.07 46.371 153.624 45.9187C153.121 45.5198 152.677 45.064 152.304 44.5627C152.861 44.9016 153.369 45.3009 153.816 45.7515C154.319 46.1514 154.762 46.6071 155.136 47.1075Z" fill="#263238"/>
<path d="M128.661 32.9237C128.164 32.6398 127.716 32.2926 127.331 31.8931C126.887 31.5487 126.502 31.1483 126.187 30.7043C126.682 30.9869 127.128 31.3325 127.512 31.7304C127.958 32.0761 128.345 32.4781 128.661 32.9237Z" fill="#263238"/>
<path d="M134.336 27.572C133.855 27.2922 133.424 26.9494 133.056 26.555C132.619 26.2188 132.24 25.8257 131.932 25.3888C132.42 25.6643 132.859 26.0024 133.237 26.3922C133.666 26.7353 134.036 27.1328 134.336 27.572Z" fill="#263238"/>
<path d="M123.142 38.5194C123.143 34.009 125.064 29.669 128.513 26.3865C131.962 23.1041 136.679 21.1271 141.7 20.8598C141.312 20.8598 140.924 20.8236 140.53 20.8236C137.939 20.8236 135.373 21.2813 132.979 22.1706C130.586 23.0599 128.41 24.3634 126.578 26.0066C124.746 27.6498 123.292 29.6006 122.301 31.7475C121.309 33.8945 120.799 36.1956 120.799 38.5194C120.799 40.8433 121.309 43.1443 122.301 45.2913C123.292 47.4383 124.746 49.389 126.578 51.0322C128.41 52.6754 130.586 53.9789 132.979 54.8682C135.373 55.7575 137.939 56.2152 140.53 56.2152C140.924 56.2152 141.312 56.2152 141.7 56.1836C136.679 55.914 131.963 53.9358 128.514 50.6528C125.065 47.3699 123.144 43.0299 123.142 38.5194Z" fill="#003D3F"/>
<path d="M123.243 196.706L85.8816 196.295L103.678 214.411H148.302L123.243 196.706Z" fill="#E5FCF6"/>
<path d="M129.432 194.911L92.0759 194.496L109.867 212.612H154.496L129.432 194.911Z" fill="#9DD6FF"/>
<path d="M119.141 191.707L81.7842 191.295L99.5754 209.412H144.205L119.141 191.707Z" fill="#9DD6FF"/>
<path d="M86.6477 189.772L86.3101 192.968L104.308 210.917L148.751 210.691V207.888L86.6477 189.772Z" fill="#003D3F"/>
<path d="M124.004 190.183L86.6477 189.772L104.439 207.888H149.068L124.004 190.183Z" fill="#FAFAFA"/>
<path d="M123.984 190.183L124.448 190.495L125.788 191.422L130.879 194.984L149.114 207.811C149.124 207.82 149.133 207.831 149.139 207.843C149.145 207.855 149.148 207.868 149.148 207.882C149.148 207.895 149.145 207.908 149.139 207.92C149.133 207.932 149.124 207.943 149.114 207.952C149.103 207.963 149.09 207.972 149.075 207.978C149.06 207.984 149.044 207.987 149.028 207.988H110.527H104.439C104.421 207.989 104.402 207.985 104.385 207.978C104.369 207.971 104.354 207.96 104.343 207.947L86.5621 189.84C86.5511 189.831 86.5424 189.819 86.5364 189.807C86.5304 189.795 86.5273 189.781 86.5273 189.768C86.5273 189.754 86.5304 189.741 86.5364 189.728C86.5424 189.716 86.5511 189.705 86.5621 189.695C86.5826 189.678 86.6096 189.668 86.6377 189.668L113.697 190.012L121.308 190.125L123.324 190.161H123.828H123.999C123.941 190.165 123.882 190.165 123.823 190.161H121.303L113.687 190.102L86.6579 189.849L86.7436 189.677L104.545 207.784L104.449 207.744H110.578H149.078L149.008 207.92L130.864 195.042L125.824 191.426L124.498 190.468C124.155 190.292 123.984 190.183 123.984 190.183Z" fill="#263238"/>
<path d="M136.584 203.554C136.584 203.621 129.755 203.671 121.333 203.671C112.911 203.671 106.077 203.621 106.077 203.554C106.077 203.486 112.906 203.436 121.333 203.436C129.76 203.436 136.584 203.49 136.584 203.554Z" fill="#263238"/>
<path d="M133.626 201.89C133.626 201.958 126.796 202.008 118.374 202.008C109.953 202.008 103.118 201.958 103.118 201.89C103.118 201.822 109.948 201.773 118.374 201.773C126.801 201.773 133.626 201.827 133.626 201.89Z" fill="#263238"/>
<path d="M132.013 200.078C132.013 200.141 125.184 200.195 116.757 200.195C108.33 200.195 101.501 200.141 101.501 200.078C101.501 200.014 108.33 199.96 116.757 199.96C125.184 199.96 132.013 200.01 132.013 200.078Z" fill="#263238"/>
<path d="M129.266 198.261C129.266 198.324 122.437 198.378 114.015 198.378C105.593 198.378 98.7588 198.324 98.7588 198.261C98.7588 198.197 105.588 198.143 114.015 198.143C122.442 198.143 129.266 198.197 129.266 198.261Z" fill="#263238"/>
<path d="M127.134 196.295C127.134 196.358 120.305 196.412 111.883 196.412C103.461 196.412 96.627 196.358 96.627 196.295C96.627 196.231 103.456 196.168 111.888 196.168C120.32 196.168 127.134 196.231 127.134 196.295Z" fill="#263238"/>
<path d="M104.328 210.917C104.207 210.398 104.17 209.867 104.217 209.339C104.182 208.809 104.234 208.278 104.373 207.762C104.531 208.813 104.516 209.879 104.328 210.926V210.917Z" fill="#263238"/>
<path d="M61.876 188.588V170.404C61.8773 167.716 63.0689 165.138 65.1888 163.238C67.3087 161.338 70.1834 160.27 73.1807 160.27H135.173C138.167 160.274 141.038 161.343 143.155 163.243C145.271 165.143 146.461 167.718 146.462 170.404L146.16 188.588H61.876Z" fill="#455A64"/>
<path d="M61.8761 188.588H57.2847V173.193C57.2847 172.646 57.5268 172.122 57.9578 171.735C58.3888 171.349 58.9734 171.132 59.5829 171.132C60.1916 171.133 60.7748 171.351 61.2048 171.737C61.6347 172.123 61.8761 172.647 61.8761 173.193V188.588Z" fill="#003D3F"/>
<path d="M61.876 188.588C61.876 188.588 61.876 188.547 61.876 188.47V188.15C61.876 187.851 61.876 187.444 61.876 186.929C61.876 185.862 61.876 184.348 61.8306 182.486C61.7853 180.624 61.8306 178.395 61.7954 175.937C61.7954 175.317 61.7954 174.689 61.7954 174.043C61.7954 173.726 61.7954 173.387 61.7954 173.075C61.7773 172.755 61.6699 172.444 61.4829 172.171C61.2919 171.89 61.0242 171.657 60.7051 171.493C60.3859 171.33 60.0257 171.242 59.6584 171.238C59.291 171.234 58.9285 171.314 58.605 171.47C58.2814 171.626 58.0074 171.854 57.8087 172.131C57.5685 172.472 57.4491 172.871 57.466 173.274V174.522C57.466 175.344 57.466 176.153 57.466 176.944C57.466 178.526 57.466 180.036 57.466 181.464C57.466 184.285 57.4358 186.721 57.4257 188.593L57.3501 188.52L60.7118 188.561H61.619H61.9415C61.8442 188.568 61.7465 188.568 61.6492 188.561H60.7621L57.3501 188.597H57.2694V188.525C57.2694 186.653 57.2694 184.217 57.2342 181.397C57.2342 179.982 57.2342 178.472 57.2342 176.877V173.206C57.2216 172.909 57.2774 172.612 57.398 172.334C57.5186 172.056 57.7015 171.803 57.9353 171.591C58.1692 171.38 58.449 171.213 58.7575 171.102C59.0661 170.991 59.3967 170.938 59.729 170.946C60.1362 170.955 60.5343 171.056 60.8867 171.239C61.239 171.423 61.5342 171.682 61.745 171.995C61.9541 172.296 62.0739 172.64 62.0927 172.994C62.0927 173.338 62.0927 173.658 62.0927 173.984C62.0927 174.635 62.0927 175.272 62.0927 175.896C62.0927 178.377 62.0675 180.61 62.0574 182.495C62.0473 184.38 62.0222 185.858 62.0121 186.925C62.0121 187.426 62.0121 187.829 62.0121 188.113C61.9845 188.275 61.9389 188.434 61.876 188.588Z" fill="#263238"/>
<path d="M150.731 188.588H146.16V173.193C146.16 172.647 146.401 172.123 146.831 171.737C147.261 171.351 147.844 171.133 148.453 171.132C149.063 171.132 149.647 171.349 150.078 171.735C150.509 172.122 150.751 172.646 150.751 173.193L150.731 188.588Z" fill="#003D3F"/>
<path d="M71.4067 188.588L72.5105 160.248C72.5105 160.248 77.6059 156.514 84.8535 160.248L79.4455 188.588H71.4067Z" fill="#263238"/>
<path d="M87.1265 72.5596L87.2474 48.6036L101.057 46.2351L103.824 69.156C103.824 69.156 96.6269 79.9633 87.1265 72.5596Z" fill="#FFBF9D"/>
<path d="M87.2625 49.024C87.2625 49.024 85.7505 47.2838 86.7132 41.5253C87.6758 35.7668 88.9106 30.8807 90.0547 29.3846L90.846 28.3585C90.846 28.3585 91.8137 24.5753 93.6583 21.9718C95.5029 19.3682 96.5613 17.8721 97.7911 18.1885C99.0209 18.5049 98.5824 19.3682 98.2296 20.2361C97.8768 21.1039 94.6512 27.0974 94.9032 27.9653C95.1552 28.8331 95.6793 28.1235 95.9465 27.4138C96.2136 26.7042 98.406 22.2068 101.133 19.2778C103.859 16.3489 104.298 16.2811 105.528 16.3624C106.757 16.4438 106.536 17.6642 106.072 18.3829L104.661 20.7288C104.661 20.7288 108.431 15.6166 110.628 16.3444C112.825 17.0721 109.922 19.9875 109.922 19.9875C109.922 19.9875 107.201 23.1515 106.142 24.7968C105.084 26.442 103.416 29.2896 103.416 29.2896C103.416 29.2896 108.078 25.0318 109.308 24.2453C110.537 23.4588 113.531 19.6711 115.461 21.2486C117.392 22.826 107.901 30.388 106.586 32.639L105.265 34.352L104.298 36.8742C104.965 36.1565 105.821 35.6001 106.79 35.2558C107.758 34.9115 108.808 34.7904 109.842 34.9035C113.536 35.2199 110.457 37.3488 109.489 38.1353C108.521 38.9218 106.415 40.8156 105.533 42.3931C104.651 43.9706 101.561 46.7549 100.17 47.4872C98.7789 48.2194 95.5987 49.024 95.5987 49.024H87.2625Z" fill="#FFBF9D"/>
<path d="M104.282 31.4322C104.247 31.4593 103.819 31.0525 103.007 30.5282C102.53 30.2209 102.024 29.9502 101.495 29.7191C100.847 29.4422 100.172 29.2168 99.4793 29.0456C98.7887 28.886 98.0837 28.7816 97.3726 28.7337C96.7914 28.7006 96.2083 28.7097 95.6288 28.7608C94.6208 28.8512 94.0361 29.0094 94.021 28.9688C94.1497 28.9018 94.2891 28.8531 94.4343 28.8241C94.8163 28.7186 95.2074 28.6415 95.6036 28.5936C96.1927 28.5191 96.7883 28.4934 97.3827 28.5168C98.1127 28.5542 98.8369 28.6556 99.5448 28.8196C100.242 28.993 100.917 29.2292 101.561 29.5247C102.093 29.7726 102.599 30.0631 103.073 30.3926C103.389 30.6126 103.684 30.856 103.955 31.1203C104.197 31.3101 104.298 31.4186 104.282 31.4322Z" fill="#FF9A6C"/>
<path d="M104.988 20.3401C105.024 20.3401 104.646 20.7921 104.106 21.5288C103.414 22.4938 102.783 23.4928 102.216 24.5211C101.541 25.7279 100.992 26.8444 100.588 27.6489C100.395 28.0912 100.162 28.5189 99.8928 28.9281C100.015 28.4635 100.184 28.0096 100.397 27.5721C100.76 26.7494 101.284 25.6149 101.959 24.4081C102.528 23.3692 103.188 22.3731 103.935 21.4294C104.161 21.143 104.404 20.8669 104.661 20.6022C104.867 20.4034 104.973 20.3039 104.988 20.3401Z" fill="#FF9A6C"/>
<path d="M105.124 35.8843C104.951 36.1119 104.755 36.3252 104.54 36.5216C104.106 37.0007 103.637 37.507 103.128 38.0629C102.861 38.3528 102.556 38.6137 102.221 38.8404C101.933 39.0147 101.609 39.1361 101.269 39.1974C100.966 39.2735 100.649 39.2981 100.336 39.2698C100.623 39.1658 100.92 39.0871 101.223 39.0347C101.531 38.9583 101.822 38.8328 102.08 38.6641C102.39 38.4371 102.675 38.1843 102.932 37.9092C103.486 37.3216 103.995 36.7702 104.403 36.4086C104.603 36.1934 104.848 36.0153 105.124 35.8843Z" fill="#FF9A6C"/>
<path d="M168.84 101.7C168.991 96.9992 169.898 92.3301 169.787 87.6293C169.677 82.9285 168.381 78.0152 164.788 74.5891C161.194 71.1629 152.999 68.591 149.597 73.7348V76.4468C150.948 94.5946 150.383 113.014 151.734 131.161C151.911 133.548 154.027 135.731 155.197 137.883C156.366 140.034 158.755 141.82 161.416 141.716C164.899 141.575 167.242 138.443 168.376 135.487C172.474 124.752 168.462 113 168.84 101.7Z" fill="#263238"/>
<path d="M157.878 76.9847C157.418 75.6935 156.738 74.4738 155.862 73.3687C154.93 72.3155 153.529 71.5019 152.027 71.5245C151.672 71.5087 151.319 71.5748 151.002 71.7165C150.684 71.8582 150.412 72.0707 150.212 72.3336C149.869 72.885 150.212 73.7483 150.918 73.8071L151.044 73.9427C152.354 75.4072 153.695 76.8536 155.076 78.2683C155.399 78.6449 155.799 78.9625 156.255 79.204C156.487 79.3241 156.752 79.3828 157.02 79.3732C157.288 79.3636 157.547 79.2861 157.767 79.1497C158.432 78.6797 158.191 77.7169 157.878 76.9847Z" fill="#455A64"/>
<path d="M159.924 81.9838C155.862 75.5473 149.572 71.2307 141.463 69.8566C136.891 69.0792 134.83 69.6442 131.383 69.9335C127.935 70.2227 124.639 71.3482 122.19 73.5495C119.276 76.1665 116.671 79.1995 115.532 82.7522C114.362 86.4044 113.188 90.0791 112.785 93.8624C112.382 97.6456 112.785 101.578 114.66 104.986L124.936 108.272C130.753 109.352 136.649 110.437 142.576 110.121C148.503 109.804 154.567 107.911 158.478 103.901C163.901 98.3371 163.991 88.4248 159.924 81.9838Z" fill="#263238"/>
<path d="M150.514 80.456L137.36 73.224L133.6 73.0387C125.294 71.7866 117.976 79.109 116.787 85.1297C115.441 91.8193 114.09 100.046 114.332 105.149C114.836 115.445 124.1 117.728 124.1 117.728C124.1 117.728 122.89 122.989 122.18 126.316L128.152 138.999L144.063 128.25L153.594 84.4065C153.722 83.5222 153.478 82.6268 152.908 81.8959C152.338 81.165 151.485 80.6515 150.514 80.456Z" fill="#FFBF9D"/>
<path d="M131.378 105.42C131.39 104.898 131.189 104.39 130.813 103.992C130.471 103.621 130.003 103.361 129.48 103.252C128.957 103.143 128.409 103.192 127.92 103.391C127.405 103.635 126.972 103.998 126.666 104.442C126.359 104.886 126.19 105.395 126.176 105.917C126.359 106.261 126.623 106.566 126.949 106.81C127.275 107.054 127.656 107.232 128.066 107.332C128.194 107.363 128.323 107.387 128.454 107.404C129.114 107.504 129.791 107.377 130.349 107.047C130.648 106.864 130.895 106.622 131.073 106.34C131.252 106.058 131.356 105.744 131.378 105.42Z" fill="#FF9A6C"/>
<path d="M120.456 93.6997C120.408 94.0371 120.51 94.3778 120.739 94.6489C120.967 94.9201 121.306 95.1001 121.681 95.1506C121.862 95.1832 122.05 95.1826 122.232 95.149C122.413 95.1155 122.586 95.0495 122.738 94.9551C122.891 94.8607 123.021 94.7397 123.121 94.5994C123.221 94.459 123.288 94.3022 123.319 94.1381C123.366 93.8009 123.266 93.4602 123.038 93.1884C122.81 92.9167 122.473 92.7352 122.099 92.6827C121.916 92.6508 121.729 92.6519 121.546 92.686C121.364 92.72 121.192 92.7864 121.039 92.8811C120.886 92.9759 120.755 93.0971 120.655 93.2377C120.555 93.3782 120.487 93.5353 120.456 93.6997Z" fill="#263238"/>
<path d="M118.672 88.8994C118.828 89.0893 120.018 88.4746 121.575 88.6418C123.132 88.809 124.181 89.6226 124.372 89.469C124.463 89.4012 124.317 89.0802 123.868 88.7006C123.249 88.2145 122.478 87.9101 121.661 87.8282C120.851 87.7412 120.032 87.8885 119.322 88.2486C118.798 88.5288 118.596 88.8181 118.672 88.8994Z" fill="#263238"/>
<path d="M126.504 101.248C126.504 101.171 125.576 100.918 124.034 100.579C123.641 100.498 123.273 100.389 123.238 100.127C123.251 99.7545 123.391 99.3946 123.641 99.0966L125.153 96.5066C127.285 92.8138 128.878 89.7628 128.711 89.6859C128.545 89.6091 126.695 92.5426 124.553 96.2354C124.033 97.1394 123.539 98.0103 123.072 98.848C122.772 99.2463 122.635 99.7254 122.684 100.204C122.726 100.336 122.801 100.457 122.903 100.559C123.005 100.66 123.132 100.74 123.273 100.792C123.485 100.87 123.707 100.923 123.933 100.95C125.496 101.248 126.504 101.348 126.504 101.248Z" fill="#263238"/>
<path d="M124.085 117.746C129.381 118.373 134.767 117.669 139.643 115.712C139.643 115.712 134.719 122.298 123.561 120.178L124.085 117.746Z" fill="#FF9A6C"/>
<path d="M130.949 102.708C130.697 102.667 130.496 104.181 128.933 105.108C127.371 106.035 125.572 105.678 125.531 105.89C125.496 105.98 125.894 106.225 126.655 106.319C127.642 106.437 128.644 106.237 129.483 105.754C130.27 105.284 130.828 104.561 131.04 103.734C131.206 103.106 131.065 102.712 130.949 102.708Z" fill="#263238"/>
<path d="M120.128 84.1444C120.345 84.5105 121.565 84.4066 122.941 84.6552C124.317 84.9038 125.43 85.3512 125.778 85.0755C125.934 84.9399 125.824 84.5919 125.385 84.2032C124.779 83.7158 124.035 83.3876 123.235 83.2544C122.435 83.1213 121.609 83.1884 120.849 83.4483C120.269 83.6743 120.033 83.9636 120.128 84.1444Z" fill="#263238"/>
<path d="M137.803 95.7698C137.751 96.1069 137.553 96.412 137.252 96.6198C136.952 96.8277 136.573 96.9217 136.196 96.8817C136.012 96.8686 135.833 96.8231 135.669 96.7478C135.505 96.6725 135.359 96.5689 135.239 96.443C135.12 96.317 135.029 96.1711 134.973 96.0137C134.917 95.8563 134.895 95.6905 134.911 95.5257C134.966 95.1888 135.165 94.8844 135.466 94.6769C135.767 94.4693 136.146 94.375 136.523 94.4138C136.707 94.4269 136.886 94.4725 137.05 94.5478C137.213 94.6232 137.359 94.7269 137.478 94.8529C137.597 94.9789 137.687 95.1248 137.743 95.2822C137.799 95.4396 137.819 95.6053 137.803 95.7698Z" fill="#263238"/>
<path d="M139.608 91.5843C139.401 91.7289 138.434 90.8566 136.886 90.6441C135.339 90.4317 134.084 90.9696 133.948 90.7752C133.877 90.6893 134.114 90.4136 134.664 90.156C135.405 89.8322 136.239 89.7232 137.053 89.8441C137.857 89.9519 138.603 90.2877 139.179 90.8023C139.608 91.1956 139.729 91.521 139.608 91.5843Z" fill="#263238"/>
<path d="M139.552 87.0146C139.195 87.2858 138.04 86.7931 136.624 86.5626C135.208 86.332 133.933 86.4089 133.711 86.0382C133.615 85.862 133.862 85.5862 134.442 85.3467C135.231 85.0797 136.088 85.0155 136.916 85.1614C137.747 85.284 138.522 85.6164 139.149 86.1196C139.608 86.5309 139.714 86.879 139.552 87.0146Z" fill="#263238"/>
<path d="M148.448 100.977C148.549 100.222 149.748 98.5497 150.59 98.518C152.843 98.4412 156.815 99.0152 156.2 104.06C155.358 110.957 147.808 108.778 147.818 108.58C147.828 108.381 148.105 103.576 148.448 100.977Z" fill="#FFBF9D"/>
<path d="M150.247 106.265C150.288 106.265 150.373 106.365 150.585 106.478C150.891 106.633 151.253 106.675 151.593 106.595C152.435 106.41 153.261 105.321 153.453 104.078C153.543 103.489 153.487 102.89 153.287 102.324C153.241 102.101 153.136 101.891 152.98 101.713C152.823 101.535 152.621 101.394 152.389 101.302C152.24 101.251 152.076 101.248 151.924 101.293C151.772 101.338 151.643 101.43 151.558 101.551C151.432 101.736 151.467 101.876 151.422 101.885C151.376 101.894 151.271 101.754 151.371 101.474C151.435 101.308 151.559 101.166 151.724 101.072C151.954 100.951 152.226 100.914 152.485 100.968C152.794 101.056 153.072 101.213 153.295 101.424C153.517 101.635 153.675 101.893 153.755 102.175C154.009 102.805 154.088 103.481 153.987 104.145C153.765 105.529 152.813 106.753 151.669 106.93C151.455 106.964 151.236 106.955 151.028 106.903C150.819 106.85 150.626 106.756 150.464 106.627C150.242 106.437 150.222 106.279 150.247 106.265Z" fill="#FF9A6C"/>
<path d="M150.898 98.5858L148.62 100.086C141.644 91.6295 128.772 71.1584 129.468 72.3788C129.468 72.3788 135.591 71.1493 141.619 73.0568C147.647 74.9642 158.886 79.5656 157.445 86.106C156.003 92.6465 150.898 98.5858 150.898 98.5858Z" fill="#263238"/>
<path d="M162.243 98.7847C162.248 98.6466 162.235 98.5084 162.202 98.3733C162.137 97.98 162.032 97.5927 161.89 97.2162C161.348 95.8306 160.474 94.5684 159.329 93.5189C157.626 91.9746 155.638 90.7055 153.453 89.7673C151.049 88.6282 148.292 87.6112 145.686 86.0925C143.215 84.6886 140.935 83.0306 138.892 81.1521C137.225 79.6202 135.715 77.956 134.381 76.1801C133.486 74.977 132.672 73.7273 131.942 72.4376C131.7 72.0082 131.509 71.6556 131.357 71.3799C131.298 71.2518 131.222 71.1304 131.131 71.0183C131.166 71.1536 131.217 71.2854 131.282 71.4116C131.398 71.6602 131.559 72.0353 131.786 72.5009C132.471 73.8191 133.255 75.0938 134.134 76.3158C135.443 78.1314 136.943 79.8297 138.615 81.3872C140.664 83.2973 142.962 84.9788 145.459 86.3954C148.1 87.9321 150.882 88.9492 153.271 90.0611C155.427 90.9675 157.4 92.1895 159.108 93.6771C160.25 94.6926 161.144 95.9101 161.733 97.2524C162.137 98.2197 162.202 98.7937 162.243 98.7847Z" fill="#455A64"/>
<path d="M159.823 99.5214C159.947 99.0136 159.947 98.4879 159.823 97.9801C159.501 96.5884 158.72 95.3159 157.581 94.3279C156.195 93.0171 154.053 92.0091 151.659 91.1142C149.038 90.2096 146.536 89.0484 144.199 87.6519C141.882 86.235 139.771 84.5648 137.914 82.6799C136.391 81.138 135.04 79.465 133.882 77.6853C133.116 76.4803 132.431 75.2351 131.831 73.9563L131.373 72.8986C131.324 72.7727 131.262 72.6516 131.186 72.537C131.204 72.6688 131.241 72.798 131.297 72.9212C131.398 73.206 131.529 73.563 131.69 74.006C132.234 75.3147 132.886 76.5853 133.641 77.8073C136.151 81.8642 139.684 85.339 143.957 87.9547C146.322 89.366 148.858 90.5306 151.517 91.4261C153.911 92.3029 156.013 93.2657 157.384 94.5132C158.508 95.458 159.303 96.6747 159.672 98.0162C159.776 98.5125 159.827 99.0165 159.823 99.5214Z" fill="#455A64"/>
<path d="M148.428 110.103C148.428 110.057 149.098 110.08 150.278 109.99C151.938 109.819 153.533 109.313 154.945 108.512C157.017 107.289 158.73 105.636 159.939 103.693C161.465 101.333 162.536 98.7577 163.104 96.0771C163.715 93.4038 163.672 90.6434 162.978 87.9863C162.4 85.8185 161.424 83.7519 160.091 81.8708C157.792 78.6571 155.645 77.1745 155.751 77.0931C155.892 77.1623 156.021 77.2491 156.134 77.3508C156.366 77.5406 156.734 77.8028 157.142 78.1825C158.358 79.2476 159.442 80.4265 160.378 81.699C161.776 83.5898 162.799 85.6833 163.402 87.8869C163.747 89.1933 163.946 90.5273 163.997 91.869C164.023 93.3097 163.881 94.7489 163.573 96.163C162.996 98.8956 161.892 101.517 160.312 103.91C159.047 105.895 157.258 107.569 155.101 108.787C153.633 109.581 151.973 110.047 150.263 110.143C149.801 110.173 149.338 110.173 148.877 110.143C148.726 110.148 148.575 110.134 148.428 110.103Z" fill="#455A64"/>
<path d="M157.651 160.632C158.08 161.106 162.943 175.064 162.943 175.064L135.576 179.159L136.408 190.821L176.728 190.315C176.728 190.315 185.22 187.151 183.244 178.386C181.541 170.829 172.363 144.821 171.652 142.326C170.942 139.831 164.823 130.931 158.175 129.032L151.427 147.804L157.651 160.632Z" fill="#00D9DE"/>
<path d="M82.3284 188.484C82.3284 188.484 94.0111 175.805 95.2963 170.824C96.5815 165.843 93.6734 134.384 93.6734 134.384L114.438 117.76L122.653 123.563C122.653 123.563 125.173 133.019 131.121 133.562C137.068 134.104 144.416 126.687 144.416 126.687C144.416 126.687 154.38 126.732 160.952 130.122L159.904 149.585C158.523 158.119 157.137 166.309 155.272 169.835L155.121 170.824L145.152 188.267L82.3284 188.484Z" fill="#00D9DE"/>
<path d="M93.6683 134.764C93.6683 134.764 93.7439 128.291 93.7439 127.717C93.7439 127.143 89.092 106.292 87.9681 98.0976C86.8442 89.9029 87.1919 69.1967 87.1919 69.1967L103.547 66.4847L108.047 97.5281L112.079 108.349L114.816 119.197L112.674 122.551L93.6683 134.764Z" fill="#00D9DE"/>
<path d="M95.9918 107.449C96.0188 107.518 96.0325 107.59 96.0322 107.662C96.0322 107.825 96.0775 108.024 96.1027 108.263C96.1531 108.828 96.2237 109.578 96.3094 110.491C96.5476 112.943 96.625 115.404 96.5412 117.864C96.3973 120.326 95.9494 122.767 95.2056 125.141C94.9082 126.045 94.6613 126.777 94.4597 127.274L94.2278 127.848C94.2078 127.917 94.1755 127.983 94.1321 128.043C94.1395 127.971 94.1547 127.899 94.1774 127.83L94.3589 127.247C94.5302 126.741 94.757 126.009 95.0242 125.096C95.7119 122.729 96.1307 120.306 96.2741 117.864C96.4202 114.998 96.2237 112.399 96.1229 110.514C96.0725 109.61 96.0322 108.851 96.0019 108.286C96.0019 108.046 96.0019 107.834 96.0019 107.675C95.9829 107.601 95.9795 107.525 95.9918 107.449Z" fill="#263238"/>
<path d="M159.904 148.396C159.904 148.49 159.894 148.584 159.874 148.676L159.738 149.463C159.632 150.182 159.481 151.167 159.299 152.374C158.926 154.828 158.422 158.25 157.611 161.947C156.979 165.136 156.03 168.267 154.773 171.304C154.642 171.593 154.536 171.873 154.405 172.126L154.032 172.845L153.705 173.469C153.604 173.658 153.483 173.821 153.387 173.97L152.929 174.657C152.881 174.741 152.822 174.818 152.752 174.888C152.788 174.801 152.832 174.716 152.883 174.635L153.297 173.925C153.382 173.771 153.498 173.609 153.594 173.419C153.69 173.229 153.79 173.012 153.901 172.791L154.254 172.067C154.375 171.814 154.476 171.534 154.602 171.245C155.801 168.203 156.721 165.078 157.354 161.902C158.16 158.196 158.694 154.801 159.113 152.351C159.319 151.122 159.501 150.132 159.617 149.449C159.687 149.106 159.758 148.844 159.798 148.667C159.82 148.573 159.855 148.482 159.904 148.396Z" fill="#263238"/>
<path d="M171.118 181.704C170.738 181.348 170.387 180.967 170.07 180.565C169.281 179.615 168.428 178.709 167.515 177.853C165.332 175.882 162.883 175.141 162.943 175.042C163.004 174.942 163.099 175.069 163.367 175.155C163.745 175.288 164.115 175.439 164.475 175.607C165.665 176.15 166.753 176.856 167.701 177.699C168.625 178.555 169.468 179.479 170.221 180.461C170.557 180.853 170.857 181.269 171.118 181.704Z" fill="#263238"/>
<path d="M136.428 190.821C136.404 190.749 136.39 190.674 136.387 190.599C136.387 190.437 136.352 190.224 136.322 189.958C136.276 189.379 136.206 188.565 136.12 187.553C135.959 185.469 135.732 182.581 135.475 179.164V179.064H135.586L142.833 177.971L157.051 175.873L161.366 175.268L162.54 175.114C162.676 175.091 162.814 175.079 162.953 175.078C162.821 175.113 162.686 175.14 162.55 175.159L161.381 175.358L157.082 176.041L142.874 178.201L135.626 179.277L135.727 179.164C135.949 182.567 136.14 185.492 136.276 187.557C136.337 188.574 136.382 189.365 136.413 189.967C136.413 190.233 136.413 190.446 136.438 190.608C136.44 190.679 136.437 190.75 136.428 190.821Z" fill="#263238"/>
<path d="M131.282 163.534C131.282 163.534 131.216 163.601 131.07 163.71L130.425 164.185L129.951 164.519C129.775 164.637 129.573 164.75 129.362 164.881C128.884 165.181 128.39 165.458 127.88 165.712L126.993 166.164C126.685 166.318 126.343 166.44 125.985 166.589C125.299 166.897 124.533 167.132 123.732 167.403C120.201 168.49 116.444 168.859 112.735 168.483C111.888 168.375 111.076 168.289 110.336 168.126C109.968 168.045 109.605 167.99 109.262 167.904L108.289 167.642C107.731 167.494 107.183 167.319 106.646 167.118C106.404 167.032 106.183 166.96 105.981 166.878L105.437 166.643L104.696 166.309C104.607 166.273 104.523 166.229 104.444 166.178C104.54 166.195 104.633 166.224 104.721 166.264L105.482 166.558L106.026 166.774C106.233 166.851 106.46 166.915 106.697 166.996C107.201 167.145 107.705 167.344 108.345 167.484L109.312 167.728C109.65 167.81 110.013 167.859 110.381 167.932C111.167 168.079 111.961 168.191 112.76 168.266C114.593 168.429 116.44 168.429 118.274 168.266C120.1 168.071 121.901 167.717 123.651 167.208C124.448 166.946 125.214 166.716 125.894 166.417C126.237 166.277 126.58 166.155 126.902 166.011L127.789 165.586C128.369 165.328 128.842 165.03 129.301 164.79C129.513 164.664 129.719 164.555 129.901 164.447L130.405 164.126L131.075 163.674C131.14 163.622 131.209 163.576 131.282 163.534Z" fill="#263238"/>
<path d="M94.0463 190.238C93.9838 190.124 93.9487 190 93.9432 189.874C93.9376 189.747 93.9617 189.621 94.014 189.503C94.0663 189.386 94.1455 189.279 94.2466 189.191C94.3476 189.103 94.4683 189.034 94.6006 188.99C97.7557 188 109.015 184.47 109.761 184.231C110.623 183.973 127.905 180.972 127.905 180.972L135.712 180.583L136.377 189.971H128.963C128.002 190.229 127.02 190.42 126.025 190.541C124.921 190.636 108.34 191.413 103.94 191.246C103.664 191.234 103.397 191.158 103.164 191.026C102.93 190.893 102.739 190.709 102.609 190.491C102.609 190.491 99.8423 191.476 98.1085 191.268C96.3747 191.06 96.3798 190.749 96.3798 190.749C96.3798 190.749 94.7065 191.341 94.0463 190.238Z" fill="#FFBF9D"/>
<path d="M115.723 187.128C115.57 187.228 115.4 187.306 115.219 187.359C114.752 187.53 114.27 187.667 113.778 187.77C113.163 187.905 112.417 188.023 111.616 188.222C111.212 188.312 110.809 188.452 110.361 188.57C109.912 188.687 109.459 188.791 108.985 188.882C108.032 189.067 107.135 189.212 106.303 189.334C105.472 189.456 104.711 189.469 104.101 189.587C103.618 189.631 103.163 189.812 102.801 190.102C102.75 190.167 102.716 190.241 102.701 190.32C102.686 190.398 102.691 190.478 102.715 190.554C102.715 190.554 102.67 190.523 102.639 190.437C102.61 190.308 102.637 190.173 102.715 190.062C103.066 189.715 103.543 189.491 104.061 189.429C104.686 189.284 105.447 189.243 106.263 189.121C107.08 188.999 107.992 188.819 108.929 188.638C109.398 188.547 109.857 188.448 110.29 188.335C110.724 188.222 111.142 188.086 111.555 188C112.377 187.815 113.123 187.716 113.737 187.603C114.408 187.475 115.071 187.316 115.723 187.128Z" fill="#FF9A6C"/>
<path d="M112.256 185.203C112.041 185.288 111.818 185.358 111.591 185.41L109.746 185.894C108.194 186.301 106.041 186.861 103.698 187.508C101.354 188.154 99.1972 188.755 97.6499 189.194C97.3069 189.273 96.9848 189.413 96.7024 189.605C96.6013 189.679 96.5179 189.77 96.4573 189.873C96.3966 189.976 96.36 190.09 96.3496 190.206C96.3389 190.307 96.3528 190.408 96.3902 190.503C96.4277 190.599 96.4877 190.685 96.5663 190.758C96.5663 190.758 96.5008 190.758 96.4151 190.658C96.2957 190.533 96.236 190.371 96.2488 190.206C96.2509 190.075 96.2833 189.945 96.344 189.825C96.4047 189.705 96.4924 189.598 96.6016 189.51C96.9004 189.3 97.2432 189.147 97.6096 189.058C99.1216 188.579 101.274 187.951 103.658 187.304C106.041 186.658 108.194 186.125 109.756 185.758C110.537 185.573 111.177 185.433 111.621 185.343C111.827 185.277 112.04 185.231 112.256 185.203Z" fill="#FF9A6C"/>
</svg>
