<svg width="30" height="30" viewBox="0 0 30 30" fill="none" xmlns="http://www.w3.org/2000/svg">
<rect x="6" y="6.15002" width="18" height="16.5" fill="#F8FAFC"/>
<path d="M15 13.75C16.4388 13.75 17.5 12.69 17.5 11.25C17.5 9.81 16.4388 8.75 15 8.75C13.5625 8.75 12.5 9.81 12.5 11.25C12.5 12.69 13.5625 13.75 15 13.75ZM15 15C12.2387 15 10 17.015 10 19.5V19.9825H20V19.5C20 17.015 17.7613 15 15 15Z" fill="#003D3F"/>
<path d="M23.75 3.75H6.25C4.87125 3.75 3.75 4.87125 3.75 6.25V22.5C3.75 23.8787 4.87125 25 6.25 25H11.25H15H18.75H23.75C25.1287 25 26.25 23.8787 26.25 22.5V6.25C26.25 4.87125 25.1287 3.75 23.75 3.75ZM17.5 22.5H15H12.5H6.25V6.25H23.75L23.7525 22.5H17.5Z" fill="#003D3F"/>
</svg>
