<svg width="30" height="30" viewBox="0 0 30 30" fill="none" xmlns="http://www.w3.org/2000/svg">
<rect x="6" y="6.14999" width="18" height="16.5" fill="#F8FAFC"/>
<path d="M23.75 3.75H6.25C4.87125 3.75 3.75 4.87125 3.75 6.25V22.5C3.75 23.8787 4.87125 25 6.25 25H11.25H15H18.75H23.75C25.1287 25 26.25 23.8787 26.25 22.5V6.25C26.25 4.87125 25.1287 3.75 23.75 3.75ZM17.5 22.5H15H12.5H6.25V6.25H23.75L23.7525 22.5H17.5Z" fill="#003D3F"/>
<path d="M13.0332 15.3295C14.3743 15.3295 15.386 14.3178 15.386 12.9768C15.386 11.6357 14.3743 10.6241 13.0332 10.6241C11.6922 10.6241 10.6805 11.6357 10.6805 12.9768C10.6805 14.3178 11.6922 15.3295 13.0332 15.3295ZM13.7055 15.9668H12.361C10.5078 15.9668 9 17.4745 9 19.3278V20H17.0665V19.3278C17.0665 17.4745 15.5587 15.9668 13.7055 15.9668ZM20 9L19.0495 9.9505C19.9375 10.8398 20.4275 12.0216 20.4275 13.2779C20.4275 14.5343 19.9375 15.716 19.0495 16.6054L20 17.5559C21.1428 16.4124 21.7719 14.8932 21.7719 13.2779C21.7719 11.6626 21.1428 10.1434 20 9Z" fill="#003D3F"/>
<path d="M18.098 10.901L17.1475 11.8528C17.5286 12.2326 17.7383 12.7388 17.7383 13.2779C17.7383 13.817 17.5286 14.3232 17.1475 14.703L18.098 15.6549C18.7325 15.0203 19.0827 14.1767 19.0827 13.2779C19.0827 12.3792 18.7325 11.5356 18.098 10.901Z" fill="#003D3F"/>
</svg>
